%TF.GenerationSoftware,KiCad,Pcbnew,9.0.6*%
%TF.CreationDate,2025-11-18T00:54:51+10:00*%
%TF.ProjectId,PicoX68Key,5069636f-5836-4384-9b65-792e6b696361,rev?*%
%TF.SameCoordinates,Original*%
%TF.FileFunction,Copper,L1,Top*%
%TF.FilePolarity,Positive*%
%FSLAX46Y46*%
G04 Gerber Fmt 4.6, Leading zero omitted, Abs format (unit mm)*
G04 Created by KiCad (PCBNEW 9.0.6) date 2025-11-18 00:54:51*
%MOMM*%
%LPD*%
G01*
G04 APERTURE LIST*
G04 Aperture macros list*
%AMRoundRect*
0 Rectangle with rounded corners*
0 $1 Rounding radius*
0 $2 $3 $4 $5 $6 $7 $8 $9 X,Y pos of 4 corners*
0 Add a 4 corners polygon primitive as box body*
4,1,4,$2,$3,$4,$5,$6,$7,$8,$9,$2,$3,0*
0 Add four circle primitives for the rounded corners*
1,1,$1+$1,$2,$3*
1,1,$1+$1,$4,$5*
1,1,$1+$1,$6,$7*
1,1,$1+$1,$8,$9*
0 Add four rect primitives between the rounded corners*
20,1,$1+$1,$2,$3,$4,$5,0*
20,1,$1+$1,$4,$5,$6,$7,0*
20,1,$1+$1,$6,$7,$8,$9,0*
20,1,$1+$1,$8,$9,$2,$3,0*%
%AMFreePoly0*
4,1,37,0.000000,0.796148,0.078414,0.796148,0.232228,0.765552,0.377117,0.705537,0.507515,0.618408,0.618408,0.507515,0.705537,0.377117,0.765552,0.232228,0.796148,0.078414,0.796148,-0.078414,0.765552,-0.232228,0.705537,-0.377117,0.618408,-0.507515,0.507515,-0.618408,0.377117,-0.705537,0.232228,-0.765552,0.078414,-0.796148,0.000000,-0.796148,0.000000,-0.800000,-2.200000,-0.800000,
-2.203843,-0.796157,-2.239018,-0.796157,-2.311114,-0.766294,-2.366294,-0.711114,-2.396157,-0.639018,-2.396157,-0.603843,-2.400000,-0.600000,-2.400000,0.600000,-2.396157,0.603843,-2.396157,0.639018,-2.366294,0.711114,-2.311114,0.766294,-2.239018,0.796157,-2.203843,0.796157,-2.200000,0.800000,0.000000,0.800000,0.000000,0.796148,0.000000,0.796148,$1*%
%AMFreePoly1*
4,1,37,0.603843,0.796157,0.639018,0.796157,0.711114,0.766294,0.766294,0.711114,0.796157,0.639018,0.796157,0.603843,0.800000,0.600000,0.800000,-0.600000,0.796157,-0.603843,0.796157,-0.639018,0.766294,-0.711114,0.711114,-0.766294,0.639018,-0.796157,0.603843,-0.796157,0.600000,-0.800000,-1.600000,-0.800000,-1.600000,-0.796148,-1.678414,-0.796148,-1.832228,-0.765552,-1.977117,-0.705537,
-2.107515,-0.618408,-2.218408,-0.507515,-2.305537,-0.377117,-2.365552,-0.232228,-2.396148,-0.078414,-2.396148,0.078414,-2.365552,0.232228,-2.305537,0.377117,-2.218408,0.507515,-2.107515,0.618408,-1.977117,0.705537,-1.832228,0.765552,-1.678414,0.796148,-1.600000,0.796148,-1.600000,0.800000,0.600000,0.800000,0.603843,0.796157,0.603843,0.796157,$1*%
%AMFreePoly2*
4,1,37,0.603843,0.796157,0.639018,0.796157,0.711114,0.766294,0.766294,0.711114,0.796157,0.639018,0.796157,0.603843,0.800000,0.600000,0.800000,-0.600000,0.796157,-0.603843,0.796157,-0.639018,0.766294,-0.711114,0.711114,-0.766294,0.639018,-0.796157,0.603843,-0.796157,0.600000,-0.800000,0.000000,-0.800000,0.000000,-0.796148,-0.078414,-0.796148,-0.232228,-0.765552,-0.377117,-0.705537,
-0.507515,-0.618408,-0.618408,-0.507515,-0.705537,-0.377117,-0.765552,-0.232228,-0.796148,-0.078414,-0.796148,0.078414,-0.765552,0.232228,-0.705537,0.377117,-0.618408,0.507515,-0.507515,0.618408,-0.377117,0.705537,-0.232228,0.765552,-0.078414,0.796148,0.000000,0.796148,0.000000,0.800000,0.600000,0.800000,0.603843,0.796157,0.603843,0.796157,$1*%
%AMFreePoly3*
4,1,37,1.600000,0.796148,1.678414,0.796148,1.832228,0.765552,1.977117,0.705537,2.107515,0.618408,2.218408,0.507515,2.305537,0.377117,2.365552,0.232228,2.396148,0.078414,2.396148,-0.078414,2.365552,-0.232228,2.305537,-0.377117,2.218408,-0.507515,2.107515,-0.618408,1.977117,-0.705537,1.832228,-0.765552,1.678414,-0.796148,1.600000,-0.796148,1.600000,-0.800000,-0.600000,-0.800000,
-0.603843,-0.796157,-0.639018,-0.796157,-0.711114,-0.766294,-0.766294,-0.711114,-0.796157,-0.639018,-0.796157,-0.603843,-0.800000,-0.600000,-0.800000,0.600000,-0.796157,0.603843,-0.796157,0.639018,-0.766294,0.711114,-0.711114,0.766294,-0.639018,0.796157,-0.603843,0.796157,-0.600000,0.800000,1.600000,0.800000,1.600000,0.796148,1.600000,0.796148,$1*%
%AMFreePoly4*
4,1,37,0.000000,0.796148,0.078414,0.796148,0.232228,0.765552,0.377117,0.705537,0.507515,0.618408,0.618408,0.507515,0.705537,0.377117,0.765552,0.232228,0.796148,0.078414,0.796148,-0.078414,0.765552,-0.232228,0.705537,-0.377117,0.618408,-0.507515,0.507515,-0.618408,0.377117,-0.705537,0.232228,-0.765552,0.078414,-0.796148,0.000000,-0.796148,0.000000,-0.800000,-0.600000,-0.800000,
-0.603843,-0.796157,-0.639018,-0.796157,-0.711114,-0.766294,-0.766294,-0.711114,-0.796157,-0.639018,-0.796157,-0.603843,-0.800000,-0.600000,-0.800000,0.600000,-0.796157,0.603843,-0.796157,0.639018,-0.766294,0.711114,-0.711114,0.766294,-0.639018,0.796157,-0.603843,0.796157,-0.600000,0.800000,0.000000,0.800000,0.000000,0.796148,0.000000,0.796148,$1*%
G04 Aperture macros list end*
%TA.AperFunction,ComponentPad*%
%ADD10R,1.500000X1.500000*%
%TD*%
%TA.AperFunction,ComponentPad*%
%ADD11C,1.500000*%
%TD*%
%TA.AperFunction,SMDPad,CuDef*%
%ADD12RoundRect,0.250000X-0.625000X0.400000X-0.625000X-0.400000X0.625000X-0.400000X0.625000X0.400000X0*%
%TD*%
%TA.AperFunction,ComponentPad*%
%ADD13C,1.600000*%
%TD*%
%TA.AperFunction,SMDPad,CuDef*%
%ADD14RoundRect,0.150000X-0.150000X0.587500X-0.150000X-0.587500X0.150000X-0.587500X0.150000X0.587500X0*%
%TD*%
%TA.AperFunction,ComponentPad*%
%ADD15RoundRect,0.200000X-0.600000X-0.600000X0.600000X-0.600000X0.600000X0.600000X-0.600000X0.600000X0*%
%TD*%
%TA.AperFunction,SMDPad,CuDef*%
%ADD16FreePoly0,0.000000*%
%TD*%
%TA.AperFunction,SMDPad,CuDef*%
%ADD17RoundRect,0.800000X-0.800000X-0.000010X0.800000X-0.000010X0.800000X0.000010X-0.800000X0.000010X0*%
%TD*%
%TA.AperFunction,SMDPad,CuDef*%
%ADD18FreePoly1,0.000000*%
%TD*%
%TA.AperFunction,ComponentPad*%
%ADD19FreePoly2,0.000000*%
%TD*%
%TA.AperFunction,SMDPad,CuDef*%
%ADD20FreePoly3,0.000000*%
%TD*%
%TA.AperFunction,ComponentPad*%
%ADD21FreePoly4,0.000000*%
%TD*%
%TA.AperFunction,ComponentPad*%
%ADD22R,1.700000X1.700000*%
%TD*%
%TA.AperFunction,ComponentPad*%
%ADD23C,1.700000*%
%TD*%
%TA.AperFunction,ComponentPad*%
%ADD24R,1.408000X1.408000*%
%TD*%
%TA.AperFunction,ComponentPad*%
%ADD25C,1.408000*%
%TD*%
%TA.AperFunction,ComponentPad*%
%ADD26O,2.730000X1.230000*%
%TD*%
%TA.AperFunction,ViaPad*%
%ADD27C,0.800000*%
%TD*%
%TA.AperFunction,Conductor*%
%ADD28C,1.000000*%
%TD*%
%TA.AperFunction,Conductor*%
%ADD29C,0.500000*%
%TD*%
%TA.AperFunction,Conductor*%
%ADD30C,0.250000*%
%TD*%
G04 APERTURE END LIST*
D10*
%TO.P,Q2,1,S*%
%TO.N,KB_RX_L*%
X68450000Y-141447000D03*
D11*
%TO.P,Q2,2,G*%
%TO.N,3V3*%
X70990000Y-141447000D03*
%TO.P,Q2,3,D*%
%TO.N,KB_RX_H*%
X73530000Y-141447000D03*
%TD*%
D12*
%TO.P,R9,1*%
%TO.N,VBUS*%
X69342000Y-105130000D03*
%TO.P,R9,2*%
%TO.N,KB_RX_H*%
X69342000Y-108230000D03*
%TD*%
D13*
%TO.P,R3,1*%
%TO.N,VBUS*%
X69342000Y-100330000D03*
%TO.P,R3,2*%
%TO.N,KB_RX_H*%
X69342000Y-113030000D03*
%TD*%
%TO.P,R2,1*%
%TO.N,3V3*%
X98552000Y-82550000D03*
%TO.P,R2,2*%
%TO.N,KB_TX_L*%
X98552000Y-95250000D03*
%TD*%
D14*
%TO.P,SQ3,1,G*%
%TO.N,3V3*%
X98480000Y-144620000D03*
%TO.P,SQ3,2,S*%
%TO.N,MS_TX_L*%
X96580000Y-144620000D03*
%TO.P,SQ3,3,D*%
%TO.N,MS_TX_H*%
X97530000Y-146495000D03*
%TD*%
D12*
%TO.P,R8,1*%
%TO.N,3V3*%
X98552000Y-87070000D03*
%TO.P,R8,2*%
%TO.N,KB_TX_L*%
X98552000Y-90170000D03*
%TD*%
D13*
%TO.P,R5,1*%
%TO.N,VBUS*%
X69342000Y-118110000D03*
%TO.P,R5,2*%
%TO.N,MS_TX_H*%
X69342000Y-130810000D03*
%TD*%
D14*
%TO.P,SQ1,1,G*%
%TO.N,3V3*%
X98480000Y-136222500D03*
%TO.P,SQ1,2,S*%
%TO.N,KB_TX_L*%
X96580000Y-136222500D03*
%TO.P,SQ1,3,D*%
%TO.N,KB_TX_H*%
X97530000Y-138097500D03*
%TD*%
D13*
%TO.P,R1,1*%
%TO.N,VBUS*%
X69342000Y-82550000D03*
%TO.P,R1,2*%
%TO.N,KB_TX_H*%
X69342000Y-95250000D03*
%TD*%
D15*
%TO.P,U1,1,GPIO0*%
%TO.N,unconnected-(U1-GPIO0-Pad1)*%
X74930000Y-82550000D03*
D16*
%TO.N,unconnected-(U1-GPIO0-Pad1)_1*%
X74930000Y-82550000D03*
D13*
%TO.P,U1,2,GPIO1*%
%TO.N,unconnected-(U1-GPIO1-Pad2)*%
X74930000Y-85090000D03*
D17*
%TO.N,unconnected-(U1-GPIO1-Pad2)_1*%
X74130000Y-85090000D03*
D18*
%TO.P,U1,3,GND*%
%TO.N,GND*%
X74930000Y-87630000D03*
D19*
X74930000Y-87630000D03*
D13*
%TO.P,U1,4,GPIO2*%
%TO.N,unconnected-(U1-GPIO2-Pad4)*%
X74930000Y-90170000D03*
D17*
%TO.N,unconnected-(U1-GPIO2-Pad4)_1*%
X74130000Y-90170000D03*
D13*
%TO.P,U1,5,GPIO3*%
%TO.N,unconnected-(U1-GPIO3-Pad5)_1*%
X74930000Y-92710000D03*
D17*
%TO.N,unconnected-(U1-GPIO3-Pad5)*%
X74130000Y-92710000D03*
D13*
%TO.P,U1,6,GPIO4*%
%TO.N,KB_TX_L*%
X74930000Y-95250000D03*
D17*
X74130000Y-95250000D03*
D13*
%TO.P,U1,7,GPIO5*%
%TO.N,KB_RX_L*%
X74930000Y-97790000D03*
D17*
X74130000Y-97790000D03*
D18*
%TO.P,U1,8,GND*%
%TO.N,GND*%
X74930000Y-100330000D03*
D19*
X74930000Y-100330000D03*
D13*
%TO.P,U1,9,GPIO6*%
%TO.N,unconnected-(U1-GPIO6-Pad9)*%
X74930000Y-102870000D03*
D17*
%TO.N,unconnected-(U1-GPIO6-Pad9)_1*%
X74130000Y-102870000D03*
D13*
%TO.P,U1,10,GPIO7*%
%TO.N,unconnected-(U1-GPIO7-Pad10)_1*%
X74930000Y-105410000D03*
D17*
%TO.N,unconnected-(U1-GPIO7-Pad10)*%
X74130000Y-105410000D03*
D13*
%TO.P,U1,11,GPIO8*%
%TO.N,unconnected-(U1-GPIO8-Pad11)*%
X74930000Y-107950000D03*
D17*
%TO.N,unconnected-(U1-GPIO8-Pad11)_1*%
X74130000Y-107950000D03*
D13*
%TO.P,U1,12,GPIO9*%
%TO.N,unconnected-(U1-GPIO9-Pad12)*%
X74930000Y-110490000D03*
D17*
%TO.N,unconnected-(U1-GPIO9-Pad12)_1*%
X74130000Y-110490000D03*
D18*
%TO.P,U1,13,GND*%
%TO.N,GND*%
X74930000Y-113030000D03*
D19*
X74930000Y-113030000D03*
D13*
%TO.P,U1,14,GPIO10*%
%TO.N,unconnected-(U1-GPIO10-Pad14)*%
X74930000Y-115570000D03*
D17*
%TO.N,unconnected-(U1-GPIO10-Pad14)_1*%
X74130000Y-115570000D03*
D13*
%TO.P,U1,15,GPIO11*%
%TO.N,unconnected-(U1-GPIO11-Pad15)*%
X74930000Y-118110000D03*
D17*
%TO.N,unconnected-(U1-GPIO11-Pad15)_1*%
X74130000Y-118110000D03*
D13*
%TO.P,U1,16,GPIO12*%
%TO.N,MS_TX_L*%
X74930000Y-120650000D03*
D17*
X74130000Y-120650000D03*
D13*
%TO.P,U1,17,GPIO13*%
%TO.N,unconnected-(U1-GPIO13-Pad17)_1*%
X74930000Y-123190000D03*
D17*
%TO.N,unconnected-(U1-GPIO13-Pad17)*%
X74130000Y-123190000D03*
D18*
%TO.P,U1,18,GND*%
%TO.N,GND*%
X74930000Y-125730000D03*
D19*
X74930000Y-125730000D03*
D13*
%TO.P,U1,19,GPIO14*%
%TO.N,unconnected-(U1-GPIO14-Pad19)*%
X74930000Y-128270000D03*
D17*
%TO.N,unconnected-(U1-GPIO14-Pad19)_1*%
X74130000Y-128270000D03*
D13*
%TO.P,U1,20,GPIO15*%
%TO.N,unconnected-(U1-GPIO15-Pad20)_1*%
X74930000Y-130810000D03*
D17*
%TO.N,unconnected-(U1-GPIO15-Pad20)*%
X74130000Y-130810000D03*
D13*
%TO.P,U1,21,GPIO16*%
%TO.N,unconnected-(U1-GPIO16-Pad21)_1*%
X92710000Y-130810000D03*
D17*
%TO.N,unconnected-(U1-GPIO16-Pad21)*%
X93510000Y-130810000D03*
D13*
%TO.P,U1,22,GPIO17*%
%TO.N,CS*%
X92710000Y-128270000D03*
D17*
X93510000Y-128270000D03*
D20*
%TO.P,U1,23,GND*%
%TO.N,GND*%
X92710000Y-125730000D03*
D21*
X92710000Y-125730000D03*
D13*
%TO.P,U1,24,GPIO18*%
%TO.N,SCL*%
X92710000Y-123190000D03*
D17*
X93510000Y-123190000D03*
D13*
%TO.P,U1,25,GPIO19*%
%TO.N,MOSI*%
X92710000Y-120650000D03*
D17*
X93510000Y-120650000D03*
D13*
%TO.P,U1,26,GPIO20*%
%TO.N,unconnected-(U1-GPIO20-Pad26)*%
X92710000Y-118110000D03*
D17*
%TO.N,unconnected-(U1-GPIO20-Pad26)_1*%
X93510000Y-118110000D03*
D13*
%TO.P,U1,27,GPIO21*%
%TO.N,unconnected-(U1-GPIO21-Pad27)*%
X92710000Y-115570000D03*
D17*
%TO.N,unconnected-(U1-GPIO21-Pad27)_1*%
X93510000Y-115570000D03*
D20*
%TO.P,U1,28,GND*%
%TO.N,GND*%
X92710000Y-113030000D03*
D21*
X92710000Y-113030000D03*
D13*
%TO.P,U1,29,GPIO22*%
%TO.N,unconnected-(U1-GPIO22-Pad29)*%
X92710000Y-110490000D03*
D17*
%TO.N,unconnected-(U1-GPIO22-Pad29)_1*%
X93510000Y-110490000D03*
D13*
%TO.P,U1,30,RUN*%
%TO.N,unconnected-(U1-RUN-Pad30)_1*%
X92710000Y-107950000D03*
D17*
%TO.N,unconnected-(U1-RUN-Pad30)*%
X93510000Y-107950000D03*
D13*
%TO.P,U1,31,GPIO26_ADC0*%
%TO.N,unconnected-(U1-GPIO26_ADC0-Pad31)_1*%
X92710000Y-105410000D03*
D17*
%TO.N,unconnected-(U1-GPIO26_ADC0-Pad31)*%
X93510000Y-105410000D03*
D13*
%TO.P,U1,32,GPIO27_ADC1*%
%TO.N,unconnected-(U1-GPIO27_ADC1-Pad32)*%
X92710000Y-102870000D03*
D17*
%TO.N,unconnected-(U1-GPIO27_ADC1-Pad32)_1*%
X93510000Y-102870000D03*
D20*
%TO.P,U1,33,AGND*%
%TO.N,GND*%
X92710000Y-100330000D03*
D21*
X92710000Y-100330000D03*
D13*
%TO.P,U1,34,GPIO28_ADC2*%
%TO.N,unconnected-(U1-GPIO28_ADC2-Pad34)_1*%
X92710000Y-97790000D03*
D17*
%TO.N,unconnected-(U1-GPIO28_ADC2-Pad34)*%
X93510000Y-97790000D03*
D13*
%TO.P,U1,35,ADC_VREF*%
%TO.N,unconnected-(U1-ADC_VREF-Pad35)_1*%
X92710000Y-95250000D03*
D17*
%TO.N,unconnected-(U1-ADC_VREF-Pad35)*%
X93510000Y-95250000D03*
D13*
%TO.P,U1,36,3V3*%
%TO.N,3V3*%
X92710000Y-92710000D03*
D17*
X93510000Y-92710000D03*
D13*
%TO.P,U1,37,3V3_EN*%
%TO.N,unconnected-(U1-3V3_EN-Pad37)*%
X92710000Y-90170000D03*
D17*
%TO.N,unconnected-(U1-3V3_EN-Pad37)_1*%
X93510000Y-90170000D03*
D20*
%TO.P,U1,38,GND*%
%TO.N,GND*%
X92710000Y-87630000D03*
D21*
X92710000Y-87630000D03*
D13*
%TO.P,U1,39,VSYS*%
%TO.N,unconnected-(U1-VSYS-Pad39)*%
X92710000Y-85090000D03*
D17*
%TO.N,unconnected-(U1-VSYS-Pad39)_1*%
X93510000Y-85090000D03*
D13*
%TO.P,U1,40,VBUS*%
%TO.N,VBUS*%
X92710000Y-82550000D03*
D17*
X93510000Y-82550000D03*
%TD*%
D14*
%TO.P,SQ2,1,G*%
%TO.N,3V3*%
X98480000Y-140413500D03*
%TO.P,SQ2,2,S*%
%TO.N,KB_RX_L*%
X96580000Y-140413500D03*
%TO.P,SQ2,3,D*%
%TO.N,KB_RX_H*%
X97530000Y-142288500D03*
%TD*%
D10*
%TO.P,Q3,1,S*%
%TO.N,MS_TX_L*%
X68450000Y-146421000D03*
D11*
%TO.P,Q3,2,G*%
%TO.N,3V3*%
X70990000Y-146421000D03*
%TO.P,Q3,3,D*%
%TO.N,MS_TX_H*%
X73530000Y-146421000D03*
%TD*%
D12*
%TO.P,R11,1*%
%TO.N,VBUS*%
X69342000Y-122910000D03*
%TO.P,R11,2*%
%TO.N,MS_TX_H*%
X69342000Y-126010000D03*
%TD*%
%TO.P,R12,1*%
%TO.N,3V3*%
X98552000Y-122910000D03*
%TO.P,R12,2*%
%TO.N,MS_TX_L*%
X98552000Y-126010000D03*
%TD*%
D22*
%TO.P,J1,1,Pin_1*%
%TO.N,VBUS*%
X76200000Y-135475000D03*
D23*
%TO.P,J1,2,Pin_2*%
%TO.N,MOSI*%
X78740000Y-135475000D03*
%TO.P,J1,3,Pin_3*%
%TO.N,SCL*%
X81280000Y-135475000D03*
%TO.P,J1,4,Pin_4*%
%TO.N,CS*%
X83820000Y-135475000D03*
%TO.P,J1,5,Pin_5*%
%TO.N,unconnected-(J1-Pin_5-Pad5)*%
X86360000Y-135475000D03*
%TO.P,J1,6,Pin_6*%
%TO.N,3V3*%
X88900000Y-135475000D03*
%TO.P,J1,7,Pin_7*%
%TO.N,GND*%
X91440000Y-135475000D03*
%TD*%
D12*
%TO.P,R7,1*%
%TO.N,VBUS*%
X69342000Y-87350000D03*
%TO.P,R7,2*%
%TO.N,KB_TX_H*%
X69342000Y-90450000D03*
%TD*%
D13*
%TO.P,R6,1*%
%TO.N,3V3*%
X98552000Y-118110000D03*
%TO.P,R6,2*%
%TO.N,MS_TX_L*%
X98552000Y-130810000D03*
%TD*%
%TO.P,R4,1*%
%TO.N,3V3*%
X98552000Y-100330000D03*
%TO.P,R4,2*%
%TO.N,KB_RX_L*%
X98552000Y-113030000D03*
%TD*%
D12*
%TO.P,R10,1*%
%TO.N,3V3*%
X98552000Y-105130000D03*
%TO.P,R10,2*%
%TO.N,KB_RX_L*%
X98552000Y-108230000D03*
%TD*%
D24*
%TO.P,J2,1,1*%
%TO.N,VBUS*%
X85150000Y-141750000D03*
D25*
%TO.P,J2,2,2*%
%TO.N,MS_TX_H*%
X82550000Y-141750000D03*
%TO.P,J2,3,3*%
%TO.N,KB_TX_H*%
X87250000Y-141750000D03*
%TO.P,J2,4,4*%
%TO.N,KB_RX_H*%
X80450000Y-141750000D03*
%TO.P,J2,5,5*%
%TO.N,unconnected-(J2-Pad5)*%
X87250000Y-139250000D03*
%TO.P,J2,6,6*%
%TO.N,unconnected-(J2-Pad6)*%
X82950000Y-139250000D03*
%TO.P,J2,7,7*%
%TO.N,GND*%
X80450000Y-139250000D03*
D26*
%TO.P,J2,S1,SHIELD*%
X83850000Y-145550000D03*
%TD*%
D10*
%TO.P,Q1,1,S*%
%TO.N,KB_TX_L*%
X68450000Y-136350000D03*
D11*
%TO.P,Q1,2,G*%
%TO.N,3V3*%
X70990000Y-136350000D03*
%TO.P,Q1,3,D*%
%TO.N,KB_TX_H*%
X73530000Y-136350000D03*
%TD*%
D27*
%TO.N,VBUS*%
X88500000Y-96450000D03*
%TO.N,MS_TX_H*%
X70800000Y-133600000D03*
%TO.N,KB_RX_H*%
X73600000Y-133550000D03*
%TO.N,KB_TX_L*%
X94550000Y-136250000D03*
%TO.N,3V3*%
X99600000Y-134100000D03*
%TO.N,KB_RX_L*%
X94750000Y-140400000D03*
X82500000Y-98500000D03*
%TO.N,MS_TX_L*%
X94750000Y-144650000D03*
%TD*%
D28*
%TO.N,VBUS*%
X88500000Y-85500000D02*
X91450000Y-82550000D01*
X91450000Y-82550000D02*
X92710000Y-82550000D01*
D29*
X69342000Y-82550000D02*
X70817000Y-81075000D01*
D28*
X88500000Y-91500000D02*
X88500000Y-85500000D01*
D29*
X69342000Y-118110000D02*
X69342000Y-122910000D01*
X70817000Y-81075000D02*
X91235000Y-81075000D01*
X69342000Y-82550000D02*
X69342000Y-87350000D01*
X69342000Y-100330000D02*
X69342000Y-105130000D01*
X91235000Y-81075000D02*
X92710000Y-82550000D01*
D28*
X88500000Y-91500000D02*
X88500000Y-96450000D01*
D30*
%TO.N,MS_TX_H*%
X93245000Y-146495000D02*
X90650000Y-143900000D01*
X97530000Y-146495000D02*
X93245000Y-146495000D01*
X84250000Y-143900000D02*
X82550000Y-142200000D01*
X90650000Y-143900000D02*
X84250000Y-143900000D01*
X70800000Y-134150000D02*
X72250000Y-135600000D01*
X77879000Y-146421000D02*
X82550000Y-141750000D01*
D29*
X69342000Y-126010000D02*
X69342000Y-130810000D01*
D30*
X73530000Y-146421000D02*
X77879000Y-146421000D01*
X70800000Y-134150000D02*
X70800000Y-133600000D01*
X82550000Y-142200000D02*
X82550000Y-141750000D01*
X72250000Y-145141000D02*
X73530000Y-146421000D01*
X72250000Y-135600000D02*
X72250000Y-145141000D01*
%TO.N,KB_TX_H*%
X90250000Y-141750000D02*
X93902500Y-138097500D01*
X82350000Y-136850000D02*
X74030000Y-136850000D01*
X70900000Y-132450000D02*
X73530000Y-135080000D01*
X87250000Y-141750000D02*
X82350000Y-136850000D01*
X67800000Y-131650000D02*
X68600000Y-132450000D01*
X74030000Y-136850000D02*
X73530000Y-136350000D01*
D29*
X69342000Y-90450000D02*
X69342000Y-95250000D01*
D30*
X67800000Y-96792000D02*
X67800000Y-131650000D01*
X87250000Y-141750000D02*
X90250000Y-141750000D01*
X73530000Y-135080000D02*
X73530000Y-136350000D01*
X93902500Y-138097500D02*
X97530000Y-138097500D01*
X68600000Y-132450000D02*
X70900000Y-132450000D01*
X69342000Y-95250000D02*
X67800000Y-96792000D01*
%TO.N,KB_RX_H*%
X71600000Y-115288000D02*
X71600000Y-131550000D01*
D29*
X69342000Y-108230000D02*
X69342000Y-113030000D01*
D30*
X71600000Y-131550000D02*
X73600000Y-133550000D01*
X91311500Y-142288500D02*
X97530000Y-142288500D01*
X83850000Y-142550000D02*
X84250000Y-142950000D01*
X80147000Y-141447000D02*
X80450000Y-141750000D01*
X83200000Y-140450000D02*
X83850000Y-141100000D01*
X80450000Y-141750000D02*
X81750000Y-140450000D01*
X90650000Y-142950000D02*
X91311500Y-142288500D01*
X73530000Y-141447000D02*
X80147000Y-141447000D01*
X69342000Y-113030000D02*
X71600000Y-115288000D01*
X83850000Y-141100000D02*
X83850000Y-142550000D01*
X81750000Y-140450000D02*
X83200000Y-140450000D01*
X84250000Y-142950000D02*
X90650000Y-142950000D01*
%TO.N,KB_TX_L*%
X94550000Y-136250000D02*
X96552500Y-136250000D01*
X96552500Y-136250000D02*
X96580000Y-136222500D01*
D29*
X98552000Y-90170000D02*
X98552000Y-95250000D01*
%TO.N,3V3*%
X98552000Y-82550000D02*
X98552000Y-87070000D01*
X88900000Y-133800000D02*
X88900000Y-135475000D01*
D30*
X98480000Y-140413500D02*
X98480000Y-144620000D01*
X99600000Y-134100000D02*
X98480000Y-135220000D01*
D29*
X98650000Y-133150000D02*
X89550000Y-133150000D01*
D30*
X70990000Y-146421000D02*
X70990000Y-141447000D01*
D29*
X89550000Y-133150000D02*
X88900000Y-133800000D01*
X98552000Y-100330000D02*
X98552000Y-105130000D01*
X99600000Y-134100000D02*
X98650000Y-133150000D01*
D30*
X70990000Y-141447000D02*
X70990000Y-136350000D01*
X97750000Y-148500000D02*
X73069000Y-148500000D01*
D29*
X98552000Y-118110000D02*
X98552000Y-122910000D01*
D30*
X98480000Y-147770000D02*
X97750000Y-148500000D01*
X98480000Y-136222500D02*
X98480000Y-140413500D01*
X73069000Y-148500000D02*
X70990000Y-146421000D01*
X98480000Y-144620000D02*
X98480000Y-147770000D01*
X98480000Y-135220000D02*
X98480000Y-136222500D01*
D29*
%TO.N,KB_RX_L*%
X98552000Y-108230000D02*
X98552000Y-113030000D01*
D30*
X96972000Y-106650000D02*
X98552000Y-108230000D01*
X94750000Y-140400000D02*
X96566500Y-140400000D01*
X90650000Y-106650000D02*
X96972000Y-106650000D01*
X96566500Y-140400000D02*
X96580000Y-140413500D01*
X82500000Y-98500000D02*
X90650000Y-106650000D01*
%TO.N,MS_TX_L*%
X94750000Y-144650000D02*
X96550000Y-144650000D01*
D29*
X98552000Y-126010000D02*
X98552000Y-130810000D01*
D30*
X96550000Y-144650000D02*
X96580000Y-144620000D01*
%TD*%
%TA.AperFunction,Conductor*%
%TO.N,GND*%
G36*
X97841243Y-80518669D02*
G01*
X98118182Y-80533184D01*
X98125575Y-80533794D01*
X98187875Y-80540813D01*
X98193353Y-80541555D01*
X98435128Y-80579848D01*
X98443289Y-80581423D01*
X98498830Y-80594100D01*
X98503181Y-80595179D01*
X98746157Y-80660284D01*
X98754999Y-80663013D01*
X98797629Y-80677930D01*
X98801079Y-80679195D01*
X99047378Y-80773739D01*
X99056711Y-80777770D01*
X99077307Y-80787689D01*
X99079754Y-80788900D01*
X99331968Y-80917411D01*
X99343203Y-80923898D01*
X99595608Y-81087812D01*
X99606109Y-81095441D01*
X99804947Y-81256457D01*
X99840010Y-81284850D01*
X99849655Y-81293535D01*
X100062464Y-81506344D01*
X100071149Y-81515989D01*
X100260558Y-81749890D01*
X100268187Y-81760391D01*
X100432101Y-82012796D01*
X100438591Y-82024036D01*
X100567075Y-82276199D01*
X100568309Y-82278691D01*
X100578223Y-82299277D01*
X100582268Y-82308643D01*
X100676791Y-82554887D01*
X100678068Y-82558369D01*
X100692985Y-82600999D01*
X100695719Y-82609860D01*
X100760806Y-82852766D01*
X100761919Y-82857257D01*
X100761922Y-82857268D01*
X100761923Y-82857270D01*
X100774569Y-82912681D01*
X100776150Y-82920872D01*
X100798473Y-83061804D01*
X100800000Y-83081203D01*
X100800000Y-146915795D01*
X100798473Y-146935194D01*
X100776150Y-147076126D01*
X100774569Y-147084317D01*
X100761923Y-147139728D01*
X100760806Y-147144232D01*
X100695719Y-147387138D01*
X100692985Y-147395999D01*
X100678068Y-147438629D01*
X100676791Y-147442111D01*
X100582268Y-147688355D01*
X100578223Y-147697721D01*
X100568309Y-147718307D01*
X100567075Y-147720799D01*
X100438591Y-147972964D01*
X100432105Y-147984197D01*
X100346881Y-148115432D01*
X100268187Y-148236609D01*
X100260558Y-148247109D01*
X100071149Y-148481010D01*
X100062464Y-148490655D01*
X99849655Y-148703464D01*
X99840010Y-148712149D01*
X99606109Y-148901558D01*
X99595609Y-148909187D01*
X99343197Y-149073105D01*
X99331964Y-149079591D01*
X99079799Y-149208075D01*
X99077307Y-149209309D01*
X99056721Y-149219223D01*
X99047355Y-149223268D01*
X98801111Y-149317791D01*
X98797629Y-149319068D01*
X98754999Y-149333985D01*
X98746138Y-149336719D01*
X98503232Y-149401806D01*
X98498729Y-149402923D01*
X98443319Y-149415569D01*
X98435126Y-149417150D01*
X98193371Y-149455440D01*
X98187856Y-149456187D01*
X98125574Y-149463204D01*
X98118182Y-149463814D01*
X97841244Y-149478330D01*
X97834753Y-149478500D01*
X69932246Y-149478500D01*
X69925757Y-149478330D01*
X69915676Y-149477801D01*
X69648816Y-149463814D01*
X69641424Y-149463204D01*
X69579142Y-149456187D01*
X69573627Y-149455440D01*
X69331872Y-149417150D01*
X69323679Y-149415569D01*
X69295044Y-149409033D01*
X69268245Y-149402917D01*
X69263766Y-149401806D01*
X69020860Y-149336719D01*
X69011999Y-149333985D01*
X68969369Y-149319068D01*
X68965887Y-149317791D01*
X68719643Y-149223268D01*
X68710277Y-149219223D01*
X68689691Y-149209309D01*
X68687199Y-149208075D01*
X68435036Y-149079591D01*
X68423796Y-149073101D01*
X68171391Y-148909187D01*
X68160890Y-148901558D01*
X67926989Y-148712149D01*
X67917344Y-148703464D01*
X67704535Y-148490655D01*
X67695850Y-148481010D01*
X67506441Y-148247109D01*
X67498812Y-148236608D01*
X67493102Y-148227815D01*
X67334896Y-147984199D01*
X67328408Y-147972963D01*
X67305308Y-147927627D01*
X67203992Y-147728784D01*
X67191097Y-147660118D01*
X67217373Y-147595378D01*
X67274479Y-147555120D01*
X67344285Y-147552128D01*
X67388788Y-147573224D01*
X67453796Y-147621889D01*
X67590799Y-147672989D01*
X67618050Y-147675918D01*
X67651345Y-147679499D01*
X67651362Y-147679500D01*
X69248638Y-147679500D01*
X69248654Y-147679499D01*
X69275692Y-147676591D01*
X69309201Y-147672989D01*
X69446204Y-147621889D01*
X69563261Y-147534261D01*
X69650889Y-147417204D01*
X69701989Y-147280201D01*
X69705591Y-147246692D01*
X69708499Y-147219654D01*
X69708500Y-147219637D01*
X69708500Y-147179888D01*
X69728185Y-147112849D01*
X69780989Y-147067094D01*
X69850147Y-147057150D01*
X69913703Y-147086175D01*
X69932816Y-147107000D01*
X70030070Y-147240858D01*
X70170142Y-147380930D01*
X70330402Y-147497366D01*
X70402810Y-147534260D01*
X70506898Y-147587296D01*
X70506900Y-147587296D01*
X70506903Y-147587298D01*
X70567395Y-147606953D01*
X70695299Y-147648512D01*
X70890949Y-147679500D01*
X70890954Y-147679500D01*
X71089051Y-147679500D01*
X71284700Y-147648512D01*
X71473097Y-147587298D01*
X71608862Y-147518121D01*
X71677530Y-147505226D01*
X71742270Y-147531502D01*
X71752837Y-147540926D01*
X72925970Y-148714059D01*
X73018775Y-148752500D01*
X73018777Y-148752500D01*
X97800223Y-148752500D01*
X97800225Y-148752500D01*
X97893030Y-148714059D01*
X98694059Y-147913030D01*
X98732500Y-147820225D01*
X98732500Y-147719775D01*
X98732500Y-145956550D01*
X98752185Y-145889511D01*
X98804989Y-145843756D01*
X98821892Y-145837478D01*
X98893601Y-145816645D01*
X99036807Y-145731953D01*
X99154453Y-145614307D01*
X99239145Y-145471101D01*
X99275887Y-145344634D01*
X99285561Y-145311335D01*
X99285562Y-145311329D01*
X99287327Y-145288902D01*
X99288500Y-145274002D01*
X99288500Y-143965998D01*
X99285562Y-143928669D01*
X99261225Y-143844901D01*
X99239146Y-143768903D01*
X99239145Y-143768899D01*
X99154453Y-143625693D01*
X99154451Y-143625691D01*
X99154448Y-143625687D01*
X99036812Y-143508051D01*
X99036803Y-143508044D01*
X98893601Y-143423355D01*
X98893596Y-143423353D01*
X98821905Y-143402525D01*
X98763019Y-143364919D01*
X98733813Y-143301446D01*
X98732500Y-143283449D01*
X98732500Y-141750050D01*
X98752185Y-141683011D01*
X98804989Y-141637256D01*
X98821892Y-141630978D01*
X98893601Y-141610145D01*
X99036807Y-141525453D01*
X99154453Y-141407807D01*
X99239145Y-141264601D01*
X99280571Y-141122011D01*
X99285561Y-141104835D01*
X99285562Y-141104829D01*
X99286826Y-141088769D01*
X99288500Y-141067502D01*
X99288500Y-139759498D01*
X99285562Y-139722169D01*
X99283606Y-139715438D01*
X99239146Y-139562403D01*
X99239146Y-139562402D01*
X99239145Y-139562399D01*
X99176694Y-139456800D01*
X99154455Y-139419196D01*
X99154448Y-139419187D01*
X99036812Y-139301551D01*
X99036803Y-139301544D01*
X98893601Y-139216855D01*
X98893596Y-139216853D01*
X98821905Y-139196025D01*
X98763019Y-139158419D01*
X98733813Y-139094946D01*
X98732500Y-139076949D01*
X98732500Y-137559050D01*
X98752185Y-137492011D01*
X98804989Y-137446256D01*
X98821892Y-137439978D01*
X98893601Y-137419145D01*
X99036807Y-137334453D01*
X99154453Y-137216807D01*
X99239145Y-137073601D01*
X99285562Y-136913831D01*
X99288500Y-136876502D01*
X99288500Y-135568498D01*
X99285562Y-135531169D01*
X99273832Y-135490795D01*
X99243370Y-135385941D01*
X99239145Y-135371399D01*
X99154453Y-135228193D01*
X99154451Y-135228191D01*
X99154448Y-135228187D01*
X99079355Y-135153094D01*
X99075016Y-135145148D01*
X99067769Y-135139723D01*
X99058534Y-135114963D01*
X99045870Y-135091771D01*
X99046515Y-135082741D01*
X99043352Y-135074259D01*
X99048968Y-135048438D01*
X99050854Y-135022079D01*
X99056672Y-135013025D01*
X99058204Y-135005986D01*
X99079352Y-134977735D01*
X99098578Y-134958509D01*
X99159899Y-134925026D01*
X99229591Y-134930010D01*
X99233712Y-134931631D01*
X99335000Y-134973587D01*
X99497882Y-135005986D01*
X99510516Y-135008499D01*
X99510520Y-135008500D01*
X99510521Y-135008500D01*
X99689480Y-135008500D01*
X99689481Y-135008499D01*
X99865000Y-134973587D01*
X100030336Y-134905102D01*
X100179135Y-134805678D01*
X100305678Y-134679135D01*
X100405102Y-134530336D01*
X100473587Y-134365000D01*
X100508500Y-134189479D01*
X100508500Y-134010521D01*
X100473587Y-133835000D01*
X100405102Y-133669664D01*
X100405100Y-133669661D01*
X100405098Y-133669657D01*
X100305678Y-133520865D01*
X100305675Y-133520861D01*
X100179138Y-133394324D01*
X100179134Y-133394321D01*
X100030342Y-133294901D01*
X100030332Y-133294896D01*
X99865000Y-133226413D01*
X99864992Y-133226411D01*
X99689483Y-133191500D01*
X99689479Y-133191500D01*
X99510521Y-133191500D01*
X99510516Y-133191500D01*
X99337680Y-133225879D01*
X99268088Y-133219652D01*
X99225808Y-133191943D01*
X98881792Y-132847927D01*
X98881790Y-132847925D01*
X98795710Y-132798226D01*
X98699699Y-132772500D01*
X89599699Y-132772500D01*
X89500301Y-132772500D01*
X89404289Y-132798226D01*
X89318210Y-132847925D01*
X89318207Y-132847927D01*
X88597927Y-133568207D01*
X88597925Y-133568210D01*
X88548225Y-133654291D01*
X88548225Y-133654294D01*
X88522500Y-133750301D01*
X88522500Y-134079154D01*
X88502815Y-134146193D01*
X88450011Y-134191948D01*
X88436820Y-134197083D01*
X88378523Y-134216026D01*
X88378514Y-134216029D01*
X88187990Y-134313106D01*
X88014993Y-134438796D01*
X87863796Y-134589993D01*
X87738105Y-134762991D01*
X87735727Y-134766873D01*
X87683914Y-134813748D01*
X87614984Y-134825169D01*
X87550822Y-134797512D01*
X87524273Y-134766873D01*
X87521894Y-134762991D01*
X87460968Y-134679134D01*
X87396206Y-134589996D01*
X87245004Y-134438794D01*
X87072009Y-134313106D01*
X87057425Y-134305675D01*
X86881483Y-134216027D01*
X86881480Y-134216026D01*
X86678117Y-134149951D01*
X86572516Y-134133225D01*
X86466916Y-134116500D01*
X86253084Y-134116500D01*
X86182684Y-134127650D01*
X86041882Y-134149951D01*
X85838519Y-134216026D01*
X85838516Y-134216027D01*
X85647990Y-134313106D01*
X85474993Y-134438796D01*
X85323796Y-134589993D01*
X85198105Y-134762991D01*
X85195727Y-134766873D01*
X85143914Y-134813748D01*
X85074984Y-134825169D01*
X85010822Y-134797512D01*
X84984273Y-134766873D01*
X84981894Y-134762991D01*
X84920968Y-134679134D01*
X84856206Y-134589996D01*
X84705004Y-134438794D01*
X84532009Y-134313106D01*
X84517425Y-134305675D01*
X84341483Y-134216027D01*
X84341480Y-134216026D01*
X84138117Y-134149951D01*
X84032516Y-134133225D01*
X83926916Y-134116500D01*
X83713084Y-134116500D01*
X83642684Y-134127650D01*
X83501882Y-134149951D01*
X83298519Y-134216026D01*
X83298516Y-134216027D01*
X83107990Y-134313106D01*
X82934993Y-134438796D01*
X82783796Y-134589993D01*
X82658105Y-134762991D01*
X82655727Y-134766873D01*
X82603914Y-134813748D01*
X82534984Y-134825169D01*
X82470822Y-134797512D01*
X82444273Y-134766873D01*
X82441894Y-134762991D01*
X82380968Y-134679134D01*
X82316206Y-134589996D01*
X82165004Y-134438794D01*
X81992009Y-134313106D01*
X81977425Y-134305675D01*
X81801483Y-134216027D01*
X81801480Y-134216026D01*
X81598117Y-134149951D01*
X81492516Y-134133225D01*
X81386916Y-134116500D01*
X81173084Y-134116500D01*
X81102684Y-134127650D01*
X80961882Y-134149951D01*
X80758519Y-134216026D01*
X80758516Y-134216027D01*
X80567990Y-134313106D01*
X80394993Y-134438796D01*
X80243796Y-134589993D01*
X80118105Y-134762991D01*
X80115727Y-134766873D01*
X80063914Y-134813748D01*
X79994984Y-134825169D01*
X79930822Y-134797512D01*
X79904273Y-134766873D01*
X79901894Y-134762991D01*
X79840968Y-134679134D01*
X79776206Y-134589996D01*
X79625004Y-134438794D01*
X79452009Y-134313106D01*
X79437425Y-134305675D01*
X79261483Y-134216027D01*
X79261480Y-134216026D01*
X79058117Y-134149951D01*
X78952516Y-134133225D01*
X78846916Y-134116500D01*
X78633084Y-134116500D01*
X78562684Y-134127650D01*
X78421882Y-134149951D01*
X78218519Y-134216026D01*
X78218516Y-134216027D01*
X78027990Y-134313106D01*
X77854997Y-134438793D01*
X77749818Y-134543972D01*
X77688495Y-134577456D01*
X77618803Y-134572472D01*
X77562870Y-134530600D01*
X77545958Y-134499629D01*
X77500889Y-134378796D01*
X77490561Y-134365000D01*
X77438555Y-134295528D01*
X77413261Y-134261739D01*
X77296204Y-134174111D01*
X77283158Y-134169245D01*
X77159203Y-134123011D01*
X77098654Y-134116500D01*
X77098638Y-134116500D01*
X75301362Y-134116500D01*
X75301345Y-134116500D01*
X75240797Y-134123011D01*
X75240795Y-134123011D01*
X75103795Y-134174111D01*
X74986739Y-134261739D01*
X74899111Y-134378795D01*
X74848011Y-134515795D01*
X74848011Y-134515797D01*
X74841500Y-134576345D01*
X74841500Y-135635380D01*
X74821815Y-135702419D01*
X74769011Y-135748174D01*
X74699853Y-135758118D01*
X74636297Y-135729093D01*
X74609150Y-135694407D01*
X74608911Y-135694554D01*
X74607630Y-135692464D01*
X74607019Y-135691683D01*
X74606778Y-135691212D01*
X74606366Y-135690402D01*
X74489930Y-135530142D01*
X74349858Y-135390070D01*
X74189598Y-135273634D01*
X74189594Y-135273632D01*
X74013101Y-135183703D01*
X73894440Y-135145148D01*
X73868180Y-135136615D01*
X73810506Y-135097178D01*
X73786912Y-135041348D01*
X73784882Y-135041752D01*
X73782500Y-135029778D01*
X73782500Y-135029775D01*
X73744059Y-134936970D01*
X73673030Y-134865941D01*
X73477270Y-134670181D01*
X73443785Y-134608858D01*
X73448769Y-134539166D01*
X73490641Y-134483233D01*
X73556105Y-134458816D01*
X73564951Y-134458500D01*
X73689480Y-134458500D01*
X73689481Y-134458499D01*
X73865000Y-134423587D01*
X74030336Y-134355102D01*
X74179135Y-134255678D01*
X74305678Y-134129135D01*
X74405102Y-133980336D01*
X74473587Y-133815000D01*
X74508500Y-133639479D01*
X74508500Y-133460521D01*
X74473587Y-133285000D01*
X74405102Y-133119664D01*
X74405100Y-133119661D01*
X74405098Y-133119657D01*
X74305678Y-132970865D01*
X74305675Y-132970861D01*
X74179138Y-132844324D01*
X74179134Y-132844321D01*
X74030342Y-132744901D01*
X74030332Y-132744896D01*
X73865000Y-132676413D01*
X73864992Y-132676411D01*
X73689483Y-132641500D01*
X73689479Y-132641500D01*
X73510521Y-132641500D01*
X73510516Y-132641500D01*
X73335007Y-132676411D01*
X73334995Y-132676414D01*
X73233710Y-132718368D01*
X73164241Y-132725837D01*
X73101762Y-132694562D01*
X73098577Y-132691488D01*
X72573468Y-132166379D01*
X72539983Y-132105056D01*
X72544967Y-132035364D01*
X72586839Y-131979431D01*
X72652303Y-131955014D01*
X72713552Y-131966315D01*
X72880757Y-132044284D01*
X73101913Y-132103543D01*
X73272873Y-132118500D01*
X74821883Y-132118499D01*
X74821909Y-132118500D01*
X74827019Y-132118500D01*
X75032979Y-132118500D01*
X75032981Y-132118500D01*
X75089571Y-132109536D01*
X75158087Y-132103543D01*
X75202426Y-132091662D01*
X75236408Y-132086280D01*
X75298725Y-132066030D01*
X75304846Y-132064217D01*
X75379243Y-132044284D01*
X75410462Y-132029726D01*
X75432290Y-132022634D01*
X75503687Y-131986254D01*
X75586749Y-131947523D01*
X75605577Y-131934339D01*
X75615803Y-131929129D01*
X75689860Y-131875323D01*
X75774300Y-131816198D01*
X75936198Y-131654300D01*
X75995323Y-131569860D01*
X76049129Y-131495803D01*
X76054339Y-131485577D01*
X76067523Y-131466749D01*
X76106254Y-131383687D01*
X76142634Y-131312290D01*
X76149726Y-131290462D01*
X76164284Y-131259243D01*
X76185044Y-131181762D01*
X76206280Y-131116408D01*
X76211662Y-131082426D01*
X76223543Y-131038087D01*
X76229159Y-130973878D01*
X76230214Y-130965289D01*
X76238500Y-130912978D01*
X76238500Y-130707020D01*
X76230213Y-130654702D01*
X76229158Y-130646107D01*
X76224262Y-130590128D01*
X76224261Y-130590125D01*
X76223543Y-130581915D01*
X76223543Y-130581914D01*
X76223543Y-130581913D01*
X76223039Y-130580033D01*
X80280000Y-130580033D01*
X80280000Y-132179966D01*
X80280476Y-132223635D01*
X80280476Y-132223641D01*
X80288083Y-132310590D01*
X80303238Y-132396537D01*
X80303241Y-132396550D01*
X80325824Y-132480834D01*
X80325825Y-132480837D01*
X80355674Y-132562851D01*
X80355675Y-132562854D01*
X80355680Y-132562866D01*
X80392567Y-132641969D01*
X80392571Y-132641976D01*
X80392573Y-132641980D01*
X80412452Y-132676411D01*
X80436207Y-132717556D01*
X80436211Y-132717562D01*
X80436218Y-132717573D01*
X80486269Y-132789053D01*
X80526820Y-132837379D01*
X80542371Y-132855912D01*
X80604088Y-132917629D01*
X80631886Y-132940954D01*
X80670946Y-132973730D01*
X80742426Y-133023781D01*
X80742433Y-133023785D01*
X80742444Y-133023793D01*
X80818031Y-133067433D01*
X80897134Y-133104320D01*
X80979151Y-133134171D01*
X80979161Y-133134173D01*
X80979162Y-133134174D01*
X80979165Y-133134175D01*
X80998131Y-133139256D01*
X81063457Y-133156761D01*
X81149412Y-133171917D01*
X81236360Y-133179524D01*
X81280000Y-133180000D01*
X81323640Y-133179524D01*
X81410588Y-133171917D01*
X81496543Y-133156761D01*
X81580849Y-133134171D01*
X81662866Y-133104320D01*
X81741969Y-133067433D01*
X81817556Y-133023793D01*
X81889052Y-132973731D01*
X81955912Y-132917629D01*
X82017629Y-132855912D01*
X82073731Y-132789052D01*
X82123793Y-132717556D01*
X82167433Y-132641969D01*
X82204320Y-132562866D01*
X82234171Y-132480849D01*
X82256761Y-132396543D01*
X82271917Y-132310588D01*
X82279524Y-132223640D01*
X82280000Y-132180000D01*
X82280000Y-130580000D01*
X82279524Y-130536360D01*
X82271917Y-130449412D01*
X82256761Y-130363457D01*
X82234171Y-130279151D01*
X82204320Y-130197134D01*
X82167433Y-130118031D01*
X82123793Y-130042444D01*
X82080071Y-129980002D01*
X82820000Y-129980002D01*
X82820000Y-132179966D01*
X82820476Y-132223635D01*
X82820476Y-132223641D01*
X82828083Y-132310590D01*
X82843238Y-132396537D01*
X82843241Y-132396550D01*
X82865824Y-132480834D01*
X82865825Y-132480837D01*
X82895674Y-132562851D01*
X82895675Y-132562854D01*
X82895680Y-132562866D01*
X82932567Y-132641969D01*
X82932571Y-132641976D01*
X82932573Y-132641980D01*
X82952452Y-132676411D01*
X82976207Y-132717556D01*
X82976211Y-132717562D01*
X82976218Y-132717573D01*
X83026269Y-132789053D01*
X83066820Y-132837379D01*
X83082371Y-132855912D01*
X83144088Y-132917629D01*
X83171886Y-132940954D01*
X83210946Y-132973730D01*
X83282426Y-133023781D01*
X83282433Y-133023785D01*
X83282444Y-133023793D01*
X83358031Y-133067433D01*
X83437134Y-133104320D01*
X83519151Y-133134171D01*
X83519161Y-133134173D01*
X83519162Y-133134174D01*
X83519165Y-133134175D01*
X83538131Y-133139256D01*
X83603457Y-133156761D01*
X83689412Y-133171917D01*
X83776360Y-133179524D01*
X83820000Y-133180000D01*
X83863640Y-133179524D01*
X83950588Y-133171917D01*
X84036543Y-133156761D01*
X84120849Y-133134171D01*
X84202866Y-133104320D01*
X84281969Y-133067433D01*
X84357556Y-133023793D01*
X84429052Y-132973731D01*
X84495912Y-132917629D01*
X84557629Y-132855912D01*
X84613731Y-132789052D01*
X84663793Y-132717556D01*
X84707433Y-132641969D01*
X84744320Y-132562866D01*
X84774171Y-132480849D01*
X84796761Y-132396543D01*
X84811917Y-132310588D01*
X84819524Y-132223640D01*
X84820000Y-132180000D01*
X84820000Y-130579969D01*
X85360141Y-130579969D01*
X85360141Y-132179928D01*
X85360603Y-132223558D01*
X85368211Y-132310497D01*
X85368212Y-132310505D01*
X85368213Y-132310511D01*
X85368227Y-132310588D01*
X85383371Y-132396458D01*
X85383373Y-132396469D01*
X85405960Y-132480761D01*
X85405961Y-132480765D01*
X85435814Y-132562776D01*
X85435820Y-132562790D01*
X85472703Y-132641879D01*
X85516336Y-132717451D01*
X85516340Y-132717457D01*
X85516346Y-132717467D01*
X85554884Y-132772500D01*
X85566416Y-132788968D01*
X85622509Y-132855813D01*
X85622513Y-132855817D01*
X85622514Y-132855818D01*
X85684231Y-132917531D01*
X85684237Y-132917536D01*
X85684238Y-132917537D01*
X85751080Y-132973620D01*
X85751092Y-132973630D01*
X85822589Y-133023689D01*
X85898176Y-133067326D01*
X85977279Y-133104209D01*
X85977289Y-133104212D01*
X85977292Y-133104214D01*
X86059278Y-133134051D01*
X86059281Y-133134052D01*
X86059295Y-133134057D01*
X86143601Y-133156643D01*
X86229555Y-133171795D01*
X86229558Y-133171795D01*
X86229561Y-133171796D01*
X86316477Y-133179397D01*
X86316487Y-133179397D01*
X86316502Y-133179399D01*
X86360141Y-133179925D01*
X86403780Y-133179448D01*
X86490727Y-133171837D01*
X86576679Y-133156679D01*
X86660983Y-133134087D01*
X86742998Y-133104233D01*
X86822099Y-133067346D01*
X86897684Y-133023705D01*
X86938648Y-132995020D01*
X86969155Y-132973659D01*
X86969162Y-132973653D01*
X86969177Y-132973643D01*
X87036036Y-132917540D01*
X87097751Y-132855824D01*
X87153853Y-132788965D01*
X87203914Y-132717470D01*
X87247553Y-132641884D01*
X87284440Y-132562783D01*
X87314292Y-132480768D01*
X87336882Y-132396464D01*
X87352040Y-132310511D01*
X87359648Y-132223564D01*
X87360141Y-132179925D01*
X87360141Y-130579925D01*
X87359666Y-130536283D01*
X87352068Y-130449409D01*
X87352062Y-130449340D01*
X87352061Y-130449332D01*
X87336907Y-130363375D01*
X87314319Y-130279065D01*
X87314315Y-130279053D01*
X87284472Y-130197052D01*
X87264050Y-130153254D01*
X87247584Y-130117939D01*
X87247579Y-130117930D01*
X87247579Y-130117929D01*
X87208442Y-130050139D01*
X87203944Y-130042348D01*
X87153883Y-129970849D01*
X87153876Y-129970841D01*
X87153876Y-129970840D01*
X87097789Y-129903993D01*
X87097764Y-129903966D01*
X87036071Y-129842270D01*
X86969208Y-129786160D01*
X86969207Y-129786159D01*
X86897713Y-129736095D01*
X86897710Y-129736093D01*
X86822122Y-129692448D01*
X86822120Y-129692447D01*
X86743008Y-129655553D01*
X86743001Y-129655550D01*
X86661015Y-129625706D01*
X86660988Y-129625698D01*
X86576708Y-129603111D01*
X86576692Y-129603107D01*
X86576690Y-129603107D01*
X86576686Y-129603106D01*
X86576680Y-129603105D01*
X86527462Y-129594424D01*
X86490733Y-129587947D01*
X86403782Y-129580337D01*
X86403777Y-129580336D01*
X86403767Y-129580336D01*
X86360160Y-129579924D01*
X86316501Y-129580385D01*
X86229544Y-129587989D01*
X86143588Y-129603143D01*
X86143583Y-129603145D01*
X86059288Y-129625728D01*
X86059269Y-129625734D01*
X85977269Y-129655577D01*
X85977249Y-129655585D01*
X85898172Y-129692458D01*
X85898155Y-129692466D01*
X85898155Y-129692467D01*
X85893085Y-129695394D01*
X85822554Y-129736113D01*
X85751064Y-129786170D01*
X85684206Y-129842270D01*
X85622480Y-129903994D01*
X85566379Y-129970852D01*
X85516319Y-130042347D01*
X85472673Y-130117942D01*
X85435785Y-130197051D01*
X85405941Y-130279049D01*
X85405933Y-130279075D01*
X85383349Y-130363362D01*
X85383347Y-130363370D01*
X85368189Y-130449349D01*
X85360587Y-130536261D01*
X85360586Y-130536287D01*
X85360141Y-130579969D01*
X84820000Y-130579969D01*
X84820000Y-129980000D01*
X84819642Y-129970854D01*
X84817538Y-129917040D01*
X84817538Y-129917038D01*
X84817538Y-129917036D01*
X84778624Y-129797272D01*
X84704606Y-129695394D01*
X84632983Y-129643357D01*
X84602730Y-129621377D01*
X84602725Y-129621375D01*
X84593424Y-129618353D01*
X84482964Y-129582462D01*
X84482962Y-129582461D01*
X84482960Y-129582461D01*
X84420009Y-129580000D01*
X84420000Y-129580000D01*
X83820000Y-129580000D01*
X83220000Y-129580000D01*
X83188497Y-129581096D01*
X83156992Y-129582193D01*
X83037145Y-129621134D01*
X83037142Y-129621135D01*
X82935201Y-129695200D01*
X82935200Y-129695201D01*
X82861135Y-129797142D01*
X82861134Y-129797145D01*
X82822193Y-129916992D01*
X82822191Y-129917038D01*
X82820498Y-129965707D01*
X82820000Y-129980002D01*
X82080071Y-129980002D01*
X82073730Y-129970946D01*
X82028495Y-129917038D01*
X82017629Y-129904088D01*
X81955912Y-129842371D01*
X81909951Y-129803805D01*
X81889053Y-129786269D01*
X81817573Y-129736218D01*
X81817562Y-129736211D01*
X81817556Y-129736207D01*
X81746866Y-129695394D01*
X81741980Y-129692573D01*
X81741976Y-129692571D01*
X81741969Y-129692567D01*
X81662866Y-129655680D01*
X81662854Y-129655675D01*
X81662851Y-129655674D01*
X81614029Y-129637905D01*
X81580849Y-129625829D01*
X81580845Y-129625827D01*
X81580837Y-129625825D01*
X81580834Y-129625824D01*
X81496550Y-129603241D01*
X81496553Y-129603241D01*
X81496543Y-129603239D01*
X81463241Y-129597367D01*
X81410590Y-129588083D01*
X81367114Y-129584279D01*
X81323640Y-129580476D01*
X81280000Y-129580000D01*
X81236360Y-129580476D01*
X81236358Y-129580476D01*
X81149409Y-129588083D01*
X81063462Y-129603238D01*
X81063459Y-129603238D01*
X81063457Y-129603239D01*
X81063452Y-129603240D01*
X81063449Y-129603241D01*
X80979165Y-129625824D01*
X80979162Y-129625825D01*
X80897148Y-129655674D01*
X80897141Y-129655677D01*
X80897134Y-129655680D01*
X80818031Y-129692567D01*
X80818027Y-129692569D01*
X80818019Y-129692573D01*
X80742452Y-129736202D01*
X80742426Y-129736218D01*
X80670946Y-129786269D01*
X80604085Y-129842373D01*
X80542373Y-129904085D01*
X80486269Y-129970946D01*
X80436218Y-130042426D01*
X80436202Y-130042452D01*
X80392573Y-130118019D01*
X80392569Y-130118027D01*
X80392567Y-130118031D01*
X80355680Y-130197134D01*
X80355677Y-130197141D01*
X80355677Y-130197142D01*
X80355674Y-130197148D01*
X80325825Y-130279162D01*
X80325824Y-130279165D01*
X80303241Y-130363449D01*
X80303238Y-130363462D01*
X80288083Y-130449409D01*
X80280484Y-130536270D01*
X80280476Y-130536360D01*
X80280001Y-130579969D01*
X80280000Y-130580033D01*
X76223039Y-130580033D01*
X76213339Y-130543834D01*
X76210647Y-130531165D01*
X76206280Y-130503592D01*
X76186035Y-130441289D01*
X76184200Y-130435088D01*
X76164288Y-130360770D01*
X76164286Y-130360766D01*
X76164284Y-130360757D01*
X76149726Y-130329537D01*
X76142634Y-130307710D01*
X76106254Y-130236312D01*
X76087989Y-130197142D01*
X76067523Y-130153250D01*
X76059313Y-130141526D01*
X76059312Y-130141525D01*
X76059298Y-130141505D01*
X76054339Y-130134422D01*
X76049129Y-130124197D01*
X75995323Y-130050139D01*
X75989940Y-130042452D01*
X75944151Y-129977058D01*
X75936198Y-129965700D01*
X75774300Y-129803802D01*
X75764789Y-129797142D01*
X75690711Y-129745271D01*
X75690711Y-129745270D01*
X75689789Y-129744624D01*
X75615803Y-129690871D01*
X75605577Y-129685660D01*
X75586749Y-129672477D01*
X75586748Y-129672476D01*
X75586743Y-129672473D01*
X75586742Y-129672472D01*
X75543655Y-129652381D01*
X75533406Y-129643357D01*
X75520662Y-129638444D01*
X75507695Y-129620719D01*
X75491215Y-129606209D01*
X75487471Y-129593075D01*
X75479408Y-129582053D01*
X75478082Y-129560134D01*
X75472063Y-129539016D01*
X75476014Y-129525942D01*
X75475190Y-129512311D01*
X75485924Y-129493156D01*
X75492278Y-129472135D01*
X75503396Y-129461977D01*
X75509347Y-129451360D01*
X75532741Y-129435170D01*
X75537832Y-129430520D01*
X75540691Y-129428999D01*
X75586749Y-129407523D01*
X75604685Y-129394963D01*
X75611372Y-129391407D01*
X75611766Y-129391325D01*
X75613299Y-129390404D01*
X75615803Y-129389129D01*
X75689051Y-129335910D01*
X75690714Y-129334725D01*
X75774300Y-129276198D01*
X75936198Y-129114300D01*
X75995323Y-129029860D01*
X76049129Y-128955803D01*
X76054339Y-128945577D01*
X76067523Y-128926749D01*
X76106254Y-128843687D01*
X76142634Y-128772290D01*
X76149726Y-128750462D01*
X76164284Y-128719243D01*
X76185044Y-128641762D01*
X76206280Y-128576408D01*
X76211662Y-128542426D01*
X76223543Y-128498087D01*
X76229159Y-128433878D01*
X76230214Y-128425289D01*
X76238500Y-128372978D01*
X76238500Y-128167020D01*
X76230213Y-128114702D01*
X76230213Y-128114701D01*
X76229535Y-128110424D01*
X76223543Y-128041913D01*
X76211662Y-127997573D01*
X76206280Y-127963592D01*
X76186035Y-127901289D01*
X76184200Y-127895088D01*
X76164288Y-127820770D01*
X76164286Y-127820766D01*
X76164284Y-127820757D01*
X76149726Y-127789537D01*
X76142634Y-127767710D01*
X76106254Y-127696312D01*
X76097503Y-127677546D01*
X76067523Y-127613250D01*
X76059313Y-127601526D01*
X76059312Y-127601525D01*
X76059304Y-127601513D01*
X76054339Y-127594422D01*
X76049129Y-127584197D01*
X75995323Y-127510139D01*
X75994691Y-127509237D01*
X75936197Y-127425699D01*
X75774303Y-127263805D01*
X75774300Y-127263802D01*
X75774295Y-127263798D01*
X75774292Y-127263796D01*
X75712841Y-127220767D01*
X75669216Y-127166190D01*
X75662024Y-127096692D01*
X75693546Y-127034337D01*
X75753300Y-126999044D01*
X75763044Y-126996556D01*
X75819584Y-126973136D01*
X75819584Y-126973135D01*
X75059411Y-126212962D01*
X75122993Y-126195925D01*
X75237007Y-126130099D01*
X75330099Y-126037007D01*
X75395925Y-125922993D01*
X75412962Y-125859411D01*
X76173135Y-126619584D01*
X76173136Y-126619584D01*
X76196552Y-126563053D01*
X76214544Y-126512053D01*
X76234999Y-126369780D01*
X76235000Y-126369779D01*
X76235000Y-125090224D01*
X76234999Y-125090204D01*
X76232106Y-125036237D01*
X76232106Y-125036235D01*
X76196561Y-124896969D01*
X76196559Y-124896962D01*
X76173135Y-124840414D01*
X75412962Y-125600588D01*
X75395925Y-125537007D01*
X75330099Y-125422993D01*
X75237007Y-125329901D01*
X75122993Y-125264075D01*
X75059408Y-125247037D01*
X75819584Y-124486862D01*
X75763059Y-124463449D01*
X75763037Y-124463441D01*
X75744108Y-124456763D01*
X75687436Y-124415897D01*
X75661855Y-124350878D01*
X75675487Y-124282351D01*
X75714237Y-124238253D01*
X75774300Y-124196198D01*
X75936198Y-124034300D01*
X75995323Y-123949860D01*
X76049129Y-123875803D01*
X76054339Y-123865577D01*
X76067523Y-123846749D01*
X76106254Y-123763687D01*
X76142634Y-123692290D01*
X76149726Y-123670462D01*
X76164284Y-123639243D01*
X76185044Y-123561762D01*
X76206280Y-123496408D01*
X76211662Y-123462426D01*
X76223543Y-123418087D01*
X76229159Y-123353878D01*
X76230214Y-123345289D01*
X76238500Y-123292978D01*
X76238500Y-123087020D01*
X76230213Y-123034702D01*
X76230213Y-123034701D01*
X76229535Y-123030424D01*
X76223543Y-122961913D01*
X76211662Y-122917573D01*
X76206280Y-122883592D01*
X76186035Y-122821289D01*
X76184200Y-122815088D01*
X76164288Y-122740770D01*
X76164286Y-122740766D01*
X76164284Y-122740757D01*
X76149726Y-122709537D01*
X76142634Y-122687710D01*
X76106254Y-122616312D01*
X76097503Y-122597546D01*
X76067523Y-122533250D01*
X76059313Y-122521526D01*
X76059312Y-122521525D01*
X76059304Y-122521513D01*
X76054339Y-122514422D01*
X76049129Y-122504197D01*
X75995323Y-122430139D01*
X75994691Y-122429237D01*
X75936197Y-122345699D01*
X75774303Y-122183805D01*
X75774300Y-122183802D01*
X75765731Y-122177801D01*
X75690711Y-122125271D01*
X75690711Y-122125270D01*
X75689789Y-122124624D01*
X75615803Y-122070871D01*
X75605577Y-122065660D01*
X75586749Y-122052477D01*
X75586748Y-122052476D01*
X75586743Y-122052473D01*
X75586742Y-122052472D01*
X75543655Y-122032381D01*
X75533406Y-122023357D01*
X75520662Y-122018444D01*
X75507695Y-122000719D01*
X75491215Y-121986209D01*
X75487471Y-121973075D01*
X75479408Y-121962053D01*
X75478082Y-121940134D01*
X75472063Y-121919016D01*
X75476014Y-121905942D01*
X75475190Y-121892311D01*
X75485924Y-121873156D01*
X75492278Y-121852135D01*
X75503396Y-121841977D01*
X75509347Y-121831360D01*
X75532741Y-121815170D01*
X75537832Y-121810520D01*
X75540691Y-121808999D01*
X75586749Y-121787523D01*
X75604685Y-121774963D01*
X75611372Y-121771407D01*
X75611766Y-121771325D01*
X75613299Y-121770404D01*
X75615803Y-121769129D01*
X75689051Y-121715910D01*
X75690714Y-121714725D01*
X75774300Y-121656198D01*
X75936198Y-121494300D01*
X75995323Y-121409860D01*
X76049129Y-121335803D01*
X76054339Y-121325577D01*
X76067523Y-121306749D01*
X76106254Y-121223687D01*
X76142634Y-121152290D01*
X76149726Y-121130462D01*
X76164284Y-121099243D01*
X76185044Y-121021762D01*
X76206280Y-120956408D01*
X76211662Y-120922426D01*
X76223543Y-120878087D01*
X76229159Y-120813878D01*
X76230214Y-120805289D01*
X76238500Y-120752978D01*
X76238500Y-120547020D01*
X76230213Y-120494702D01*
X76230213Y-120494701D01*
X76229535Y-120490424D01*
X76223543Y-120421913D01*
X76211662Y-120377573D01*
X76206280Y-120343592D01*
X76186035Y-120281289D01*
X76184200Y-120275088D01*
X76164288Y-120200770D01*
X76164286Y-120200766D01*
X76164284Y-120200757D01*
X76149726Y-120169537D01*
X76142634Y-120147710D01*
X76106254Y-120076312D01*
X76097503Y-120057546D01*
X76067523Y-119993250D01*
X76059313Y-119981526D01*
X76059312Y-119981525D01*
X76059304Y-119981513D01*
X76054339Y-119974422D01*
X76049129Y-119964197D01*
X75995323Y-119890139D01*
X75994691Y-119889237D01*
X75936197Y-119805699D01*
X75774303Y-119643805D01*
X75774300Y-119643802D01*
X75765731Y-119637801D01*
X75690711Y-119585271D01*
X75690711Y-119585270D01*
X75689789Y-119584624D01*
X75615803Y-119530871D01*
X75605577Y-119525660D01*
X75586749Y-119512477D01*
X75586748Y-119512476D01*
X75586743Y-119512473D01*
X75586742Y-119512472D01*
X75543655Y-119492381D01*
X75533406Y-119483357D01*
X75520662Y-119478444D01*
X75507695Y-119460719D01*
X75491215Y-119446209D01*
X75487471Y-119433075D01*
X75479408Y-119422053D01*
X75478082Y-119400134D01*
X75472063Y-119379016D01*
X75476014Y-119365942D01*
X75475190Y-119352311D01*
X75485924Y-119333156D01*
X75492278Y-119312135D01*
X75503396Y-119301977D01*
X75509347Y-119291360D01*
X75532741Y-119275170D01*
X75537832Y-119270520D01*
X75540691Y-119268999D01*
X75586749Y-119247523D01*
X75604685Y-119234963D01*
X75611372Y-119231407D01*
X75611766Y-119231325D01*
X75613299Y-119230404D01*
X75615803Y-119229129D01*
X75689051Y-119175910D01*
X75690714Y-119174725D01*
X75774300Y-119116198D01*
X75936198Y-118954300D01*
X75995323Y-118869860D01*
X76049129Y-118795803D01*
X76054339Y-118785577D01*
X76067523Y-118766749D01*
X76106254Y-118683687D01*
X76142634Y-118612290D01*
X76149726Y-118590462D01*
X76164284Y-118559243D01*
X76185044Y-118481762D01*
X76206280Y-118416408D01*
X76211662Y-118382426D01*
X76223543Y-118338087D01*
X76229159Y-118273878D01*
X76230214Y-118265289D01*
X76238500Y-118212978D01*
X76238500Y-118007020D01*
X76230213Y-117954702D01*
X76230213Y-117954701D01*
X76229535Y-117950424D01*
X76223543Y-117881913D01*
X76211662Y-117837573D01*
X76206280Y-117803592D01*
X76186035Y-117741289D01*
X76184200Y-117735088D01*
X76164288Y-117660770D01*
X76164286Y-117660766D01*
X76164284Y-117660757D01*
X76149726Y-117629537D01*
X76142634Y-117607710D01*
X76106254Y-117536312D01*
X76097503Y-117517546D01*
X76067523Y-117453250D01*
X76059313Y-117441526D01*
X76059312Y-117441525D01*
X76059304Y-117441513D01*
X76054339Y-117434422D01*
X76049129Y-117424197D01*
X75995323Y-117350139D01*
X75994691Y-117349237D01*
X75936197Y-117265699D01*
X75774303Y-117103805D01*
X75774300Y-117103802D01*
X75765731Y-117097801D01*
X75690711Y-117045271D01*
X75690711Y-117045270D01*
X75689789Y-117044624D01*
X75615803Y-116990871D01*
X75605577Y-116985660D01*
X75586749Y-116972477D01*
X75586748Y-116972476D01*
X75586743Y-116972473D01*
X75586742Y-116972472D01*
X75543655Y-116952381D01*
X75533406Y-116943357D01*
X75520662Y-116938444D01*
X75507695Y-116920719D01*
X75491215Y-116906209D01*
X75487471Y-116893075D01*
X75479408Y-116882053D01*
X75478082Y-116860134D01*
X75472063Y-116839016D01*
X75476014Y-116825942D01*
X75475190Y-116812311D01*
X75485924Y-116793156D01*
X75492278Y-116772135D01*
X75503396Y-116761977D01*
X75509347Y-116751360D01*
X75532741Y-116735170D01*
X75537832Y-116730520D01*
X75540691Y-116728999D01*
X75586749Y-116707523D01*
X75604685Y-116694963D01*
X75611372Y-116691407D01*
X75611766Y-116691325D01*
X75613299Y-116690404D01*
X75615803Y-116689129D01*
X75689051Y-116635910D01*
X75690714Y-116634725D01*
X75774300Y-116576198D01*
X75936198Y-116414300D01*
X75995323Y-116329860D01*
X76049129Y-116255803D01*
X76054339Y-116245577D01*
X76067523Y-116226749D01*
X76106254Y-116143687D01*
X76142634Y-116072290D01*
X76149726Y-116050462D01*
X76164284Y-116019243D01*
X76185044Y-115941762D01*
X76206280Y-115876408D01*
X76211662Y-115842426D01*
X76223543Y-115798087D01*
X76229159Y-115733878D01*
X76230214Y-115725289D01*
X76238500Y-115672978D01*
X76238500Y-115467020D01*
X76230213Y-115414702D01*
X76230213Y-115414701D01*
X76229535Y-115410424D01*
X76223543Y-115341913D01*
X76211662Y-115297573D01*
X76206280Y-115263592D01*
X76186035Y-115201289D01*
X76184200Y-115195088D01*
X76164288Y-115120770D01*
X76164286Y-115120766D01*
X76164284Y-115120757D01*
X76149726Y-115089537D01*
X76142634Y-115067710D01*
X76106254Y-114996312D01*
X76097503Y-114977546D01*
X76067523Y-114913250D01*
X76059313Y-114901526D01*
X76059312Y-114901525D01*
X76059304Y-114901513D01*
X76054339Y-114894422D01*
X76049129Y-114884197D01*
X75995323Y-114810139D01*
X75994691Y-114809237D01*
X75936197Y-114725699D01*
X75774303Y-114563805D01*
X75774300Y-114563802D01*
X75774295Y-114563798D01*
X75774292Y-114563796D01*
X75712841Y-114520767D01*
X75669216Y-114466190D01*
X75662024Y-114396692D01*
X75693546Y-114334337D01*
X75753300Y-114299044D01*
X75763044Y-114296556D01*
X75819584Y-114273136D01*
X75819584Y-114273135D01*
X75059411Y-113512962D01*
X75122993Y-113495925D01*
X75237007Y-113430099D01*
X75330099Y-113337007D01*
X75395925Y-113222993D01*
X75412962Y-113159411D01*
X76173135Y-113919584D01*
X76173136Y-113919584D01*
X76196552Y-113863053D01*
X76214544Y-113812053D01*
X76234999Y-113669780D01*
X76235000Y-113669779D01*
X76235000Y-112390214D01*
X76232106Y-112336237D01*
X76232106Y-112336235D01*
X76196561Y-112196969D01*
X76196559Y-112196962D01*
X76173135Y-112140414D01*
X75412962Y-112900588D01*
X75395925Y-112837007D01*
X75330099Y-112722993D01*
X75237007Y-112629901D01*
X75122993Y-112564075D01*
X75059408Y-112547037D01*
X75819584Y-111786862D01*
X75763059Y-111763449D01*
X75763037Y-111763441D01*
X75744108Y-111756763D01*
X75734560Y-111749878D01*
X75723127Y-111747078D01*
X75706741Y-111729818D01*
X75687436Y-111715897D01*
X75683126Y-111704942D01*
X75675022Y-111696406D01*
X75670569Y-111673027D01*
X75661855Y-111650878D01*
X75664151Y-111639331D01*
X75661950Y-111627770D01*
X75670843Y-111605695D01*
X75673448Y-111592600D01*
X83416700Y-111592600D01*
X83416700Y-113167400D01*
X83418622Y-113206800D01*
X83429530Y-113233133D01*
X83448778Y-113279603D01*
X83504496Y-113335321D01*
X83504497Y-113335321D01*
X83504498Y-113335322D01*
X83577300Y-113365478D01*
X83616700Y-113367400D01*
X83616715Y-113367400D01*
X85191485Y-113367400D01*
X85191500Y-113367400D01*
X85230900Y-113365478D01*
X85303702Y-113335323D01*
X85359423Y-113279602D01*
X85389578Y-113206800D01*
X85391500Y-113167400D01*
X85391500Y-112366146D01*
X85952019Y-112366146D01*
X85952019Y-112366153D01*
X85968221Y-112559101D01*
X85968222Y-112559107D01*
X86015215Y-112722993D01*
X86021596Y-112745245D01*
X86110106Y-112917468D01*
X86110107Y-112917470D01*
X86199298Y-113030000D01*
X86230387Y-113069225D01*
X86377851Y-113194726D01*
X86377854Y-113194728D01*
X86377857Y-113194730D01*
X86476946Y-113250109D01*
X86546882Y-113289195D01*
X86731044Y-113349033D01*
X86923321Y-113371960D01*
X87116390Y-113357105D01*
X87302896Y-113305031D01*
X87475736Y-113217724D01*
X87628325Y-113098507D01*
X87754853Y-112951923D01*
X87850500Y-112783555D01*
X87911622Y-112599816D01*
X87935891Y-112407703D01*
X87936278Y-112380000D01*
X87934920Y-112366146D01*
X88492019Y-112366146D01*
X88492019Y-112366153D01*
X88508221Y-112559101D01*
X88508222Y-112559107D01*
X88555215Y-112722993D01*
X88561596Y-112745245D01*
X88650106Y-112917468D01*
X88650107Y-112917470D01*
X88739298Y-113030000D01*
X88770387Y-113069225D01*
X88917851Y-113194726D01*
X88917854Y-113194728D01*
X88917857Y-113194730D01*
X89016946Y-113250109D01*
X89086882Y-113289195D01*
X89271044Y-113349033D01*
X89463321Y-113371960D01*
X89656390Y-113357105D01*
X89842896Y-113305031D01*
X90015736Y-113217724D01*
X90168325Y-113098507D01*
X90294853Y-112951923D01*
X90390500Y-112783555D01*
X90451622Y-112599816D01*
X90475891Y-112407703D01*
X90476278Y-112380000D01*
X90457382Y-112187285D01*
X90401414Y-112001910D01*
X90401413Y-112001908D01*
X90401413Y-112001907D01*
X90347839Y-111901150D01*
X90310506Y-111830937D01*
X90188120Y-111680877D01*
X90038919Y-111557447D01*
X89868584Y-111465348D01*
X89868583Y-111465347D01*
X89868580Y-111465346D01*
X89683609Y-111408087D01*
X89491029Y-111387846D01*
X89491027Y-111387846D01*
X89417670Y-111394522D01*
X89298182Y-111405396D01*
X89112426Y-111460067D01*
X89112422Y-111460069D01*
X88940831Y-111549773D01*
X88940819Y-111549781D01*
X88789910Y-111671115D01*
X88789909Y-111671116D01*
X88665444Y-111819446D01*
X88665442Y-111819449D01*
X88572154Y-111989139D01*
X88513602Y-112173718D01*
X88513602Y-112173719D01*
X88492019Y-112366146D01*
X87934920Y-112366146D01*
X87917382Y-112187285D01*
X87861414Y-112001910D01*
X87861413Y-112001908D01*
X87861413Y-112001907D01*
X87807839Y-111901150D01*
X87770506Y-111830937D01*
X87648120Y-111680877D01*
X87498919Y-111557447D01*
X87328584Y-111465348D01*
X87328583Y-111465347D01*
X87328580Y-111465346D01*
X87143609Y-111408087D01*
X86951029Y-111387846D01*
X86951027Y-111387846D01*
X86877670Y-111394522D01*
X86758182Y-111405396D01*
X86572426Y-111460067D01*
X86572422Y-111460069D01*
X86400831Y-111549773D01*
X86400819Y-111549781D01*
X86249910Y-111671115D01*
X86249909Y-111671116D01*
X86125444Y-111819446D01*
X86125442Y-111819449D01*
X86032154Y-111989139D01*
X85973602Y-112173718D01*
X85973602Y-112173719D01*
X85952019Y-112366146D01*
X85391500Y-112366146D01*
X85391500Y-111592600D01*
X85389578Y-111553200D01*
X85383792Y-111539232D01*
X85359425Y-111480403D01*
X85359423Y-111480398D01*
X85303702Y-111424677D01*
X85303698Y-111424675D01*
X85303696Y-111424674D01*
X85230901Y-111394522D01*
X85230903Y-111394522D01*
X85222457Y-111394110D01*
X85191500Y-111392600D01*
X84404100Y-111392600D01*
X83616700Y-111392600D01*
X83577300Y-111394522D01*
X83504496Y-111424678D01*
X83504495Y-111424680D01*
X83448780Y-111480395D01*
X83448778Y-111480396D01*
X83420038Y-111549781D01*
X83418622Y-111553200D01*
X83416700Y-111592600D01*
X75673448Y-111592600D01*
X75675487Y-111582351D01*
X75684321Y-111572238D01*
X75688059Y-111562962D01*
X75712957Y-111539461D01*
X75713656Y-111538662D01*
X75713770Y-111538580D01*
X75774300Y-111496198D01*
X75936198Y-111334300D01*
X75995323Y-111249860D01*
X76049129Y-111175803D01*
X76054339Y-111165577D01*
X76067523Y-111146749D01*
X76106254Y-111063687D01*
X76142634Y-110992290D01*
X76149726Y-110970462D01*
X76164284Y-110939243D01*
X76185044Y-110861762D01*
X76206280Y-110796408D01*
X76211662Y-110762426D01*
X76223543Y-110718087D01*
X76229159Y-110653878D01*
X76230214Y-110645289D01*
X76238500Y-110592978D01*
X76238500Y-110387020D01*
X76230213Y-110334702D01*
X76230213Y-110334701D01*
X76229535Y-110330424D01*
X76223543Y-110261913D01*
X76211662Y-110217573D01*
X76206280Y-110183592D01*
X76186035Y-110121289D01*
X76184200Y-110115088D01*
X76164288Y-110040770D01*
X76164286Y-110040766D01*
X76164284Y-110040757D01*
X76149726Y-110009537D01*
X76142634Y-109987710D01*
X76106254Y-109916312D01*
X76097503Y-109897546D01*
X76067523Y-109833250D01*
X76059313Y-109821526D01*
X76059312Y-109821525D01*
X76059304Y-109821513D01*
X76054339Y-109814422D01*
X76049129Y-109804197D01*
X75995323Y-109730139D01*
X75994691Y-109729237D01*
X75936197Y-109645699D01*
X75774303Y-109483805D01*
X75774300Y-109483802D01*
X75741717Y-109460987D01*
X75690711Y-109425271D01*
X75690711Y-109425270D01*
X75689789Y-109424624D01*
X75615803Y-109370871D01*
X75605577Y-109365660D01*
X75586749Y-109352477D01*
X75586748Y-109352476D01*
X75586743Y-109352473D01*
X75586742Y-109352472D01*
X75543655Y-109332381D01*
X75533406Y-109323357D01*
X75520662Y-109318444D01*
X75507695Y-109300719D01*
X75491215Y-109286209D01*
X75487471Y-109273075D01*
X75479408Y-109262053D01*
X75478082Y-109240134D01*
X75472063Y-109219016D01*
X75476014Y-109205942D01*
X75475190Y-109192311D01*
X75485924Y-109173156D01*
X75492278Y-109152135D01*
X75503396Y-109141977D01*
X75509347Y-109131360D01*
X75532741Y-109115170D01*
X75537832Y-109110520D01*
X75540691Y-109108999D01*
X75586749Y-109087523D01*
X75604685Y-109074963D01*
X75611372Y-109071407D01*
X75611766Y-109071325D01*
X75613299Y-109070404D01*
X75615803Y-109069129D01*
X75689051Y-109015910D01*
X75690714Y-109014725D01*
X75774300Y-108956198D01*
X75936198Y-108794300D01*
X75995323Y-108709860D01*
X76049129Y-108635803D01*
X76054339Y-108625577D01*
X76067523Y-108606749D01*
X76106254Y-108523687D01*
X76142634Y-108452290D01*
X76149726Y-108430462D01*
X76164284Y-108399243D01*
X76185044Y-108321762D01*
X76206280Y-108256408D01*
X76211662Y-108222426D01*
X76223543Y-108178087D01*
X76229159Y-108113878D01*
X76230214Y-108105289D01*
X76238500Y-108052978D01*
X76238500Y-107847020D01*
X76230213Y-107794702D01*
X76230213Y-107794701D01*
X76229535Y-107790424D01*
X76223543Y-107721913D01*
X76211662Y-107677573D01*
X76206280Y-107643592D01*
X76186035Y-107581289D01*
X76184200Y-107575088D01*
X76164288Y-107500770D01*
X76164286Y-107500766D01*
X76164284Y-107500757D01*
X76149726Y-107469537D01*
X76142634Y-107447710D01*
X76106254Y-107376312D01*
X76095147Y-107352492D01*
X76067523Y-107293250D01*
X76059313Y-107281526D01*
X76059312Y-107281525D01*
X76059304Y-107281513D01*
X76054339Y-107274422D01*
X76049129Y-107264197D01*
X75995323Y-107190139D01*
X75936198Y-107105700D01*
X75774300Y-106943802D01*
X75733841Y-106915472D01*
X75690711Y-106885271D01*
X75690711Y-106885270D01*
X75689789Y-106884624D01*
X75615803Y-106830871D01*
X75605577Y-106825660D01*
X75586749Y-106812477D01*
X75586748Y-106812476D01*
X75586743Y-106812473D01*
X75586742Y-106812472D01*
X75543655Y-106792381D01*
X75533406Y-106783357D01*
X75520662Y-106778444D01*
X75507695Y-106760719D01*
X75491215Y-106746209D01*
X75487471Y-106733075D01*
X75479408Y-106722053D01*
X75478082Y-106700134D01*
X75472063Y-106679016D01*
X75476014Y-106665942D01*
X75475190Y-106652311D01*
X75485924Y-106633156D01*
X75492278Y-106612135D01*
X75503396Y-106601977D01*
X75509347Y-106591360D01*
X75532741Y-106575170D01*
X75537832Y-106570520D01*
X75540691Y-106568999D01*
X75586749Y-106547523D01*
X75604685Y-106534963D01*
X75611372Y-106531407D01*
X75611766Y-106531325D01*
X75613299Y-106530404D01*
X75615803Y-106529129D01*
X75689051Y-106475910D01*
X75690696Y-106474737D01*
X75774300Y-106416198D01*
X75936198Y-106254300D01*
X75995323Y-106169860D01*
X76049129Y-106095803D01*
X76054339Y-106085577D01*
X76067523Y-106066749D01*
X76106254Y-105983687D01*
X76142634Y-105912290D01*
X76149726Y-105890462D01*
X76164284Y-105859243D01*
X76185044Y-105781762D01*
X76206280Y-105716408D01*
X76211662Y-105682426D01*
X76223543Y-105638087D01*
X76229159Y-105573878D01*
X76230214Y-105565289D01*
X76238500Y-105512978D01*
X76238500Y-105307020D01*
X76230213Y-105254702D01*
X76230213Y-105254701D01*
X76229535Y-105250424D01*
X76223543Y-105181913D01*
X76211662Y-105137573D01*
X76206280Y-105103592D01*
X76186035Y-105041289D01*
X76184200Y-105035088D01*
X76164288Y-104960770D01*
X76164286Y-104960766D01*
X76164284Y-104960757D01*
X76149726Y-104929537D01*
X76142634Y-104907710D01*
X76106254Y-104836312D01*
X76097503Y-104817546D01*
X76067523Y-104753250D01*
X76059313Y-104741526D01*
X76059312Y-104741525D01*
X76059304Y-104741513D01*
X76054339Y-104734422D01*
X76049129Y-104724197D01*
X75995323Y-104650139D01*
X75994691Y-104649237D01*
X75936197Y-104565699D01*
X75774303Y-104403805D01*
X75774300Y-104403802D01*
X75765731Y-104397801D01*
X75690711Y-104345271D01*
X75690711Y-104345270D01*
X75689789Y-104344624D01*
X75615803Y-104290871D01*
X75605577Y-104285660D01*
X75586749Y-104272477D01*
X75586748Y-104272476D01*
X75586743Y-104272473D01*
X75586742Y-104272472D01*
X75543655Y-104252381D01*
X75533406Y-104243357D01*
X75520662Y-104238444D01*
X75507695Y-104220719D01*
X75491215Y-104206209D01*
X75487471Y-104193075D01*
X75479408Y-104182053D01*
X75478082Y-104160134D01*
X75472063Y-104139016D01*
X75476014Y-104125942D01*
X75475190Y-104112311D01*
X75485924Y-104093156D01*
X75492278Y-104072135D01*
X75503396Y-104061977D01*
X75509347Y-104051360D01*
X75532741Y-104035170D01*
X75537832Y-104030520D01*
X75540691Y-104028999D01*
X75586749Y-104007523D01*
X75604685Y-103994963D01*
X75611372Y-103991407D01*
X75611766Y-103991325D01*
X75613299Y-103990404D01*
X75615803Y-103989129D01*
X75689051Y-103935910D01*
X75690714Y-103934725D01*
X75774300Y-103876198D01*
X75936198Y-103714300D01*
X75995323Y-103629860D01*
X76049129Y-103555803D01*
X76054339Y-103545577D01*
X76067523Y-103526749D01*
X76106254Y-103443687D01*
X76142634Y-103372290D01*
X76149726Y-103350462D01*
X76164284Y-103319243D01*
X76185044Y-103241762D01*
X76206280Y-103176408D01*
X76211662Y-103142426D01*
X76223543Y-103098087D01*
X76229159Y-103033878D01*
X76230214Y-103025289D01*
X76238500Y-102972978D01*
X76238500Y-102767020D01*
X76230213Y-102714702D01*
X76230213Y-102714701D01*
X76229535Y-102710424D01*
X76223543Y-102641913D01*
X76211662Y-102597573D01*
X76206280Y-102563592D01*
X76186035Y-102501289D01*
X76184200Y-102495088D01*
X76164288Y-102420770D01*
X76164286Y-102420766D01*
X76164284Y-102420757D01*
X76149726Y-102389537D01*
X76142634Y-102367710D01*
X76106254Y-102296312D01*
X76097503Y-102277546D01*
X76067523Y-102213250D01*
X76059313Y-102201526D01*
X76059312Y-102201525D01*
X76059304Y-102201513D01*
X76054339Y-102194422D01*
X76049129Y-102184197D01*
X75995323Y-102110139D01*
X75994691Y-102109237D01*
X75936197Y-102025699D01*
X75774303Y-101863805D01*
X75774300Y-101863802D01*
X75774295Y-101863798D01*
X75774292Y-101863796D01*
X75712841Y-101820767D01*
X75669216Y-101766190D01*
X75662024Y-101696692D01*
X75693546Y-101634337D01*
X75753300Y-101599044D01*
X75763044Y-101596556D01*
X75819584Y-101573136D01*
X75819584Y-101573135D01*
X75059411Y-100812962D01*
X75122993Y-100795925D01*
X75237007Y-100730099D01*
X75330099Y-100637007D01*
X75395925Y-100522993D01*
X75412962Y-100459411D01*
X76173135Y-101219584D01*
X76173136Y-101219584D01*
X76196552Y-101163053D01*
X76214544Y-101112053D01*
X76234999Y-100969780D01*
X76235000Y-100969779D01*
X76235000Y-99690214D01*
X76232106Y-99636237D01*
X76232106Y-99636235D01*
X76196561Y-99496969D01*
X76196559Y-99496962D01*
X76173135Y-99440414D01*
X75412962Y-100200588D01*
X75395925Y-100137007D01*
X75330099Y-100022993D01*
X75237007Y-99929901D01*
X75122993Y-99864075D01*
X75059408Y-99847037D01*
X75819584Y-99086862D01*
X75763059Y-99063449D01*
X75763037Y-99063441D01*
X75744108Y-99056763D01*
X75687436Y-99015897D01*
X75661855Y-98950878D01*
X75675487Y-98882351D01*
X75714237Y-98838253D01*
X75774300Y-98796198D01*
X75936198Y-98634300D01*
X75995323Y-98549860D01*
X76049129Y-98475803D01*
X76054339Y-98465577D01*
X76067523Y-98446749D01*
X76106254Y-98363687D01*
X76142634Y-98292290D01*
X76149726Y-98270462D01*
X76164284Y-98239243D01*
X76185044Y-98161762D01*
X76206280Y-98096408D01*
X76211662Y-98062426D01*
X76223543Y-98018087D01*
X76229159Y-97953878D01*
X76230214Y-97945289D01*
X76234083Y-97920865D01*
X76238500Y-97892981D01*
X76238500Y-97687019D01*
X76229536Y-97630428D01*
X76223543Y-97561913D01*
X76211662Y-97517573D01*
X76206280Y-97483592D01*
X76186035Y-97421289D01*
X76184200Y-97415088D01*
X76164288Y-97340770D01*
X76164286Y-97340766D01*
X76164284Y-97340757D01*
X76149726Y-97309537D01*
X76142634Y-97287710D01*
X76106254Y-97216312D01*
X76077981Y-97155678D01*
X76067523Y-97133250D01*
X76059313Y-97121526D01*
X76059312Y-97121525D01*
X76059304Y-97121513D01*
X76054339Y-97114422D01*
X76049129Y-97104197D01*
X75995323Y-97030139D01*
X75994691Y-97029237D01*
X75936197Y-96945699D01*
X75774303Y-96783805D01*
X75774300Y-96783802D01*
X75765731Y-96777801D01*
X75690711Y-96725271D01*
X75690711Y-96725270D01*
X75689789Y-96724624D01*
X75615803Y-96670871D01*
X75605577Y-96665660D01*
X75586749Y-96652477D01*
X75586748Y-96652476D01*
X75586743Y-96652473D01*
X75586742Y-96652472D01*
X75543655Y-96632381D01*
X75533406Y-96623357D01*
X75520662Y-96618444D01*
X75507695Y-96600719D01*
X75491215Y-96586209D01*
X75487471Y-96573075D01*
X75479408Y-96562053D01*
X75478082Y-96540134D01*
X75472063Y-96519016D01*
X75476014Y-96505942D01*
X75475190Y-96492311D01*
X75485924Y-96473156D01*
X75492278Y-96452135D01*
X75503396Y-96441977D01*
X75509347Y-96431360D01*
X75532741Y-96415170D01*
X75537832Y-96410520D01*
X75540691Y-96408999D01*
X75586749Y-96387523D01*
X75604685Y-96374963D01*
X75611372Y-96371407D01*
X75611766Y-96371325D01*
X75613299Y-96370404D01*
X75615803Y-96369129D01*
X75689051Y-96315910D01*
X75690714Y-96314725D01*
X75774300Y-96256198D01*
X75936198Y-96094300D01*
X75995323Y-96009860D01*
X76049129Y-95935803D01*
X76054339Y-95925577D01*
X76067523Y-95906749D01*
X76106254Y-95823687D01*
X76142634Y-95752290D01*
X76149726Y-95730462D01*
X76164284Y-95699243D01*
X76185044Y-95621762D01*
X76206280Y-95556408D01*
X76211662Y-95522426D01*
X76223543Y-95478087D01*
X76229159Y-95413878D01*
X76230214Y-95405289D01*
X76238500Y-95352978D01*
X76238500Y-95147020D01*
X76230213Y-95094702D01*
X76230213Y-95094701D01*
X76229535Y-95090424D01*
X76223543Y-95021913D01*
X76211662Y-94977573D01*
X76206280Y-94943592D01*
X76186035Y-94881289D01*
X76184200Y-94875088D01*
X76164288Y-94800770D01*
X76164286Y-94800766D01*
X76164284Y-94800757D01*
X76149726Y-94769537D01*
X76142634Y-94747710D01*
X76106254Y-94676312D01*
X76097503Y-94657546D01*
X76067523Y-94593250D01*
X76059313Y-94581526D01*
X76059312Y-94581525D01*
X76059304Y-94581513D01*
X76054339Y-94574422D01*
X76049129Y-94564197D01*
X75995323Y-94490139D01*
X75994691Y-94489237D01*
X75936197Y-94405699D01*
X75774303Y-94243805D01*
X75774300Y-94243802D01*
X75765731Y-94237801D01*
X75690711Y-94185271D01*
X75690711Y-94185270D01*
X75689789Y-94184624D01*
X75615803Y-94130871D01*
X75605577Y-94125660D01*
X75586749Y-94112477D01*
X75586748Y-94112476D01*
X75586743Y-94112473D01*
X75586742Y-94112472D01*
X75543655Y-94092381D01*
X75533406Y-94083357D01*
X75520662Y-94078444D01*
X75507695Y-94060719D01*
X75491215Y-94046209D01*
X75487471Y-94033075D01*
X75479408Y-94022053D01*
X75478082Y-94000134D01*
X75472063Y-93979016D01*
X75476014Y-93965942D01*
X75475190Y-93952311D01*
X75485924Y-93933156D01*
X75492278Y-93912135D01*
X75503396Y-93901977D01*
X75509347Y-93891360D01*
X75532741Y-93875170D01*
X75537832Y-93870520D01*
X75540691Y-93868999D01*
X75586749Y-93847523D01*
X75604685Y-93834963D01*
X75611372Y-93831407D01*
X75611766Y-93831325D01*
X75613299Y-93830404D01*
X75615803Y-93829129D01*
X75689051Y-93775910D01*
X75690714Y-93774725D01*
X75774300Y-93716198D01*
X75936198Y-93554300D01*
X75995323Y-93469860D01*
X76049129Y-93395803D01*
X76054339Y-93385577D01*
X76067523Y-93366749D01*
X76106254Y-93283687D01*
X76142634Y-93212290D01*
X76149726Y-93190462D01*
X76164284Y-93159243D01*
X76185044Y-93081762D01*
X76206280Y-93016408D01*
X76211662Y-92982426D01*
X76223543Y-92938087D01*
X76229159Y-92873878D01*
X76230214Y-92865289D01*
X76238500Y-92812978D01*
X76238500Y-92607020D01*
X76230213Y-92554702D01*
X76230213Y-92554701D01*
X76229535Y-92550424D01*
X76223543Y-92481913D01*
X76211662Y-92437573D01*
X76206280Y-92403592D01*
X76186035Y-92341289D01*
X76184200Y-92335088D01*
X76164288Y-92260770D01*
X76164286Y-92260766D01*
X76164284Y-92260757D01*
X76149726Y-92229537D01*
X76142634Y-92207710D01*
X76106254Y-92136312D01*
X76097503Y-92117546D01*
X76067523Y-92053250D01*
X76059313Y-92041526D01*
X76059312Y-92041525D01*
X76059304Y-92041513D01*
X76054339Y-92034422D01*
X76049129Y-92024197D01*
X75995323Y-91950139D01*
X75994691Y-91949237D01*
X75936197Y-91865699D01*
X75774303Y-91703805D01*
X75774300Y-91703802D01*
X75741717Y-91680987D01*
X75690711Y-91645271D01*
X75690711Y-91645270D01*
X75689789Y-91644624D01*
X75615803Y-91590871D01*
X75605577Y-91585660D01*
X75586749Y-91572477D01*
X75586748Y-91572476D01*
X75586743Y-91572473D01*
X75586742Y-91572472D01*
X75543655Y-91552381D01*
X75533406Y-91543357D01*
X75520662Y-91538444D01*
X75507695Y-91520719D01*
X75491215Y-91506209D01*
X75487471Y-91493075D01*
X75479408Y-91482053D01*
X75478082Y-91460134D01*
X75472063Y-91439016D01*
X75476014Y-91425942D01*
X75475190Y-91412311D01*
X75485924Y-91393156D01*
X75492278Y-91372135D01*
X75503396Y-91361977D01*
X75509347Y-91351360D01*
X75532741Y-91335170D01*
X75537832Y-91330520D01*
X75540691Y-91328999D01*
X75586749Y-91307523D01*
X75604685Y-91294963D01*
X75611372Y-91291407D01*
X75611766Y-91291325D01*
X75613299Y-91290404D01*
X75615803Y-91289129D01*
X75689051Y-91235910D01*
X75690714Y-91234725D01*
X75774300Y-91176198D01*
X75936198Y-91014300D01*
X75995323Y-90929860D01*
X76049129Y-90855803D01*
X76054339Y-90845577D01*
X76067523Y-90826749D01*
X76106254Y-90743687D01*
X76142634Y-90672290D01*
X76149726Y-90650462D01*
X76164284Y-90619243D01*
X76185044Y-90541762D01*
X76206280Y-90476408D01*
X76211662Y-90442426D01*
X76223543Y-90398087D01*
X76229159Y-90333878D01*
X76230214Y-90325289D01*
X76238500Y-90272978D01*
X76238500Y-90067020D01*
X76230213Y-90014702D01*
X76230213Y-90014701D01*
X76229535Y-90010424D01*
X76223543Y-89941913D01*
X76211662Y-89897573D01*
X76206280Y-89863592D01*
X76186035Y-89801289D01*
X76184200Y-89795088D01*
X76164288Y-89720770D01*
X76164285Y-89720762D01*
X76164284Y-89720757D01*
X76149726Y-89689537D01*
X76142634Y-89667710D01*
X76106254Y-89596312D01*
X76096944Y-89576346D01*
X76067523Y-89513250D01*
X76059313Y-89501526D01*
X76059312Y-89501525D01*
X76059304Y-89501513D01*
X76054339Y-89494422D01*
X76049129Y-89484197D01*
X75995323Y-89410139D01*
X75994691Y-89409237D01*
X75936197Y-89325699D01*
X75774303Y-89163805D01*
X75774300Y-89163802D01*
X75774295Y-89163798D01*
X75774292Y-89163796D01*
X75712841Y-89120767D01*
X75669216Y-89066190D01*
X75662024Y-88996692D01*
X75693546Y-88934337D01*
X75753300Y-88899044D01*
X75763044Y-88896556D01*
X75819584Y-88873136D01*
X75819584Y-88873135D01*
X75676448Y-88729999D01*
X80370000Y-88729999D01*
X80370000Y-96130000D01*
X80372138Y-96195541D01*
X80372138Y-96195544D01*
X80372139Y-96195545D01*
X80406068Y-96322167D01*
X80471612Y-96435694D01*
X80564306Y-96528388D01*
X80677833Y-96593932D01*
X80804455Y-96627861D01*
X80870000Y-96630000D01*
X81770000Y-96630000D01*
X81835545Y-96627861D01*
X81962167Y-96593932D01*
X82075694Y-96528388D01*
X82168388Y-96435694D01*
X82233932Y-96322167D01*
X82267861Y-96195545D01*
X82270000Y-96130000D01*
X82270000Y-92430000D01*
X82270000Y-88730000D01*
X82267861Y-88664455D01*
X82233933Y-88537833D01*
X82168388Y-88424306D01*
X82075694Y-88331612D01*
X81962167Y-88266067D01*
X81835545Y-88232139D01*
X81770000Y-88230000D01*
X80870000Y-88230000D01*
X80804455Y-88232139D01*
X80677833Y-88266067D01*
X80677831Y-88266067D01*
X80677831Y-88266068D01*
X80564306Y-88331612D01*
X80564303Y-88331614D01*
X80471614Y-88424303D01*
X80471612Y-88424306D01*
X80406068Y-88537831D01*
X80372139Y-88664455D01*
X80370000Y-88729999D01*
X75676448Y-88729999D01*
X75059411Y-88112962D01*
X75122993Y-88095925D01*
X75237007Y-88030099D01*
X75330099Y-87937007D01*
X75395925Y-87822993D01*
X75412962Y-87759411D01*
X76173135Y-88519584D01*
X76173136Y-88519584D01*
X76196552Y-88463053D01*
X76214544Y-88412053D01*
X76234999Y-88269780D01*
X76235000Y-88269779D01*
X76235000Y-86990214D01*
X76232106Y-86936237D01*
X76232106Y-86936235D01*
X76196561Y-86796969D01*
X76196559Y-86796962D01*
X76173135Y-86740414D01*
X75412962Y-87500588D01*
X75395925Y-87437007D01*
X75330099Y-87322993D01*
X75237007Y-87229901D01*
X75122993Y-87164075D01*
X75059408Y-87147037D01*
X75819584Y-86386862D01*
X75763059Y-86363449D01*
X75763037Y-86363441D01*
X75744108Y-86356763D01*
X75687436Y-86315897D01*
X75661855Y-86250878D01*
X75675487Y-86182351D01*
X75714237Y-86138253D01*
X75774300Y-86096198D01*
X75936198Y-85934300D01*
X75995323Y-85849860D01*
X76049129Y-85775803D01*
X76054339Y-85765577D01*
X76067523Y-85746749D01*
X76067525Y-85746745D01*
X76105336Y-85665656D01*
X76105370Y-85665582D01*
X76106267Y-85663660D01*
X76127790Y-85621421D01*
X80269500Y-85621421D01*
X80269500Y-85798578D01*
X80297214Y-85973556D01*
X80351956Y-86142039D01*
X80351957Y-86142042D01*
X80426566Y-86288467D01*
X80432386Y-86299890D01*
X80536517Y-86443214D01*
X80661786Y-86568483D01*
X80805110Y-86672614D01*
X80882529Y-86712061D01*
X80962957Y-86753042D01*
X80962960Y-86753043D01*
X81047201Y-86780414D01*
X81131445Y-86807786D01*
X81306421Y-86835500D01*
X81306422Y-86835500D01*
X81483578Y-86835500D01*
X81483579Y-86835500D01*
X81658555Y-86807786D01*
X81827042Y-86753042D01*
X81984890Y-86672614D01*
X82128214Y-86568483D01*
X82253483Y-86443214D01*
X82357614Y-86299890D01*
X82438042Y-86142042D01*
X82492786Y-85973555D01*
X82520500Y-85798579D01*
X82520500Y-85621421D01*
X82492786Y-85446445D01*
X82438042Y-85277958D01*
X82438041Y-85277956D01*
X82438040Y-85277953D01*
X82413606Y-85229999D01*
X82870000Y-85229999D01*
X82870000Y-86130000D01*
X82872138Y-86195541D01*
X82872138Y-86195544D01*
X82872139Y-86195545D01*
X82906068Y-86322167D01*
X82971612Y-86435694D01*
X83064306Y-86528388D01*
X83177833Y-86593932D01*
X83304455Y-86627861D01*
X83370000Y-86630000D01*
X84270000Y-86630000D01*
X84335545Y-86627861D01*
X84462167Y-86593933D01*
X84575694Y-86528388D01*
X84668388Y-86435694D01*
X84733933Y-86322167D01*
X84767861Y-86195545D01*
X84770000Y-86130000D01*
X84770000Y-85621421D01*
X85119500Y-85621421D01*
X85119500Y-85798578D01*
X85147214Y-85973556D01*
X85201956Y-86142039D01*
X85201957Y-86142042D01*
X85276566Y-86288467D01*
X85282386Y-86299890D01*
X85386517Y-86443214D01*
X85511786Y-86568483D01*
X85655110Y-86672614D01*
X85732529Y-86712061D01*
X85812957Y-86753042D01*
X85812960Y-86753043D01*
X85897201Y-86780414D01*
X85981445Y-86807786D01*
X86156421Y-86835500D01*
X86156422Y-86835500D01*
X86333578Y-86835500D01*
X86333579Y-86835500D01*
X86508555Y-86807786D01*
X86677042Y-86753042D01*
X86834890Y-86672614D01*
X86978214Y-86568483D01*
X87103483Y-86443214D01*
X87207614Y-86299890D01*
X87288042Y-86142042D01*
X87342786Y-85973555D01*
X87370500Y-85798579D01*
X87370500Y-85621421D01*
X87342786Y-85446445D01*
X87313449Y-85356155D01*
X87288043Y-85277960D01*
X87288042Y-85277957D01*
X87244742Y-85192978D01*
X87207614Y-85120110D01*
X87103483Y-84976786D01*
X86978214Y-84851517D01*
X86834890Y-84747386D01*
X86677042Y-84666957D01*
X86677039Y-84666956D01*
X86508556Y-84612214D01*
X86421067Y-84598357D01*
X86333579Y-84584500D01*
X86156421Y-84584500D01*
X86098095Y-84593738D01*
X85981443Y-84612214D01*
X85812960Y-84666956D01*
X85812957Y-84666957D01*
X85655109Y-84747386D01*
X85605275Y-84783593D01*
X85511786Y-84851517D01*
X85511784Y-84851519D01*
X85511783Y-84851519D01*
X85386519Y-84976783D01*
X85386519Y-84976784D01*
X85386517Y-84976786D01*
X85379082Y-84987020D01*
X85282386Y-85120109D01*
X85201957Y-85277957D01*
X85201956Y-85277960D01*
X85147214Y-85446443D01*
X85119500Y-85621421D01*
X84770000Y-85621421D01*
X84770000Y-85230000D01*
X84767861Y-85164455D01*
X84733933Y-85037833D01*
X84668388Y-84924306D01*
X84575694Y-84831612D01*
X84462167Y-84766067D01*
X84335545Y-84732139D01*
X84270000Y-84730000D01*
X83820000Y-84730000D01*
X83370000Y-84730000D01*
X83304458Y-84732138D01*
X83177832Y-84766068D01*
X83064307Y-84831611D01*
X83064304Y-84831613D01*
X82971613Y-84924304D01*
X82971611Y-84924307D01*
X82906068Y-85037832D01*
X82872138Y-85164458D01*
X82870000Y-85229999D01*
X82413606Y-85229999D01*
X82394742Y-85192978D01*
X82357614Y-85120110D01*
X82253483Y-84976786D01*
X82128214Y-84851517D01*
X81984890Y-84747386D01*
X81827042Y-84666957D01*
X81827039Y-84666956D01*
X81658556Y-84612214D01*
X81571067Y-84598357D01*
X81483579Y-84584500D01*
X81306421Y-84584500D01*
X81248095Y-84593738D01*
X81131443Y-84612214D01*
X80962960Y-84666956D01*
X80962957Y-84666957D01*
X80805109Y-84747386D01*
X80755275Y-84783593D01*
X80661786Y-84851517D01*
X80661784Y-84851519D01*
X80661783Y-84851519D01*
X80536519Y-84976783D01*
X80536519Y-84976784D01*
X80536517Y-84976786D01*
X80529082Y-84987020D01*
X80432386Y-85120109D01*
X80351957Y-85277957D01*
X80351956Y-85277960D01*
X80297214Y-85446443D01*
X80269500Y-85621421D01*
X76127790Y-85621421D01*
X76142634Y-85592290D01*
X76149561Y-85570969D01*
X76152509Y-85564658D01*
X76152932Y-85563587D01*
X76164281Y-85539249D01*
X76164284Y-85539243D01*
X76185044Y-85461762D01*
X76206280Y-85396408D01*
X76211662Y-85362426D01*
X76223543Y-85318087D01*
X76229159Y-85253878D01*
X76230214Y-85245289D01*
X76232636Y-85229999D01*
X76238500Y-85192981D01*
X76238500Y-84987019D01*
X76229536Y-84930428D01*
X76223543Y-84861913D01*
X76211662Y-84817573D01*
X76206280Y-84783592D01*
X76186035Y-84721289D01*
X76184200Y-84715088D01*
X76164288Y-84640770D01*
X76164286Y-84640766D01*
X76164284Y-84640757D01*
X76149726Y-84609537D01*
X76142634Y-84587710D01*
X76106254Y-84516312D01*
X76097503Y-84497546D01*
X76067523Y-84433250D01*
X76059313Y-84421526D01*
X76059312Y-84421525D01*
X76059304Y-84421513D01*
X76054339Y-84414422D01*
X76049129Y-84404197D01*
X75995323Y-84330139D01*
X75994691Y-84329237D01*
X75936197Y-84245699D01*
X75774303Y-84083805D01*
X75774300Y-84083802D01*
X75768848Y-84079985D01*
X75716449Y-84043293D01*
X75672825Y-83988715D01*
X75665633Y-83919216D01*
X75697156Y-83856862D01*
X75750682Y-83823334D01*
X75822913Y-83800827D01*
X75970155Y-83711816D01*
X76091816Y-83590155D01*
X76180827Y-83442913D01*
X76232013Y-83278649D01*
X76238500Y-83207265D01*
X76238499Y-82685657D01*
X76239096Y-82673504D01*
X76243500Y-82628793D01*
X76243500Y-82471207D01*
X76239096Y-82426492D01*
X76238499Y-82414339D01*
X76238499Y-81892727D01*
X76232014Y-81821355D01*
X76232011Y-81821344D01*
X76180828Y-81657090D01*
X76180827Y-81657089D01*
X76180827Y-81657087D01*
X76170889Y-81640648D01*
X76153054Y-81573095D01*
X76174572Y-81506622D01*
X76228612Y-81462334D01*
X76277007Y-81452500D01*
X80190332Y-81452500D01*
X80257371Y-81472185D01*
X80303126Y-81524989D01*
X80313070Y-81594147D01*
X80284045Y-81657703D01*
X80263218Y-81676818D01*
X80247782Y-81688032D01*
X80103028Y-81832786D01*
X79982715Y-81998386D01*
X79889781Y-82180776D01*
X79826522Y-82375465D01*
X79794500Y-82577648D01*
X79794500Y-82782351D01*
X79826522Y-82984534D01*
X79889781Y-83179223D01*
X79940440Y-83278645D01*
X79973508Y-83343545D01*
X79982715Y-83361613D01*
X80103028Y-83527213D01*
X80247786Y-83671971D01*
X80382337Y-83769726D01*
X80413390Y-83792287D01*
X80497131Y-83834955D01*
X80595776Y-83885218D01*
X80595778Y-83885218D01*
X80595781Y-83885220D01*
X80683572Y-83913745D01*
X80790465Y-83948477D01*
X80867606Y-83960695D01*
X80992648Y-83980500D01*
X80992649Y-83980500D01*
X81197351Y-83980500D01*
X81197352Y-83980500D01*
X81399534Y-83948477D01*
X81594219Y-83885220D01*
X81776610Y-83792287D01*
X81869590Y-83724732D01*
X81942213Y-83671971D01*
X81942215Y-83671968D01*
X81942219Y-83671966D01*
X82086966Y-83527219D01*
X82194843Y-83378736D01*
X82250170Y-83336072D01*
X82299206Y-83327689D01*
X82304452Y-83327860D01*
X82304455Y-83327861D01*
X82370000Y-83330000D01*
X82370001Y-83330000D01*
X83270000Y-83330000D01*
X83335545Y-83327861D01*
X83462167Y-83293933D01*
X83575694Y-83228388D01*
X83668388Y-83135694D01*
X83708283Y-83066594D01*
X83758850Y-83018378D01*
X83827457Y-83005155D01*
X83892322Y-83031124D01*
X83923057Y-83066594D01*
X83971609Y-83150690D01*
X83971611Y-83150693D01*
X83971612Y-83150694D01*
X84064306Y-83243388D01*
X84177833Y-83308932D01*
X84304455Y-83342861D01*
X84370000Y-83345000D01*
X85270000Y-83345000D01*
X85335545Y-83342861D01*
X85335556Y-83342858D01*
X85336616Y-83342701D01*
X85337343Y-83342802D01*
X85342653Y-83342629D01*
X85342682Y-83343545D01*
X85405819Y-83352332D01*
X85455134Y-83392471D01*
X85540077Y-83509385D01*
X85553034Y-83527219D01*
X85697786Y-83671971D01*
X85832337Y-83769726D01*
X85863390Y-83792287D01*
X85947131Y-83834955D01*
X86045776Y-83885218D01*
X86045778Y-83885218D01*
X86045781Y-83885220D01*
X86133572Y-83913745D01*
X86240465Y-83948477D01*
X86317606Y-83960695D01*
X86442648Y-83980500D01*
X86442649Y-83980500D01*
X86647351Y-83980500D01*
X86647352Y-83980500D01*
X86849534Y-83948477D01*
X87044219Y-83885220D01*
X87226610Y-83792287D01*
X87319590Y-83724732D01*
X87392213Y-83671971D01*
X87392215Y-83671968D01*
X87392219Y-83671966D01*
X87536966Y-83527219D01*
X87536968Y-83527215D01*
X87536971Y-83527213D01*
X87598217Y-83442913D01*
X87657287Y-83361610D01*
X87750220Y-83179219D01*
X87813477Y-82984534D01*
X87845500Y-82782352D01*
X87845500Y-82577648D01*
X87832072Y-82492869D01*
X87813477Y-82375465D01*
X87781223Y-82276199D01*
X87750220Y-82180781D01*
X87750218Y-82180778D01*
X87750218Y-82180776D01*
X87689999Y-82062591D01*
X87657287Y-81998390D01*
X87619670Y-81946614D01*
X87536971Y-81832786D01*
X87392217Y-81688032D01*
X87376782Y-81676818D01*
X87334117Y-81621488D01*
X87328138Y-81551875D01*
X87360744Y-81490080D01*
X87421583Y-81455722D01*
X87449668Y-81452500D01*
X91027273Y-81452500D01*
X91094312Y-81472185D01*
X91114954Y-81488819D01*
X91357976Y-81731841D01*
X91391461Y-81793164D01*
X91386477Y-81862856D01*
X91344605Y-81918789D01*
X91294487Y-81941139D01*
X91266970Y-81946612D01*
X91266964Y-81946614D01*
X91186215Y-81980062D01*
X91152766Y-81993917D01*
X91152764Y-81993918D01*
X91072259Y-82047710D01*
X91072259Y-82047711D01*
X91049989Y-82062590D01*
X91049988Y-82062591D01*
X88783344Y-84329237D01*
X88099992Y-85012589D01*
X88074750Y-85037831D01*
X88012586Y-85099994D01*
X88012585Y-85099996D01*
X87943233Y-85203789D01*
X87941586Y-85208393D01*
X87896614Y-85316964D01*
X87896612Y-85316972D01*
X87872500Y-85438192D01*
X87872500Y-95741324D01*
X87852815Y-95808363D01*
X87836181Y-95829005D01*
X87794324Y-95870861D01*
X87794321Y-95870865D01*
X87694901Y-96019657D01*
X87694896Y-96019667D01*
X87626413Y-96184999D01*
X87626411Y-96185007D01*
X87591500Y-96360516D01*
X87591500Y-96539483D01*
X87626411Y-96714992D01*
X87626413Y-96715000D01*
X87694896Y-96880332D01*
X87694901Y-96880342D01*
X87794321Y-97029134D01*
X87794324Y-97029138D01*
X87920861Y-97155675D01*
X87920865Y-97155678D01*
X88069657Y-97255098D01*
X88069661Y-97255100D01*
X88069664Y-97255102D01*
X88235000Y-97323587D01*
X88410516Y-97358499D01*
X88410520Y-97358500D01*
X88410521Y-97358500D01*
X88589480Y-97358500D01*
X88589481Y-97358499D01*
X88765000Y-97323587D01*
X88930336Y-97255102D01*
X89079135Y-97155678D01*
X89205678Y-97029135D01*
X89305102Y-96880336D01*
X89373587Y-96715000D01*
X89408500Y-96539479D01*
X89408500Y-96360521D01*
X89373587Y-96185000D01*
X89305102Y-96019664D01*
X89305100Y-96019661D01*
X89305098Y-96019657D01*
X89205678Y-95870865D01*
X89205675Y-95870861D01*
X89163819Y-95829005D01*
X89130334Y-95767682D01*
X89127500Y-95741324D01*
X89127500Y-85811280D01*
X89147185Y-85744241D01*
X89163814Y-85723604D01*
X91512542Y-83374875D01*
X91573863Y-83341392D01*
X91643555Y-83346376D01*
X91699488Y-83388248D01*
X91701797Y-83391437D01*
X91703797Y-83394293D01*
X91703802Y-83394300D01*
X91865700Y-83556198D01*
X91950139Y-83615323D01*
X92024197Y-83669129D01*
X92034422Y-83674339D01*
X92041526Y-83679313D01*
X92053250Y-83687523D01*
X92096342Y-83707616D01*
X92148782Y-83753788D01*
X92167935Y-83820981D01*
X92147720Y-83887862D01*
X92096346Y-83932380D01*
X92053254Y-83952474D01*
X92041513Y-83960695D01*
X92026710Y-83969590D01*
X92024200Y-83970869D01*
X92024192Y-83970873D01*
X91950998Y-84024051D01*
X91949239Y-84025306D01*
X91865702Y-84083800D01*
X91865696Y-84083805D01*
X91703805Y-84245696D01*
X91703800Y-84245702D01*
X91645306Y-84329237D01*
X91644676Y-84330139D01*
X91590871Y-84404197D01*
X91585660Y-84414422D01*
X91580695Y-84421513D01*
X91572475Y-84433253D01*
X91534662Y-84514344D01*
X91533736Y-84516328D01*
X91497366Y-84587710D01*
X91490274Y-84609532D01*
X91487072Y-84616400D01*
X91475718Y-84640751D01*
X91475712Y-84640768D01*
X91455792Y-84715105D01*
X91455793Y-84715106D01*
X91454949Y-84718253D01*
X91433720Y-84783592D01*
X91428337Y-84817567D01*
X91426655Y-84823848D01*
X91426655Y-84823850D01*
X91416457Y-84861913D01*
X91416457Y-84861914D01*
X91416457Y-84861915D01*
X91410838Y-84926127D01*
X91409783Y-84934714D01*
X91401500Y-84987012D01*
X91401500Y-85192981D01*
X91401499Y-85192981D01*
X91409785Y-85245292D01*
X91410463Y-85249571D01*
X91416457Y-85318087D01*
X91428336Y-85362424D01*
X91429352Y-85368836D01*
X91433719Y-85396405D01*
X91433721Y-85396411D01*
X91453949Y-85458668D01*
X91455793Y-85464891D01*
X91475715Y-85539240D01*
X91475718Y-85539248D01*
X91487067Y-85563588D01*
X91490274Y-85570466D01*
X91497366Y-85592290D01*
X91533731Y-85663660D01*
X91534655Y-85665641D01*
X91534668Y-85665666D01*
X91571307Y-85744241D01*
X91572477Y-85746749D01*
X91585660Y-85765577D01*
X91590871Y-85775803D01*
X91644635Y-85849804D01*
X91645248Y-85850679D01*
X91645271Y-85850711D01*
X91697801Y-85925731D01*
X91703802Y-85934300D01*
X91703805Y-85934303D01*
X91865699Y-86096197D01*
X91927158Y-86139232D01*
X91970783Y-86193809D01*
X91977975Y-86263308D01*
X91946452Y-86325662D01*
X91886709Y-86360952D01*
X91876976Y-86363436D01*
X91876962Y-86363441D01*
X91820415Y-86386863D01*
X92580589Y-87147037D01*
X92517007Y-87164075D01*
X92402993Y-87229901D01*
X92309901Y-87322993D01*
X92244075Y-87437007D01*
X92227037Y-87500589D01*
X91466863Y-86740415D01*
X91466862Y-86740415D01*
X91443446Y-86796947D01*
X91443431Y-86796987D01*
X91425457Y-86847939D01*
X91425455Y-86847946D01*
X91405000Y-86990219D01*
X91405000Y-88269785D01*
X91407893Y-88323762D01*
X91407893Y-88323764D01*
X91443438Y-88463030D01*
X91443442Y-88463043D01*
X91466862Y-88519584D01*
X92227037Y-87759410D01*
X92244075Y-87822993D01*
X92309901Y-87937007D01*
X92402993Y-88030099D01*
X92517007Y-88095925D01*
X92580587Y-88112961D01*
X91820414Y-88873135D01*
X91876957Y-88896556D01*
X91895887Y-88903234D01*
X91952559Y-88944100D01*
X91978142Y-89009117D01*
X91964513Y-89077645D01*
X91925761Y-89121746D01*
X91865702Y-89163800D01*
X91865696Y-89163805D01*
X91703805Y-89325696D01*
X91703800Y-89325702D01*
X91645306Y-89409237D01*
X91644676Y-89410139D01*
X91590871Y-89484197D01*
X91585660Y-89494422D01*
X91580695Y-89501513D01*
X91572475Y-89513253D01*
X91534662Y-89594344D01*
X91533736Y-89596328D01*
X91497366Y-89667710D01*
X91490274Y-89689532D01*
X91487072Y-89696400D01*
X91475718Y-89720751D01*
X91475712Y-89720768D01*
X91455792Y-89795105D01*
X91455793Y-89795106D01*
X91454949Y-89798253D01*
X91433720Y-89863592D01*
X91428337Y-89897567D01*
X91426655Y-89903848D01*
X91426655Y-89903850D01*
X91416457Y-89941913D01*
X91416457Y-89941914D01*
X91416457Y-89941915D01*
X91410838Y-90006127D01*
X91409783Y-90014714D01*
X91401500Y-90067012D01*
X91401500Y-90272981D01*
X91401499Y-90272981D01*
X91409785Y-90325292D01*
X91410463Y-90329571D01*
X91416457Y-90398087D01*
X91428336Y-90442424D01*
X91429352Y-90448836D01*
X91433719Y-90476405D01*
X91433721Y-90476411D01*
X91453949Y-90538668D01*
X91455793Y-90544891D01*
X91475715Y-90619240D01*
X91475718Y-90619248D01*
X91487067Y-90643588D01*
X91490274Y-90650466D01*
X91497366Y-90672290D01*
X91533731Y-90743660D01*
X91534655Y-90745641D01*
X91534663Y-90745656D01*
X91572477Y-90826749D01*
X91585660Y-90845577D01*
X91590871Y-90855803D01*
X91644635Y-90929804D01*
X91645248Y-90930679D01*
X91645271Y-90930711D01*
X91696888Y-91004426D01*
X91703802Y-91014300D01*
X91865700Y-91176198D01*
X91950139Y-91235323D01*
X92024197Y-91289129D01*
X92034422Y-91294339D01*
X92041526Y-91299313D01*
X92053250Y-91307523D01*
X92096342Y-91327616D01*
X92148782Y-91373788D01*
X92167935Y-91440981D01*
X92147720Y-91507862D01*
X92096346Y-91552380D01*
X92053254Y-91572474D01*
X92041513Y-91580695D01*
X92026710Y-91589590D01*
X92024200Y-91590869D01*
X92024192Y-91590873D01*
X91950998Y-91644051D01*
X91949239Y-91645306D01*
X91865702Y-91703800D01*
X91865696Y-91703805D01*
X91703805Y-91865696D01*
X91703800Y-91865702D01*
X91645306Y-91949237D01*
X91644676Y-91950139D01*
X91590871Y-92024197D01*
X91585660Y-92034422D01*
X91580695Y-92041513D01*
X91572475Y-92053253D01*
X91534662Y-92134344D01*
X91533736Y-92136328D01*
X91497366Y-92207710D01*
X91490274Y-92229532D01*
X91487072Y-92236400D01*
X91475718Y-92260751D01*
X91475712Y-92260768D01*
X91455792Y-92335105D01*
X91455793Y-92335106D01*
X91454949Y-92338253D01*
X91433720Y-92403592D01*
X91428337Y-92437567D01*
X91426655Y-92443848D01*
X91426655Y-92443850D01*
X91416457Y-92481913D01*
X91416457Y-92481914D01*
X91416457Y-92481915D01*
X91410838Y-92546127D01*
X91409783Y-92554714D01*
X91401500Y-92607012D01*
X91401500Y-92812981D01*
X91401499Y-92812981D01*
X91409785Y-92865292D01*
X91410463Y-92869571D01*
X91416457Y-92938087D01*
X91428336Y-92982424D01*
X91429352Y-92988836D01*
X91433719Y-93016405D01*
X91433721Y-93016411D01*
X91453949Y-93078668D01*
X91455793Y-93084891D01*
X91475715Y-93159240D01*
X91475718Y-93159248D01*
X91487067Y-93183588D01*
X91490274Y-93190466D01*
X91497366Y-93212290D01*
X91533731Y-93283660D01*
X91534655Y-93285641D01*
X91534663Y-93285656D01*
X91572477Y-93366749D01*
X91585660Y-93385577D01*
X91590871Y-93395803D01*
X91644635Y-93469804D01*
X91645248Y-93470679D01*
X91645271Y-93470711D01*
X91697801Y-93545731D01*
X91703802Y-93554300D01*
X91865700Y-93716198D01*
X91950139Y-93775323D01*
X92024197Y-93829129D01*
X92034422Y-93834339D01*
X92041526Y-93839313D01*
X92053250Y-93847523D01*
X92096342Y-93867616D01*
X92148782Y-93913788D01*
X92167935Y-93980981D01*
X92147720Y-94047862D01*
X92096346Y-94092380D01*
X92053254Y-94112474D01*
X92041513Y-94120695D01*
X92026710Y-94129590D01*
X92024200Y-94130869D01*
X92024192Y-94130873D01*
X91950998Y-94184051D01*
X91949239Y-94185306D01*
X91865702Y-94243800D01*
X91865696Y-94243805D01*
X91703805Y-94405696D01*
X91703800Y-94405702D01*
X91645306Y-94489237D01*
X91644676Y-94490139D01*
X91590871Y-94564197D01*
X91585660Y-94574422D01*
X91580695Y-94581513D01*
X91572475Y-94593253D01*
X91534662Y-94674344D01*
X91533736Y-94676328D01*
X91497366Y-94747710D01*
X91490274Y-94769532D01*
X91487072Y-94776400D01*
X91475718Y-94800751D01*
X91475712Y-94800768D01*
X91455792Y-94875105D01*
X91455793Y-94875106D01*
X91454949Y-94878253D01*
X91433720Y-94943592D01*
X91428337Y-94977567D01*
X91426655Y-94983848D01*
X91426655Y-94983850D01*
X91416457Y-95021913D01*
X91416457Y-95021914D01*
X91416457Y-95021915D01*
X91410838Y-95086127D01*
X91409783Y-95094714D01*
X91401500Y-95147012D01*
X91401500Y-95352981D01*
X91401499Y-95352981D01*
X91409785Y-95405292D01*
X91410463Y-95409571D01*
X91416457Y-95478087D01*
X91428336Y-95522424D01*
X91429352Y-95528836D01*
X91433719Y-95556405D01*
X91433721Y-95556411D01*
X91453949Y-95618668D01*
X91455793Y-95624891D01*
X91475715Y-95699240D01*
X91475718Y-95699248D01*
X91487067Y-95723588D01*
X91490274Y-95730466D01*
X91497366Y-95752290D01*
X91533731Y-95823660D01*
X91534655Y-95825641D01*
X91534663Y-95825656D01*
X91572477Y-95906749D01*
X91585660Y-95925577D01*
X91590871Y-95935803D01*
X91644635Y-96009804D01*
X91645248Y-96010679D01*
X91645271Y-96010711D01*
X91697801Y-96085731D01*
X91703802Y-96094300D01*
X91865700Y-96256198D01*
X91950139Y-96315323D01*
X92024197Y-96369129D01*
X92034422Y-96374339D01*
X92041526Y-96379313D01*
X92053250Y-96387523D01*
X92096342Y-96407616D01*
X92148782Y-96453788D01*
X92167935Y-96520981D01*
X92147720Y-96587862D01*
X92096346Y-96632380D01*
X92053254Y-96652474D01*
X92041513Y-96660695D01*
X92026710Y-96669590D01*
X92024200Y-96670869D01*
X92024192Y-96670873D01*
X91950998Y-96724051D01*
X91949239Y-96725306D01*
X91865702Y-96783800D01*
X91865696Y-96783805D01*
X91703805Y-96945696D01*
X91703800Y-96945702D01*
X91645306Y-97029237D01*
X91644676Y-97030139D01*
X91590871Y-97104197D01*
X91585660Y-97114422D01*
X91580695Y-97121513D01*
X91572475Y-97133253D01*
X91534662Y-97214344D01*
X91533736Y-97216328D01*
X91497366Y-97287710D01*
X91490274Y-97309532D01*
X91487072Y-97316400D01*
X91475718Y-97340751D01*
X91475712Y-97340768D01*
X91455792Y-97415105D01*
X91455793Y-97415106D01*
X91454949Y-97418253D01*
X91433720Y-97483592D01*
X91428337Y-97517567D01*
X91426655Y-97523848D01*
X91426655Y-97523850D01*
X91416457Y-97561913D01*
X91416457Y-97561914D01*
X91416457Y-97561915D01*
X91410838Y-97626127D01*
X91409783Y-97634714D01*
X91401500Y-97687012D01*
X91401500Y-97892981D01*
X91401499Y-97892981D01*
X91409785Y-97945292D01*
X91410463Y-97949571D01*
X91416457Y-98018087D01*
X91428336Y-98062424D01*
X91429352Y-98068836D01*
X91433719Y-98096405D01*
X91433721Y-98096411D01*
X91453949Y-98158668D01*
X91455793Y-98164891D01*
X91475715Y-98239240D01*
X91475718Y-98239248D01*
X91487067Y-98263588D01*
X91490274Y-98270466D01*
X91497366Y-98292290D01*
X91533731Y-98363660D01*
X91534655Y-98365641D01*
X91534663Y-98365656D01*
X91572477Y-98446749D01*
X91585660Y-98465577D01*
X91590871Y-98475803D01*
X91644635Y-98549804D01*
X91645248Y-98550679D01*
X91645271Y-98550711D01*
X91697801Y-98625731D01*
X91703802Y-98634300D01*
X91703805Y-98634303D01*
X91865699Y-98796197D01*
X91927158Y-98839232D01*
X91970783Y-98893809D01*
X91977975Y-98963308D01*
X91946452Y-99025662D01*
X91886709Y-99060952D01*
X91876976Y-99063436D01*
X91876962Y-99063441D01*
X91820415Y-99086863D01*
X92580589Y-99847037D01*
X92517007Y-99864075D01*
X92402993Y-99929901D01*
X92309901Y-100022993D01*
X92244075Y-100137007D01*
X92227037Y-100200589D01*
X91466863Y-99440415D01*
X91466862Y-99440415D01*
X91443446Y-99496947D01*
X91443431Y-99496987D01*
X91425457Y-99547939D01*
X91425455Y-99547946D01*
X91405000Y-99690219D01*
X91405000Y-100969785D01*
X91407893Y-101023762D01*
X91407893Y-101023764D01*
X91443438Y-101163030D01*
X91443442Y-101163043D01*
X91466862Y-101219584D01*
X92227037Y-100459410D01*
X92244075Y-100522993D01*
X92309901Y-100637007D01*
X92402993Y-100730099D01*
X92517007Y-100795925D01*
X92580587Y-100812961D01*
X91820414Y-101573135D01*
X91876957Y-101596556D01*
X91895887Y-101603234D01*
X91952559Y-101644100D01*
X91978142Y-101709117D01*
X91964513Y-101777645D01*
X91925761Y-101821746D01*
X91865702Y-101863800D01*
X91865696Y-101863805D01*
X91703805Y-102025696D01*
X91703800Y-102025702D01*
X91645306Y-102109237D01*
X91644676Y-102110139D01*
X91590871Y-102184197D01*
X91585660Y-102194422D01*
X91580695Y-102201513D01*
X91572475Y-102213253D01*
X91534662Y-102294344D01*
X91533736Y-102296328D01*
X91497366Y-102367710D01*
X91490274Y-102389532D01*
X91487072Y-102396400D01*
X91475718Y-102420751D01*
X91475712Y-102420768D01*
X91455792Y-102495105D01*
X91455793Y-102495106D01*
X91454949Y-102498253D01*
X91433720Y-102563592D01*
X91428337Y-102597567D01*
X91426655Y-102603848D01*
X91426655Y-102603850D01*
X91416457Y-102641913D01*
X91416457Y-102641914D01*
X91416457Y-102641915D01*
X91410838Y-102706127D01*
X91409783Y-102714714D01*
X91401500Y-102767012D01*
X91401500Y-102972981D01*
X91401499Y-102972981D01*
X91409785Y-103025292D01*
X91410463Y-103029571D01*
X91416457Y-103098087D01*
X91428336Y-103142424D01*
X91429352Y-103148836D01*
X91433719Y-103176405D01*
X91433721Y-103176411D01*
X91453949Y-103238668D01*
X91455793Y-103244891D01*
X91475715Y-103319240D01*
X91475718Y-103319248D01*
X91487067Y-103343588D01*
X91490274Y-103350466D01*
X91497366Y-103372290D01*
X91533731Y-103443660D01*
X91534655Y-103445641D01*
X91534663Y-103445656D01*
X91572477Y-103526749D01*
X91585660Y-103545577D01*
X91590871Y-103555803D01*
X91644635Y-103629804D01*
X91645248Y-103630679D01*
X91645271Y-103630711D01*
X91697801Y-103705731D01*
X91703802Y-103714300D01*
X91865700Y-103876198D01*
X91950139Y-103935323D01*
X92024197Y-103989129D01*
X92034422Y-103994339D01*
X92041526Y-103999313D01*
X92053250Y-104007523D01*
X92096342Y-104027616D01*
X92148782Y-104073788D01*
X92167935Y-104140981D01*
X92147720Y-104207862D01*
X92096346Y-104252380D01*
X92053254Y-104272474D01*
X92041513Y-104280695D01*
X92026710Y-104289590D01*
X92024200Y-104290869D01*
X92024192Y-104290873D01*
X91950998Y-104344051D01*
X91949239Y-104345306D01*
X91865702Y-104403800D01*
X91865696Y-104403805D01*
X91703805Y-104565696D01*
X91703800Y-104565702D01*
X91645306Y-104649237D01*
X91644676Y-104650139D01*
X91590871Y-104724197D01*
X91585660Y-104734422D01*
X91580695Y-104741513D01*
X91572475Y-104753253D01*
X91534662Y-104834344D01*
X91533736Y-104836328D01*
X91497366Y-104907710D01*
X91490274Y-104929532D01*
X91487072Y-104936400D01*
X91475718Y-104960751D01*
X91475712Y-104960768D01*
X91455792Y-105035105D01*
X91455793Y-105035106D01*
X91454949Y-105038253D01*
X91433720Y-105103592D01*
X91428337Y-105137567D01*
X91426655Y-105143848D01*
X91426655Y-105143850D01*
X91416457Y-105181913D01*
X91416457Y-105181914D01*
X91416457Y-105181915D01*
X91410838Y-105246127D01*
X91409783Y-105254714D01*
X91401500Y-105307012D01*
X91401500Y-105512981D01*
X91401499Y-105512981D01*
X91409785Y-105565292D01*
X91410463Y-105569571D01*
X91416457Y-105638087D01*
X91428336Y-105682424D01*
X91429352Y-105688836D01*
X91433719Y-105716405D01*
X91433721Y-105716411D01*
X91453949Y-105778668D01*
X91455793Y-105784891D01*
X91475715Y-105859240D01*
X91475718Y-105859248D01*
X91487067Y-105883588D01*
X91490274Y-105890466D01*
X91497366Y-105912290D01*
X91533731Y-105983660D01*
X91534655Y-105985641D01*
X91534663Y-105985656D01*
X91572477Y-106066749D01*
X91585660Y-106085577D01*
X91590871Y-106095803D01*
X91644635Y-106169804D01*
X91645248Y-106170679D01*
X91645271Y-106170711D01*
X91667443Y-106202375D01*
X91689771Y-106268581D01*
X91672762Y-106336349D01*
X91621814Y-106384162D01*
X91565869Y-106397500D01*
X90805951Y-106397500D01*
X90738912Y-106377815D01*
X90718270Y-106361181D01*
X83358511Y-99001422D01*
X83325026Y-98940099D01*
X83330010Y-98870407D01*
X83331608Y-98866344D01*
X83373587Y-98765000D01*
X83408500Y-98589479D01*
X83408500Y-98410521D01*
X83373587Y-98235000D01*
X83305102Y-98069664D01*
X83305100Y-98069661D01*
X83305098Y-98069657D01*
X83205678Y-97920865D01*
X83205675Y-97920861D01*
X83079138Y-97794324D01*
X83079134Y-97794321D01*
X82930342Y-97694901D01*
X82930332Y-97694896D01*
X82765000Y-97626413D01*
X82764992Y-97626411D01*
X82589483Y-97591500D01*
X82589479Y-97591500D01*
X82410521Y-97591500D01*
X82410516Y-97591500D01*
X82235007Y-97626411D01*
X82234999Y-97626413D01*
X82069667Y-97694896D01*
X82069657Y-97694901D01*
X81920865Y-97794321D01*
X81920861Y-97794324D01*
X81794324Y-97920861D01*
X81794321Y-97920865D01*
X81694901Y-98069657D01*
X81694896Y-98069667D01*
X81626413Y-98234999D01*
X81626411Y-98235007D01*
X81591500Y-98410516D01*
X81591500Y-98589483D01*
X81626411Y-98764992D01*
X81626413Y-98765000D01*
X81694896Y-98930332D01*
X81694901Y-98930342D01*
X81794321Y-99079134D01*
X81794324Y-99079138D01*
X81920861Y-99205675D01*
X81920865Y-99205678D01*
X82069657Y-99305098D01*
X82069661Y-99305100D01*
X82069664Y-99305102D01*
X82235000Y-99373587D01*
X82410516Y-99408499D01*
X82410520Y-99408500D01*
X82410521Y-99408500D01*
X82589480Y-99408500D01*
X82589481Y-99408499D01*
X82765000Y-99373587D01*
X82866290Y-99331630D01*
X82935757Y-99324162D01*
X82998236Y-99355436D01*
X83001422Y-99358511D01*
X90506970Y-106864059D01*
X90599775Y-106902500D01*
X90700225Y-106902500D01*
X91608388Y-106902500D01*
X91619655Y-106905808D01*
X91631340Y-106904643D01*
X91652565Y-106915472D01*
X91675427Y-106922185D01*
X91683115Y-106931058D01*
X91693578Y-106936396D01*
X91705580Y-106956984D01*
X91721182Y-106974989D01*
X91722853Y-106986611D01*
X91728768Y-106996757D01*
X91727734Y-107020563D01*
X91731126Y-107044147D01*
X91726171Y-107056599D01*
X91725739Y-107066561D01*
X91713750Y-107087816D01*
X91709699Y-107097999D01*
X91705372Y-107104129D01*
X91703802Y-107105700D01*
X91645211Y-107189374D01*
X91645043Y-107189613D01*
X91645034Y-107189620D01*
X91644051Y-107190998D01*
X91590873Y-107264192D01*
X91590869Y-107264200D01*
X91589590Y-107266710D01*
X91580695Y-107281513D01*
X91572475Y-107293253D01*
X91534662Y-107374344D01*
X91533736Y-107376328D01*
X91497366Y-107447710D01*
X91490274Y-107469532D01*
X91487072Y-107476400D01*
X91475718Y-107500751D01*
X91475712Y-107500768D01*
X91455792Y-107575105D01*
X91455793Y-107575106D01*
X91454949Y-107578253D01*
X91433720Y-107643592D01*
X91428337Y-107677567D01*
X91426655Y-107683848D01*
X91426655Y-107683850D01*
X91416457Y-107721913D01*
X91416457Y-107721914D01*
X91416457Y-107721915D01*
X91410838Y-107786127D01*
X91409783Y-107794714D01*
X91401500Y-107847012D01*
X91401500Y-108052981D01*
X91401499Y-108052981D01*
X91409785Y-108105292D01*
X91410463Y-108109571D01*
X91416457Y-108178087D01*
X91428336Y-108222424D01*
X91429352Y-108228836D01*
X91433719Y-108256405D01*
X91433721Y-108256411D01*
X91453949Y-108318668D01*
X91455793Y-108324891D01*
X91475715Y-108399240D01*
X91475718Y-108399248D01*
X91487067Y-108423588D01*
X91490274Y-108430466D01*
X91497366Y-108452290D01*
X91533731Y-108523660D01*
X91534655Y-108525641D01*
X91534663Y-108525656D01*
X91572477Y-108606749D01*
X91585660Y-108625577D01*
X91590871Y-108635803D01*
X91644635Y-108709804D01*
X91645248Y-108710679D01*
X91645271Y-108710711D01*
X91696888Y-108784426D01*
X91703802Y-108794300D01*
X91865700Y-108956198D01*
X91950139Y-109015323D01*
X92024197Y-109069129D01*
X92034422Y-109074339D01*
X92041526Y-109079313D01*
X92053250Y-109087523D01*
X92096342Y-109107616D01*
X92148782Y-109153788D01*
X92167935Y-109220981D01*
X92147720Y-109287862D01*
X92096346Y-109332380D01*
X92053254Y-109352474D01*
X92041513Y-109360695D01*
X92026710Y-109369590D01*
X92024200Y-109370869D01*
X92024192Y-109370873D01*
X91950998Y-109424051D01*
X91949239Y-109425306D01*
X91865702Y-109483800D01*
X91865696Y-109483805D01*
X91703805Y-109645696D01*
X91703800Y-109645702D01*
X91645306Y-109729237D01*
X91644676Y-109730139D01*
X91590871Y-109804197D01*
X91585660Y-109814422D01*
X91580695Y-109821513D01*
X91572475Y-109833253D01*
X91534662Y-109914344D01*
X91533736Y-109916328D01*
X91497366Y-109987710D01*
X91490274Y-110009532D01*
X91487072Y-110016400D01*
X91475718Y-110040751D01*
X91475712Y-110040768D01*
X91455792Y-110115105D01*
X91455793Y-110115106D01*
X91454949Y-110118253D01*
X91433720Y-110183592D01*
X91428337Y-110217567D01*
X91426655Y-110223848D01*
X91426655Y-110223850D01*
X91416457Y-110261913D01*
X91416457Y-110261914D01*
X91416457Y-110261915D01*
X91410838Y-110326127D01*
X91409783Y-110334714D01*
X91401500Y-110387012D01*
X91401500Y-110592981D01*
X91401499Y-110592981D01*
X91409785Y-110645292D01*
X91410463Y-110649571D01*
X91416457Y-110718087D01*
X91428336Y-110762424D01*
X91429352Y-110768836D01*
X91433719Y-110796405D01*
X91433721Y-110796411D01*
X91453949Y-110858668D01*
X91455793Y-110864891D01*
X91475715Y-110939240D01*
X91475718Y-110939248D01*
X91487067Y-110963588D01*
X91490274Y-110970466D01*
X91497366Y-110992290D01*
X91533731Y-111063660D01*
X91534655Y-111065641D01*
X91534663Y-111065656D01*
X91572477Y-111146749D01*
X91585660Y-111165577D01*
X91590871Y-111175803D01*
X91644635Y-111249804D01*
X91645248Y-111250679D01*
X91645271Y-111250711D01*
X91697801Y-111325731D01*
X91703802Y-111334300D01*
X91703805Y-111334303D01*
X91865699Y-111496197D01*
X91927158Y-111539232D01*
X91970783Y-111593809D01*
X91977975Y-111663308D01*
X91946452Y-111725662D01*
X91886709Y-111760952D01*
X91876976Y-111763436D01*
X91876962Y-111763441D01*
X91820415Y-111786863D01*
X92580589Y-112547037D01*
X92517007Y-112564075D01*
X92402993Y-112629901D01*
X92309901Y-112722993D01*
X92244075Y-112837007D01*
X92227037Y-112900589D01*
X91466863Y-112140415D01*
X91466862Y-112140415D01*
X91443446Y-112196947D01*
X91443431Y-112196987D01*
X91425457Y-112247939D01*
X91425455Y-112247946D01*
X91405000Y-112390219D01*
X91405000Y-113669785D01*
X91407893Y-113723762D01*
X91407893Y-113723764D01*
X91443438Y-113863030D01*
X91443442Y-113863043D01*
X91466862Y-113919584D01*
X92227037Y-113159410D01*
X92244075Y-113222993D01*
X92309901Y-113337007D01*
X92402993Y-113430099D01*
X92517007Y-113495925D01*
X92580587Y-113512961D01*
X91820414Y-114273135D01*
X91876957Y-114296556D01*
X91895887Y-114303234D01*
X91952559Y-114344100D01*
X91978142Y-114409117D01*
X91964513Y-114477645D01*
X91925761Y-114521746D01*
X91865702Y-114563800D01*
X91865696Y-114563805D01*
X91703805Y-114725696D01*
X91703800Y-114725702D01*
X91645306Y-114809237D01*
X91644676Y-114810139D01*
X91590871Y-114884197D01*
X91585660Y-114894422D01*
X91580695Y-114901513D01*
X91572475Y-114913253D01*
X91534662Y-114994344D01*
X91533736Y-114996328D01*
X91497366Y-115067710D01*
X91490274Y-115089532D01*
X91487072Y-115096400D01*
X91475718Y-115120751D01*
X91475712Y-115120768D01*
X91455792Y-115195105D01*
X91455793Y-115195106D01*
X91454949Y-115198253D01*
X91433720Y-115263592D01*
X91428337Y-115297567D01*
X91426655Y-115303848D01*
X91426655Y-115303850D01*
X91416457Y-115341913D01*
X91416457Y-115341914D01*
X91416457Y-115341915D01*
X91410838Y-115406127D01*
X91409783Y-115414714D01*
X91401500Y-115467012D01*
X91401500Y-115672981D01*
X91401499Y-115672981D01*
X91409785Y-115725292D01*
X91410463Y-115729571D01*
X91416457Y-115798087D01*
X91428336Y-115842424D01*
X91429352Y-115848836D01*
X91433719Y-115876405D01*
X91433721Y-115876411D01*
X91453949Y-115938668D01*
X91455793Y-115944891D01*
X91475715Y-116019240D01*
X91475718Y-116019248D01*
X91487067Y-116043588D01*
X91490274Y-116050466D01*
X91497366Y-116072290D01*
X91533731Y-116143660D01*
X91534655Y-116145641D01*
X91534663Y-116145656D01*
X91572477Y-116226749D01*
X91585660Y-116245577D01*
X91590871Y-116255803D01*
X91644635Y-116329804D01*
X91645248Y-116330679D01*
X91645271Y-116330711D01*
X91697801Y-116405731D01*
X91703802Y-116414300D01*
X91865700Y-116576198D01*
X91950139Y-116635323D01*
X92024197Y-116689129D01*
X92034422Y-116694339D01*
X92041526Y-116699313D01*
X92053250Y-116707523D01*
X92096342Y-116727616D01*
X92148782Y-116773788D01*
X92167935Y-116840981D01*
X92147720Y-116907862D01*
X92096346Y-116952380D01*
X92053254Y-116972474D01*
X92041513Y-116980695D01*
X92026710Y-116989590D01*
X92024200Y-116990869D01*
X92024192Y-116990873D01*
X91950998Y-117044051D01*
X91949239Y-117045306D01*
X91865702Y-117103800D01*
X91865696Y-117103805D01*
X91703805Y-117265696D01*
X91703800Y-117265702D01*
X91645306Y-117349237D01*
X91644676Y-117350139D01*
X91590871Y-117424197D01*
X91585660Y-117434422D01*
X91580695Y-117441513D01*
X91572475Y-117453253D01*
X91534662Y-117534344D01*
X91533736Y-117536328D01*
X91497366Y-117607710D01*
X91490274Y-117629532D01*
X91487072Y-117636400D01*
X91475718Y-117660751D01*
X91475712Y-117660768D01*
X91455792Y-117735105D01*
X91455793Y-117735106D01*
X91454949Y-117738253D01*
X91433720Y-117803592D01*
X91428337Y-117837567D01*
X91426655Y-117843848D01*
X91426655Y-117843850D01*
X91416457Y-117881913D01*
X91416457Y-117881914D01*
X91416457Y-117881915D01*
X91410838Y-117946127D01*
X91409783Y-117954714D01*
X91401500Y-118007012D01*
X91401500Y-118212981D01*
X91401499Y-118212981D01*
X91409785Y-118265292D01*
X91410463Y-118269571D01*
X91416457Y-118338087D01*
X91428336Y-118382424D01*
X91429352Y-118388836D01*
X91433719Y-118416405D01*
X91433721Y-118416411D01*
X91453949Y-118478668D01*
X91455793Y-118484891D01*
X91475715Y-118559240D01*
X91475718Y-118559248D01*
X91487067Y-118583588D01*
X91490274Y-118590466D01*
X91497366Y-118612290D01*
X91533731Y-118683660D01*
X91534655Y-118685641D01*
X91534663Y-118685656D01*
X91572477Y-118766749D01*
X91585660Y-118785577D01*
X91590871Y-118795803D01*
X91644635Y-118869804D01*
X91645248Y-118870679D01*
X91645271Y-118870711D01*
X91695848Y-118942941D01*
X91703802Y-118954300D01*
X91865700Y-119116198D01*
X91950139Y-119175323D01*
X92024197Y-119229129D01*
X92034422Y-119234339D01*
X92041526Y-119239313D01*
X92053250Y-119247523D01*
X92096342Y-119267616D01*
X92148782Y-119313788D01*
X92167935Y-119380981D01*
X92147720Y-119447862D01*
X92096346Y-119492380D01*
X92053254Y-119512474D01*
X92041513Y-119520695D01*
X92026710Y-119529590D01*
X92024200Y-119530869D01*
X92024192Y-119530873D01*
X91950998Y-119584051D01*
X91949239Y-119585306D01*
X91865702Y-119643800D01*
X91865696Y-119643805D01*
X91703805Y-119805696D01*
X91703800Y-119805702D01*
X91645306Y-119889237D01*
X91644676Y-119890139D01*
X91590871Y-119964197D01*
X91585660Y-119974422D01*
X91580695Y-119981513D01*
X91572475Y-119993253D01*
X91534662Y-120074344D01*
X91533736Y-120076328D01*
X91497366Y-120147710D01*
X91490274Y-120169532D01*
X91487072Y-120176400D01*
X91475718Y-120200751D01*
X91475712Y-120200768D01*
X91455792Y-120275105D01*
X91455793Y-120275106D01*
X91454949Y-120278253D01*
X91433720Y-120343592D01*
X91428337Y-120377567D01*
X91426655Y-120383848D01*
X91426655Y-120383850D01*
X91416457Y-120421913D01*
X91416457Y-120421914D01*
X91416457Y-120421915D01*
X91410838Y-120486127D01*
X91409783Y-120494714D01*
X91401500Y-120547012D01*
X91401500Y-120752981D01*
X91401499Y-120752981D01*
X91409785Y-120805292D01*
X91410463Y-120809571D01*
X91416457Y-120878087D01*
X91428336Y-120922424D01*
X91429352Y-120928836D01*
X91433719Y-120956405D01*
X91433721Y-120956411D01*
X91453949Y-121018668D01*
X91455793Y-121024891D01*
X91475715Y-121099240D01*
X91475718Y-121099248D01*
X91487067Y-121123588D01*
X91490274Y-121130466D01*
X91497366Y-121152290D01*
X91533731Y-121223660D01*
X91534655Y-121225641D01*
X91534663Y-121225656D01*
X91572477Y-121306749D01*
X91585660Y-121325577D01*
X91590871Y-121335803D01*
X91644635Y-121409804D01*
X91645248Y-121410679D01*
X91645271Y-121410711D01*
X91697801Y-121485731D01*
X91703802Y-121494300D01*
X91865700Y-121656198D01*
X91950139Y-121715323D01*
X92024197Y-121769129D01*
X92034422Y-121774339D01*
X92041526Y-121779313D01*
X92053250Y-121787523D01*
X92096342Y-121807616D01*
X92148782Y-121853788D01*
X92167935Y-121920981D01*
X92147720Y-121987862D01*
X92096346Y-122032380D01*
X92053254Y-122052474D01*
X92041513Y-122060695D01*
X92026710Y-122069590D01*
X92024200Y-122070869D01*
X92024192Y-122070873D01*
X91950998Y-122124051D01*
X91949239Y-122125306D01*
X91865702Y-122183800D01*
X91865696Y-122183805D01*
X91703805Y-122345696D01*
X91703800Y-122345702D01*
X91645306Y-122429237D01*
X91644676Y-122430139D01*
X91590871Y-122504197D01*
X91585660Y-122514422D01*
X91580695Y-122521513D01*
X91572475Y-122533253D01*
X91534662Y-122614344D01*
X91533736Y-122616328D01*
X91497366Y-122687710D01*
X91490274Y-122709532D01*
X91487072Y-122716400D01*
X91475718Y-122740751D01*
X91475712Y-122740768D01*
X91455792Y-122815105D01*
X91455793Y-122815106D01*
X91454949Y-122818253D01*
X91433720Y-122883592D01*
X91428337Y-122917567D01*
X91426655Y-122923848D01*
X91426655Y-122923850D01*
X91416457Y-122961913D01*
X91416457Y-122961914D01*
X91416457Y-122961915D01*
X91410838Y-123026127D01*
X91409783Y-123034714D01*
X91401500Y-123087012D01*
X91401500Y-123292981D01*
X91401499Y-123292981D01*
X91409785Y-123345292D01*
X91410463Y-123349571D01*
X91416457Y-123418087D01*
X91428336Y-123462424D01*
X91429352Y-123468836D01*
X91433719Y-123496405D01*
X91433721Y-123496411D01*
X91453949Y-123558668D01*
X91455793Y-123564891D01*
X91475715Y-123639240D01*
X91475718Y-123639248D01*
X91487067Y-123663588D01*
X91490274Y-123670466D01*
X91497366Y-123692290D01*
X91533731Y-123763660D01*
X91534655Y-123765641D01*
X91534663Y-123765656D01*
X91572477Y-123846749D01*
X91585660Y-123865577D01*
X91590871Y-123875803D01*
X91644635Y-123949804D01*
X91645248Y-123950679D01*
X91645271Y-123950711D01*
X91689229Y-124013488D01*
X91703802Y-124034300D01*
X91703805Y-124034303D01*
X91865699Y-124196197D01*
X91927158Y-124239232D01*
X91970783Y-124293809D01*
X91977975Y-124363308D01*
X91946452Y-124425662D01*
X91886709Y-124460952D01*
X91876976Y-124463436D01*
X91876962Y-124463441D01*
X91820415Y-124486863D01*
X92580589Y-125247037D01*
X92517007Y-125264075D01*
X92402993Y-125329901D01*
X92309901Y-125422993D01*
X92244075Y-125537007D01*
X92227037Y-125600589D01*
X91466863Y-124840415D01*
X91466862Y-124840415D01*
X91443446Y-124896947D01*
X91443431Y-124896987D01*
X91425457Y-124947939D01*
X91425455Y-124947946D01*
X91405000Y-125090219D01*
X91405000Y-126369785D01*
X91407893Y-126423762D01*
X91407893Y-126423764D01*
X91443438Y-126563030D01*
X91443442Y-126563043D01*
X91466862Y-126619584D01*
X92227037Y-125859410D01*
X92244075Y-125922993D01*
X92309901Y-126037007D01*
X92402993Y-126130099D01*
X92517007Y-126195925D01*
X92580587Y-126212961D01*
X91820414Y-126973135D01*
X91876957Y-126996556D01*
X91895887Y-127003234D01*
X91952559Y-127044100D01*
X91978142Y-127109117D01*
X91964513Y-127177645D01*
X91925761Y-127221746D01*
X91865702Y-127263800D01*
X91865696Y-127263805D01*
X91703805Y-127425696D01*
X91703800Y-127425702D01*
X91645306Y-127509237D01*
X91644676Y-127510139D01*
X91590871Y-127584197D01*
X91585660Y-127594422D01*
X91580695Y-127601513D01*
X91572475Y-127613253D01*
X91534662Y-127694344D01*
X91533736Y-127696328D01*
X91497366Y-127767710D01*
X91490274Y-127789532D01*
X91487072Y-127796400D01*
X91475718Y-127820751D01*
X91475712Y-127820768D01*
X91455792Y-127895105D01*
X91455793Y-127895106D01*
X91454949Y-127898253D01*
X91433720Y-127963592D01*
X91428337Y-127997567D01*
X91426655Y-128003848D01*
X91426655Y-128003850D01*
X91416457Y-128041913D01*
X91416457Y-128041914D01*
X91416457Y-128041915D01*
X91410838Y-128106127D01*
X91409783Y-128114714D01*
X91401500Y-128167012D01*
X91401500Y-128372981D01*
X91401499Y-128372981D01*
X91409785Y-128425292D01*
X91410463Y-128429571D01*
X91416457Y-128498087D01*
X91428336Y-128542424D01*
X91429352Y-128548836D01*
X91433719Y-128576405D01*
X91433721Y-128576411D01*
X91453949Y-128638668D01*
X91455793Y-128644891D01*
X91475715Y-128719240D01*
X91475718Y-128719248D01*
X91487067Y-128743588D01*
X91490274Y-128750466D01*
X91497366Y-128772290D01*
X91533731Y-128843660D01*
X91534655Y-128845641D01*
X91534663Y-128845656D01*
X91572477Y-128926749D01*
X91585660Y-128945577D01*
X91590871Y-128955803D01*
X91644635Y-129029804D01*
X91645248Y-129030679D01*
X91645271Y-129030711D01*
X91697801Y-129105731D01*
X91703802Y-129114300D01*
X91865700Y-129276198D01*
X91950139Y-129335323D01*
X92024197Y-129389129D01*
X92034422Y-129394339D01*
X92041526Y-129399313D01*
X92053250Y-129407523D01*
X92096342Y-129427616D01*
X92148782Y-129473788D01*
X92167935Y-129540981D01*
X92147720Y-129607862D01*
X92096346Y-129652380D01*
X92053254Y-129672474D01*
X92041513Y-129680695D01*
X92026710Y-129689590D01*
X92024200Y-129690869D01*
X92024192Y-129690873D01*
X91950998Y-129744051D01*
X91949239Y-129745306D01*
X91865702Y-129803800D01*
X91865696Y-129803805D01*
X91703805Y-129965696D01*
X91703796Y-129965707D01*
X91693787Y-129980002D01*
X91644676Y-130050139D01*
X91590871Y-130124197D01*
X91585663Y-130134415D01*
X91580699Y-130141505D01*
X91580695Y-130141513D01*
X91572475Y-130153253D01*
X91534662Y-130234344D01*
X91533736Y-130236328D01*
X91497366Y-130307710D01*
X91490274Y-130329532D01*
X91487072Y-130336400D01*
X91475718Y-130360751D01*
X91475712Y-130360768D01*
X91455792Y-130435105D01*
X91455793Y-130435106D01*
X91454949Y-130438253D01*
X91433720Y-130503592D01*
X91428337Y-130537567D01*
X91426655Y-130543848D01*
X91426655Y-130543850D01*
X91416457Y-130581913D01*
X91416457Y-130581914D01*
X91416457Y-130581915D01*
X91410838Y-130646127D01*
X91409783Y-130654714D01*
X91401500Y-130707012D01*
X91401500Y-130912981D01*
X91401499Y-130912981D01*
X91409785Y-130965292D01*
X91410463Y-130969571D01*
X91416457Y-131038087D01*
X91428336Y-131082424D01*
X91429352Y-131088836D01*
X91433719Y-131116405D01*
X91433721Y-131116411D01*
X91453949Y-131178668D01*
X91455793Y-131184891D01*
X91475715Y-131259240D01*
X91475718Y-131259248D01*
X91487067Y-131283588D01*
X91490274Y-131290466D01*
X91497366Y-131312290D01*
X91533731Y-131383660D01*
X91534655Y-131385641D01*
X91534663Y-131385656D01*
X91572477Y-131466749D01*
X91585660Y-131485577D01*
X91590871Y-131495803D01*
X91644635Y-131569804D01*
X91645248Y-131570679D01*
X91645271Y-131570711D01*
X91697801Y-131645731D01*
X91703802Y-131654300D01*
X91865700Y-131816198D01*
X91950139Y-131875323D01*
X92024197Y-131929129D01*
X92034422Y-131934339D01*
X92041526Y-131939313D01*
X92053250Y-131947523D01*
X92117546Y-131977503D01*
X92136312Y-131986254D01*
X92207710Y-132022634D01*
X92229537Y-132029726D01*
X92260757Y-132044284D01*
X92260766Y-132044286D01*
X92260770Y-132044288D01*
X92310431Y-132057593D01*
X92338237Y-132065044D01*
X92403592Y-132086280D01*
X92437572Y-132091661D01*
X92443831Y-132093339D01*
X92443833Y-132093339D01*
X92481913Y-132103543D01*
X92546120Y-132109159D01*
X92554708Y-132110214D01*
X92607019Y-132118500D01*
X92607020Y-132118500D01*
X92864335Y-132118500D01*
X92864344Y-132118499D01*
X94367126Y-132118499D01*
X94538087Y-132103543D01*
X94759243Y-132044284D01*
X94966749Y-131947523D01*
X95154300Y-131816198D01*
X95316198Y-131654300D01*
X95447523Y-131466749D01*
X95544284Y-131259243D01*
X95603543Y-131038087D01*
X95618500Y-130867127D01*
X95618499Y-130752874D01*
X95603543Y-130581913D01*
X95544284Y-130360757D01*
X95532931Y-130336411D01*
X95467992Y-130197148D01*
X95447523Y-130153251D01*
X95316198Y-129965700D01*
X95154300Y-129803802D01*
X94966749Y-129672477D01*
X94966740Y-129672473D01*
X94923655Y-129652382D01*
X94871215Y-129606210D01*
X94852063Y-129539017D01*
X94872278Y-129472136D01*
X94923655Y-129427618D01*
X94926882Y-129426112D01*
X94966749Y-129407523D01*
X95154300Y-129276198D01*
X95316198Y-129114300D01*
X95447523Y-128926749D01*
X95544284Y-128719243D01*
X95603543Y-128498087D01*
X95618500Y-128327127D01*
X95618499Y-128212874D01*
X95603543Y-128041913D01*
X95544284Y-127820757D01*
X95532931Y-127796411D01*
X95447524Y-127613254D01*
X95447523Y-127613252D01*
X95447523Y-127613251D01*
X95316198Y-127425700D01*
X95154300Y-127263802D01*
X94966749Y-127132477D01*
X94919600Y-127110491D01*
X94867160Y-127064319D01*
X94848008Y-126997125D01*
X94868224Y-126930244D01*
X94913551Y-126888751D01*
X94969493Y-126858849D01*
X94969521Y-126858832D01*
X95100530Y-126771295D01*
X95100536Y-126771291D01*
X95177064Y-126708485D01*
X95288485Y-126597064D01*
X95351291Y-126520536D01*
X95351295Y-126520530D01*
X95438832Y-126389521D01*
X95438844Y-126389501D01*
X95485509Y-126302198D01*
X95545814Y-126156612D01*
X95574555Y-126061864D01*
X95605298Y-125907302D01*
X95605298Y-125907299D01*
X95615000Y-125808789D01*
X95615000Y-125651209D01*
X95606850Y-125568451D01*
X95605963Y-125559447D01*
X97168500Y-125559447D01*
X97168500Y-126460537D01*
X97168501Y-126460553D01*
X97179113Y-126564427D01*
X97234884Y-126732735D01*
X97234886Y-126732740D01*
X97270142Y-126789898D01*
X97327970Y-126883652D01*
X97453348Y-127009030D01*
X97604262Y-127102115D01*
X97772574Y-127157887D01*
X97876455Y-127168500D01*
X98050500Y-127168499D01*
X98117539Y-127188183D01*
X98163294Y-127240987D01*
X98174500Y-127292499D01*
X98174500Y-129466728D01*
X98154815Y-129533767D01*
X98102011Y-129579522D01*
X98088824Y-129584656D01*
X98078280Y-129588083D01*
X98049705Y-129597367D01*
X97866193Y-129690873D01*
X97699576Y-129811926D01*
X97699571Y-129811930D01*
X97553930Y-129957571D01*
X97553926Y-129957576D01*
X97432873Y-130124193D01*
X97339367Y-130307705D01*
X97275719Y-130503591D01*
X97243500Y-130707019D01*
X97243500Y-130912980D01*
X97275719Y-131116408D01*
X97339367Y-131312294D01*
X97376740Y-131385641D01*
X97424042Y-131478476D01*
X97432873Y-131495806D01*
X97553926Y-131662423D01*
X97553930Y-131662428D01*
X97699571Y-131808069D01*
X97699576Y-131808073D01*
X97791309Y-131874720D01*
X97866197Y-131929129D01*
X97978311Y-131986254D01*
X98049705Y-132022632D01*
X98049707Y-132022632D01*
X98049710Y-132022634D01*
X98116333Y-132044281D01*
X98245591Y-132086280D01*
X98279572Y-132091662D01*
X98449019Y-132118500D01*
X98449020Y-132118500D01*
X98654980Y-132118500D01*
X98654981Y-132118500D01*
X98858408Y-132086280D01*
X99054290Y-132022634D01*
X99237803Y-131929129D01*
X99404430Y-131808068D01*
X99550068Y-131662430D01*
X99671129Y-131495803D01*
X99764634Y-131312290D01*
X99828280Y-131116408D01*
X99860500Y-130912981D01*
X99860500Y-130707019D01*
X99833470Y-130536358D01*
X99828280Y-130503591D01*
X99781874Y-130360770D01*
X99764634Y-130307710D01*
X99764632Y-130307707D01*
X99764632Y-130307705D01*
X99727252Y-130234344D01*
X99671129Y-130124197D01*
X99611738Y-130042452D01*
X99550073Y-129957576D01*
X99550069Y-129957571D01*
X99404428Y-129811930D01*
X99404423Y-129811926D01*
X99237806Y-129690873D01*
X99237805Y-129690872D01*
X99237803Y-129690871D01*
X99168731Y-129655677D01*
X99054294Y-129597367D01*
X99032460Y-129590273D01*
X99015179Y-129584658D01*
X98957506Y-129545221D01*
X98930308Y-129480862D01*
X98929500Y-129466728D01*
X98929500Y-127292499D01*
X98949185Y-127225460D01*
X99001989Y-127179705D01*
X99053500Y-127168499D01*
X99227537Y-127168499D01*
X99227544Y-127168499D01*
X99331426Y-127157887D01*
X99499738Y-127102115D01*
X99650652Y-127009030D01*
X99776030Y-126883652D01*
X99869115Y-126732738D01*
X99924887Y-126564426D01*
X99935500Y-126460545D01*
X99935499Y-125559456D01*
X99924887Y-125455574D01*
X99869115Y-125287262D01*
X99776030Y-125136348D01*
X99650652Y-125010970D01*
X99499738Y-124917885D01*
X99436671Y-124896987D01*
X99331427Y-124862113D01*
X99227545Y-124851500D01*
X97876462Y-124851500D01*
X97876446Y-124851501D01*
X97772572Y-124862113D01*
X97604264Y-124917884D01*
X97604259Y-124917886D01*
X97453346Y-125010971D01*
X97327971Y-125136346D01*
X97234886Y-125287259D01*
X97234884Y-125287264D01*
X97179113Y-125455572D01*
X97168500Y-125559447D01*
X95605963Y-125559447D01*
X95605298Y-125552699D01*
X95605298Y-125552697D01*
X95574555Y-125398135D01*
X95545814Y-125303387D01*
X95485509Y-125157801D01*
X95438844Y-125070498D01*
X95438832Y-125070478D01*
X95351295Y-124939469D01*
X95351291Y-124939463D01*
X95288485Y-124862935D01*
X95177064Y-124751514D01*
X95100536Y-124688708D01*
X95100530Y-124688704D01*
X94969521Y-124601167D01*
X94969500Y-124601155D01*
X94913550Y-124571248D01*
X94863706Y-124522285D01*
X94848246Y-124454147D01*
X94872078Y-124388467D01*
X94919597Y-124349510D01*
X94966749Y-124327523D01*
X95154300Y-124196198D01*
X95316198Y-124034300D01*
X95447523Y-123846749D01*
X95544284Y-123639243D01*
X95603543Y-123418087D01*
X95618500Y-123247127D01*
X95618499Y-123132874D01*
X95603543Y-122961913D01*
X95544284Y-122740757D01*
X95532931Y-122716411D01*
X95447524Y-122533254D01*
X95447523Y-122533252D01*
X95447523Y-122533251D01*
X95395845Y-122459447D01*
X97168500Y-122459447D01*
X97168500Y-123360537D01*
X97168501Y-123360553D01*
X97179113Y-123464427D01*
X97234884Y-123632735D01*
X97234886Y-123632740D01*
X97270142Y-123689898D01*
X97327970Y-123783652D01*
X97453348Y-123909030D01*
X97604262Y-124002115D01*
X97772574Y-124057887D01*
X97876455Y-124068500D01*
X99227544Y-124068499D01*
X99331426Y-124057887D01*
X99499738Y-124002115D01*
X99650652Y-123909030D01*
X99776030Y-123783652D01*
X99869115Y-123632738D01*
X99924887Y-123464426D01*
X99935500Y-123360545D01*
X99935499Y-122459456D01*
X99924887Y-122355574D01*
X99869115Y-122187262D01*
X99776030Y-122036348D01*
X99650652Y-121910970D01*
X99538797Y-121841977D01*
X99499740Y-121817886D01*
X99499735Y-121817884D01*
X99331427Y-121762113D01*
X99227552Y-121751500D01*
X99227545Y-121751500D01*
X99053500Y-121751500D01*
X98986461Y-121731815D01*
X98940706Y-121679011D01*
X98929500Y-121627500D01*
X98929500Y-119453271D01*
X98949185Y-119386232D01*
X99001989Y-119340477D01*
X99015173Y-119335343D01*
X99054290Y-119322634D01*
X99237803Y-119229129D01*
X99404430Y-119108068D01*
X99550068Y-118962430D01*
X99671129Y-118795803D01*
X99764634Y-118612290D01*
X99828280Y-118416408D01*
X99860500Y-118212981D01*
X99860500Y-118007019D01*
X99828280Y-117803592D01*
X99810496Y-117748860D01*
X99781874Y-117660770D01*
X99764634Y-117607710D01*
X99764632Y-117607707D01*
X99764632Y-117607705D01*
X99685934Y-117453254D01*
X99671129Y-117424197D01*
X99616701Y-117349283D01*
X99550073Y-117257576D01*
X99550069Y-117257571D01*
X99404428Y-117111930D01*
X99404423Y-117111926D01*
X99237806Y-116990873D01*
X99237805Y-116990872D01*
X99237803Y-116990871D01*
X99180496Y-116961671D01*
X99054294Y-116897367D01*
X98858408Y-116833719D01*
X98672558Y-116804284D01*
X98654981Y-116801500D01*
X98449019Y-116801500D01*
X98431442Y-116804284D01*
X98245591Y-116833719D01*
X98049705Y-116897367D01*
X97866193Y-116990873D01*
X97699576Y-117111926D01*
X97699571Y-117111930D01*
X97553930Y-117257571D01*
X97553926Y-117257576D01*
X97432873Y-117424193D01*
X97339367Y-117607705D01*
X97275719Y-117803591D01*
X97243500Y-118007019D01*
X97243500Y-118212980D01*
X97275719Y-118416408D01*
X97339367Y-118612294D01*
X97376740Y-118685641D01*
X97424042Y-118778476D01*
X97432873Y-118795806D01*
X97553926Y-118962423D01*
X97553930Y-118962428D01*
X97699571Y-119108069D01*
X97699576Y-119108073D01*
X97791316Y-119174725D01*
X97866197Y-119229129D01*
X98049710Y-119322634D01*
X98088817Y-119335340D01*
X98146491Y-119374775D01*
X98173691Y-119439133D01*
X98174500Y-119453271D01*
X98174500Y-121627500D01*
X98154815Y-121694539D01*
X98102011Y-121740294D01*
X98050501Y-121751500D01*
X97876463Y-121751500D01*
X97876446Y-121751501D01*
X97772572Y-121762113D01*
X97604264Y-121817884D01*
X97604259Y-121817886D01*
X97453346Y-121910971D01*
X97327971Y-122036346D01*
X97234886Y-122187259D01*
X97234884Y-122187264D01*
X97179113Y-122355572D01*
X97168500Y-122459447D01*
X95395845Y-122459447D01*
X95316198Y-122345700D01*
X95154300Y-122183802D01*
X94966749Y-122052477D01*
X94966740Y-122052473D01*
X94923655Y-122032382D01*
X94871215Y-121986210D01*
X94852063Y-121919017D01*
X94872278Y-121852136D01*
X94923655Y-121807618D01*
X94926882Y-121806112D01*
X94966749Y-121787523D01*
X95154300Y-121656198D01*
X95316198Y-121494300D01*
X95447523Y-121306749D01*
X95544284Y-121099243D01*
X95603543Y-120878087D01*
X95618500Y-120707127D01*
X95618499Y-120592874D01*
X95603543Y-120421913D01*
X95544284Y-120200757D01*
X95532931Y-120176411D01*
X95447524Y-119993254D01*
X95447523Y-119993252D01*
X95447523Y-119993251D01*
X95316198Y-119805700D01*
X95154300Y-119643802D01*
X94966749Y-119512477D01*
X94966740Y-119512473D01*
X94923655Y-119492382D01*
X94871215Y-119446210D01*
X94852063Y-119379017D01*
X94872278Y-119312136D01*
X94923655Y-119267618D01*
X94926882Y-119266112D01*
X94966749Y-119247523D01*
X95154300Y-119116198D01*
X95316198Y-118954300D01*
X95447523Y-118766749D01*
X95544284Y-118559243D01*
X95603543Y-118338087D01*
X95618500Y-118167127D01*
X95618499Y-118052874D01*
X95603543Y-117881913D01*
X95544284Y-117660757D01*
X95532931Y-117636411D01*
X95447524Y-117453254D01*
X95447523Y-117453252D01*
X95447523Y-117453251D01*
X95316198Y-117265700D01*
X95154300Y-117103802D01*
X94966749Y-116972477D01*
X94966740Y-116972473D01*
X94923655Y-116952382D01*
X94871215Y-116906210D01*
X94852063Y-116839017D01*
X94872278Y-116772136D01*
X94923655Y-116727618D01*
X94926882Y-116726112D01*
X94966749Y-116707523D01*
X95154300Y-116576198D01*
X95316198Y-116414300D01*
X95447523Y-116226749D01*
X95544284Y-116019243D01*
X95603543Y-115798087D01*
X95618500Y-115627127D01*
X95618499Y-115512874D01*
X95603543Y-115341913D01*
X95544284Y-115120757D01*
X95532931Y-115096411D01*
X95447524Y-114913254D01*
X95447523Y-114913252D01*
X95447523Y-114913251D01*
X95316198Y-114725700D01*
X95154300Y-114563802D01*
X94966749Y-114432477D01*
X94919600Y-114410491D01*
X94867160Y-114364319D01*
X94848008Y-114297125D01*
X94868224Y-114230244D01*
X94913551Y-114188751D01*
X94969493Y-114158849D01*
X94969521Y-114158832D01*
X95100530Y-114071295D01*
X95100536Y-114071291D01*
X95177064Y-114008485D01*
X95288485Y-113897064D01*
X95351291Y-113820536D01*
X95351295Y-113820530D01*
X95438832Y-113689521D01*
X95438844Y-113689501D01*
X95485509Y-113602198D01*
X95545814Y-113456612D01*
X95574555Y-113361864D01*
X95605298Y-113207302D01*
X95605298Y-113207299D01*
X95615000Y-113108789D01*
X95615000Y-112951210D01*
X95605298Y-112852700D01*
X95605298Y-112852697D01*
X95574555Y-112698135D01*
X95545814Y-112603387D01*
X95485509Y-112457801D01*
X95438844Y-112370498D01*
X95438832Y-112370478D01*
X95351295Y-112239469D01*
X95351291Y-112239463D01*
X95288485Y-112162935D01*
X95177064Y-112051514D01*
X95100536Y-111988708D01*
X95100530Y-111988704D01*
X94969521Y-111901167D01*
X94969500Y-111901155D01*
X94913550Y-111871248D01*
X94863706Y-111822285D01*
X94848246Y-111754147D01*
X94872078Y-111688467D01*
X94919597Y-111649510D01*
X94966749Y-111627523D01*
X95154300Y-111496198D01*
X95316198Y-111334300D01*
X95447523Y-111146749D01*
X95544284Y-110939243D01*
X95603543Y-110718087D01*
X95618500Y-110547127D01*
X95618499Y-110432874D01*
X95603543Y-110261913D01*
X95544284Y-110040757D01*
X95532931Y-110016411D01*
X95447524Y-109833254D01*
X95447523Y-109833252D01*
X95447523Y-109833251D01*
X95316198Y-109645700D01*
X95154300Y-109483802D01*
X94966749Y-109352477D01*
X94966740Y-109352473D01*
X94923655Y-109332382D01*
X94871215Y-109286210D01*
X94852063Y-109219017D01*
X94872278Y-109152136D01*
X94923655Y-109107618D01*
X94932160Y-109103652D01*
X94966749Y-109087523D01*
X95154300Y-108956198D01*
X95316198Y-108794300D01*
X95447523Y-108606749D01*
X95544284Y-108399243D01*
X95603543Y-108178087D01*
X95618500Y-108007127D01*
X95618499Y-107892874D01*
X95603543Y-107721913D01*
X95544284Y-107500757D01*
X95532931Y-107476411D01*
X95485337Y-107374344D01*
X95447523Y-107293251D01*
X95316198Y-107105700D01*
X95316193Y-107105695D01*
X95313092Y-107101266D01*
X95314138Y-107100533D01*
X95288609Y-107042197D01*
X95299648Y-106973205D01*
X95346235Y-106921134D01*
X95411611Y-106902500D01*
X96816049Y-106902500D01*
X96883088Y-106922185D01*
X96903730Y-106938819D01*
X97256080Y-107291169D01*
X97289565Y-107352492D01*
X97284581Y-107422184D01*
X97273938Y-107443946D01*
X97234883Y-107507263D01*
X97234883Y-107507264D01*
X97179113Y-107675570D01*
X97179113Y-107675571D01*
X97168500Y-107779447D01*
X97168500Y-108680537D01*
X97168501Y-108680553D01*
X97179113Y-108784427D01*
X97234884Y-108952735D01*
X97234886Y-108952740D01*
X97270142Y-109009898D01*
X97327970Y-109103652D01*
X97453348Y-109229030D01*
X97604262Y-109322115D01*
X97772574Y-109377887D01*
X97876455Y-109388500D01*
X98050500Y-109388499D01*
X98117539Y-109408183D01*
X98163294Y-109460987D01*
X98174500Y-109512499D01*
X98174500Y-111686728D01*
X98154815Y-111753767D01*
X98102011Y-111799522D01*
X98088824Y-111804656D01*
X98074284Y-111809381D01*
X98049705Y-111817367D01*
X97866193Y-111910873D01*
X97699576Y-112031926D01*
X97699571Y-112031930D01*
X97553930Y-112177571D01*
X97553926Y-112177576D01*
X97432873Y-112344193D01*
X97339367Y-112527705D01*
X97275719Y-112723591D01*
X97243500Y-112927019D01*
X97243500Y-113132980D01*
X97275719Y-113336408D01*
X97339367Y-113532294D01*
X97374986Y-113602198D01*
X97424307Y-113698996D01*
X97432873Y-113715806D01*
X97553926Y-113882423D01*
X97553930Y-113882428D01*
X97699571Y-114028069D01*
X97699576Y-114028073D01*
X97759067Y-114071295D01*
X97866197Y-114149129D01*
X97983128Y-114208709D01*
X98049705Y-114242632D01*
X98049707Y-114242632D01*
X98049710Y-114242634D01*
X98153806Y-114276457D01*
X98245591Y-114306280D01*
X98300363Y-114314955D01*
X98449019Y-114338500D01*
X98449020Y-114338500D01*
X98654980Y-114338500D01*
X98654981Y-114338500D01*
X98858408Y-114306280D01*
X99054290Y-114242634D01*
X99237803Y-114149129D01*
X99404430Y-114028068D01*
X99550068Y-113882430D01*
X99671129Y-113715803D01*
X99764634Y-113532290D01*
X99828280Y-113336408D01*
X99860500Y-113132981D01*
X99860500Y-112927019D01*
X99855675Y-112896558D01*
X99828280Y-112723591D01*
X99788062Y-112599813D01*
X99764634Y-112527710D01*
X99764632Y-112527707D01*
X99764632Y-112527705D01*
X99694578Y-112390219D01*
X99671129Y-112344197D01*
X99595036Y-112239463D01*
X99550073Y-112177576D01*
X99550069Y-112177571D01*
X99404428Y-112031930D01*
X99404423Y-112031926D01*
X99237806Y-111910873D01*
X99237805Y-111910872D01*
X99237803Y-111910871D01*
X99160037Y-111871247D01*
X99054294Y-111817367D01*
X99036774Y-111811674D01*
X99015179Y-111804658D01*
X98957506Y-111765221D01*
X98930308Y-111700862D01*
X98929500Y-111686728D01*
X98929500Y-109512499D01*
X98949185Y-109445460D01*
X99001989Y-109399705D01*
X99053500Y-109388499D01*
X99227537Y-109388499D01*
X99227544Y-109388499D01*
X99331426Y-109377887D01*
X99499738Y-109322115D01*
X99650652Y-109229030D01*
X99776030Y-109103652D01*
X99869115Y-108952738D01*
X99924887Y-108784426D01*
X99935500Y-108680545D01*
X99935499Y-107779456D01*
X99924887Y-107675574D01*
X99869115Y-107507262D01*
X99776030Y-107356348D01*
X99650652Y-107230970D01*
X99499738Y-107137885D01*
X99465413Y-107126511D01*
X99331427Y-107082113D01*
X99227545Y-107071500D01*
X97876462Y-107071500D01*
X97876441Y-107071502D01*
X97820871Y-107077178D01*
X97752178Y-107064407D01*
X97720590Y-107041501D01*
X97115030Y-106435941D01*
X97022226Y-106397500D01*
X97022225Y-106397500D01*
X95454130Y-106397500D01*
X95387091Y-106377815D01*
X95341336Y-106325011D01*
X95331392Y-106255853D01*
X95352554Y-106202378D01*
X95447523Y-106066749D01*
X95544284Y-105859243D01*
X95603543Y-105638087D01*
X95618500Y-105467127D01*
X95618499Y-105352874D01*
X95603543Y-105181913D01*
X95544284Y-104960757D01*
X95532931Y-104936411D01*
X95447524Y-104753254D01*
X95447523Y-104753252D01*
X95447523Y-104753251D01*
X95395845Y-104679447D01*
X97168500Y-104679447D01*
X97168500Y-105580537D01*
X97168501Y-105580553D01*
X97179113Y-105684427D01*
X97234884Y-105852735D01*
X97234886Y-105852740D01*
X97270142Y-105909898D01*
X97327970Y-106003652D01*
X97453348Y-106129030D01*
X97604262Y-106222115D01*
X97772574Y-106277887D01*
X97876455Y-106288500D01*
X99227544Y-106288499D01*
X99331426Y-106277887D01*
X99499738Y-106222115D01*
X99650652Y-106129030D01*
X99776030Y-106003652D01*
X99869115Y-105852738D01*
X99924887Y-105684426D01*
X99935500Y-105580545D01*
X99935499Y-104679456D01*
X99924887Y-104575574D01*
X99869115Y-104407262D01*
X99776030Y-104256348D01*
X99650652Y-104130970D01*
X99538797Y-104061977D01*
X99499740Y-104037886D01*
X99499735Y-104037884D01*
X99331427Y-103982113D01*
X99227552Y-103971500D01*
X99227545Y-103971500D01*
X99053500Y-103971500D01*
X98986461Y-103951815D01*
X98940706Y-103899011D01*
X98929500Y-103847500D01*
X98929500Y-101673271D01*
X98949185Y-101606232D01*
X99001989Y-101560477D01*
X99015173Y-101555343D01*
X99054290Y-101542634D01*
X99237803Y-101449129D01*
X99404430Y-101328068D01*
X99550068Y-101182430D01*
X99671129Y-101015803D01*
X99764634Y-100832290D01*
X99828280Y-100636408D01*
X99860500Y-100432981D01*
X99860500Y-100227019D01*
X99855675Y-100196558D01*
X99828280Y-100023591D01*
X99789223Y-99903387D01*
X99764634Y-99827710D01*
X99764632Y-99827707D01*
X99764632Y-99827705D01*
X99694578Y-99690219D01*
X99671129Y-99644197D01*
X99595036Y-99539463D01*
X99550073Y-99477576D01*
X99550069Y-99477571D01*
X99404428Y-99331930D01*
X99404423Y-99331926D01*
X99237806Y-99210873D01*
X99237805Y-99210872D01*
X99237803Y-99210871D01*
X99160037Y-99171247D01*
X99054294Y-99117367D01*
X98858408Y-99053719D01*
X98672558Y-99024284D01*
X98654981Y-99021500D01*
X98449019Y-99021500D01*
X98431442Y-99024284D01*
X98245591Y-99053719D01*
X98049705Y-99117367D01*
X97866193Y-99210873D01*
X97699576Y-99331926D01*
X97699571Y-99331930D01*
X97553930Y-99477571D01*
X97553926Y-99477576D01*
X97432873Y-99644193D01*
X97339367Y-99827705D01*
X97275719Y-100023591D01*
X97243500Y-100227019D01*
X97243500Y-100432980D01*
X97275719Y-100636408D01*
X97339367Y-100832294D01*
X97374986Y-100902198D01*
X97419469Y-100989501D01*
X97432873Y-101015806D01*
X97553926Y-101182423D01*
X97553930Y-101182428D01*
X97699571Y-101328069D01*
X97699576Y-101328073D01*
X97759067Y-101371295D01*
X97866197Y-101449129D01*
X98049710Y-101542634D01*
X98088817Y-101555340D01*
X98146491Y-101594775D01*
X98173691Y-101659133D01*
X98174500Y-101673271D01*
X98174500Y-103847500D01*
X98154815Y-103914539D01*
X98102011Y-103960294D01*
X98050501Y-103971500D01*
X97876463Y-103971500D01*
X97876446Y-103971501D01*
X97772572Y-103982113D01*
X97604264Y-104037884D01*
X97604259Y-104037886D01*
X97453346Y-104130971D01*
X97327971Y-104256346D01*
X97234886Y-104407259D01*
X97234884Y-104407264D01*
X97179113Y-104575572D01*
X97168500Y-104679447D01*
X95395845Y-104679447D01*
X95316198Y-104565700D01*
X95154300Y-104403802D01*
X94966749Y-104272477D01*
X94966740Y-104272473D01*
X94923655Y-104252382D01*
X94871215Y-104206210D01*
X94852063Y-104139017D01*
X94872278Y-104072136D01*
X94923655Y-104027618D01*
X94926882Y-104026112D01*
X94966749Y-104007523D01*
X95154300Y-103876198D01*
X95316198Y-103714300D01*
X95447523Y-103526749D01*
X95544284Y-103319243D01*
X95603543Y-103098087D01*
X95618500Y-102927127D01*
X95618499Y-102812874D01*
X95603543Y-102641913D01*
X95544284Y-102420757D01*
X95532931Y-102396411D01*
X95447524Y-102213254D01*
X95447523Y-102213252D01*
X95447523Y-102213251D01*
X95316198Y-102025700D01*
X95154300Y-101863802D01*
X94966749Y-101732477D01*
X94919600Y-101710491D01*
X94867160Y-101664319D01*
X94848008Y-101597125D01*
X94868224Y-101530244D01*
X94913551Y-101488751D01*
X94969493Y-101458849D01*
X94969521Y-101458832D01*
X95100530Y-101371295D01*
X95100536Y-101371291D01*
X95177064Y-101308485D01*
X95288485Y-101197064D01*
X95351291Y-101120536D01*
X95351295Y-101120530D01*
X95438832Y-100989521D01*
X95438844Y-100989501D01*
X95485509Y-100902198D01*
X95545814Y-100756612D01*
X95574555Y-100661864D01*
X95605298Y-100507302D01*
X95605298Y-100507299D01*
X95615000Y-100408789D01*
X95615000Y-100251210D01*
X95605298Y-100152700D01*
X95605298Y-100152697D01*
X95574555Y-99998135D01*
X95545814Y-99903387D01*
X95485509Y-99757801D01*
X95438844Y-99670498D01*
X95438832Y-99670478D01*
X95351295Y-99539469D01*
X95351291Y-99539463D01*
X95288485Y-99462935D01*
X95177064Y-99351514D01*
X95100536Y-99288708D01*
X95100530Y-99288704D01*
X94969521Y-99201167D01*
X94969500Y-99201155D01*
X94913550Y-99171248D01*
X94863706Y-99122285D01*
X94848246Y-99054147D01*
X94872078Y-98988467D01*
X94919597Y-98949510D01*
X94966749Y-98927523D01*
X95154300Y-98796198D01*
X95316198Y-98634300D01*
X95447523Y-98446749D01*
X95544284Y-98239243D01*
X95603543Y-98018087D01*
X95618500Y-97847127D01*
X95618499Y-97732874D01*
X95603543Y-97561913D01*
X95544284Y-97340757D01*
X95532931Y-97316411D01*
X95485337Y-97214344D01*
X95447523Y-97133251D01*
X95316198Y-96945700D01*
X95154300Y-96783802D01*
X94966749Y-96652477D01*
X94966740Y-96652473D01*
X94923655Y-96632382D01*
X94871215Y-96586210D01*
X94852063Y-96519017D01*
X94872278Y-96452136D01*
X94923655Y-96407618D01*
X94926882Y-96406112D01*
X94966749Y-96387523D01*
X95154300Y-96256198D01*
X95316198Y-96094300D01*
X95447523Y-95906749D01*
X95544284Y-95699243D01*
X95603543Y-95478087D01*
X95618500Y-95307127D01*
X95618499Y-95192874D01*
X95603543Y-95021913D01*
X95544284Y-94800757D01*
X95532931Y-94776411D01*
X95447524Y-94593254D01*
X95447523Y-94593252D01*
X95447523Y-94593251D01*
X95316198Y-94405700D01*
X95154300Y-94243802D01*
X94966749Y-94112477D01*
X94966740Y-94112473D01*
X94923655Y-94092382D01*
X94871215Y-94046210D01*
X94852063Y-93979017D01*
X94872278Y-93912136D01*
X94923655Y-93867618D01*
X94926882Y-93866112D01*
X94966749Y-93847523D01*
X95154300Y-93716198D01*
X95316198Y-93554300D01*
X95447523Y-93366749D01*
X95544284Y-93159243D01*
X95603543Y-92938087D01*
X95618500Y-92767127D01*
X95618499Y-92652874D01*
X95603543Y-92481913D01*
X95544284Y-92260757D01*
X95532931Y-92236411D01*
X95447524Y-92053254D01*
X95447523Y-92053252D01*
X95447523Y-92053251D01*
X95316198Y-91865700D01*
X95154300Y-91703802D01*
X94966749Y-91572477D01*
X94966740Y-91572473D01*
X94923655Y-91552382D01*
X94871215Y-91506210D01*
X94852063Y-91439017D01*
X94872278Y-91372136D01*
X94923655Y-91327618D01*
X94932160Y-91323652D01*
X94966749Y-91307523D01*
X95154300Y-91176198D01*
X95316198Y-91014300D01*
X95447523Y-90826749D01*
X95544284Y-90619243D01*
X95603543Y-90398087D01*
X95618500Y-90227127D01*
X95618499Y-90112874D01*
X95603543Y-89941913D01*
X95544284Y-89720757D01*
X95543677Y-89719456D01*
X95543673Y-89719447D01*
X97168500Y-89719447D01*
X97168500Y-90620537D01*
X97168501Y-90620553D01*
X97179113Y-90724427D01*
X97213018Y-90826747D01*
X97234885Y-90892738D01*
X97327970Y-91043652D01*
X97453348Y-91169030D01*
X97604262Y-91262115D01*
X97772574Y-91317887D01*
X97876455Y-91328500D01*
X98050500Y-91328499D01*
X98117539Y-91348183D01*
X98163294Y-91400987D01*
X98174500Y-91452499D01*
X98174500Y-93906728D01*
X98154815Y-93973767D01*
X98102011Y-94019522D01*
X98088824Y-94024656D01*
X98074284Y-94029381D01*
X98049705Y-94037367D01*
X97866193Y-94130873D01*
X97699576Y-94251926D01*
X97699571Y-94251930D01*
X97553930Y-94397571D01*
X97553926Y-94397576D01*
X97432873Y-94564193D01*
X97339367Y-94747705D01*
X97275719Y-94943591D01*
X97243500Y-95147019D01*
X97243500Y-95352980D01*
X97275719Y-95556408D01*
X97339367Y-95752294D01*
X97376740Y-95825641D01*
X97424042Y-95918476D01*
X97432873Y-95935806D01*
X97553926Y-96102423D01*
X97553930Y-96102428D01*
X97699571Y-96248069D01*
X97699576Y-96248073D01*
X97791316Y-96314725D01*
X97866197Y-96369129D01*
X97978311Y-96426254D01*
X98049705Y-96462632D01*
X98049707Y-96462632D01*
X98049710Y-96462634D01*
X98116342Y-96484284D01*
X98245591Y-96526280D01*
X98333062Y-96540134D01*
X98449019Y-96558500D01*
X98449020Y-96558500D01*
X98654980Y-96558500D01*
X98654981Y-96558500D01*
X98858408Y-96526280D01*
X99054290Y-96462634D01*
X99237803Y-96369129D01*
X99404430Y-96248068D01*
X99550068Y-96102430D01*
X99671129Y-95935803D01*
X99764634Y-95752290D01*
X99828280Y-95556408D01*
X99860500Y-95352981D01*
X99860500Y-95147019D01*
X99840685Y-95021913D01*
X99828280Y-94943591D01*
X99781874Y-94800770D01*
X99764634Y-94747710D01*
X99764632Y-94747707D01*
X99764632Y-94747705D01*
X99685934Y-94593254D01*
X99671129Y-94564197D01*
X99616701Y-94489283D01*
X99550073Y-94397576D01*
X99550069Y-94397571D01*
X99404428Y-94251930D01*
X99404423Y-94251926D01*
X99237806Y-94130873D01*
X99237805Y-94130872D01*
X99237803Y-94130871D01*
X99180496Y-94101671D01*
X99054294Y-94037367D01*
X99032460Y-94030273D01*
X99015179Y-94024658D01*
X98957506Y-93985221D01*
X98930308Y-93920862D01*
X98929500Y-93906728D01*
X98929500Y-91452499D01*
X98949185Y-91385460D01*
X99001989Y-91339705D01*
X99053500Y-91328499D01*
X99227537Y-91328499D01*
X99227544Y-91328499D01*
X99331426Y-91317887D01*
X99499738Y-91262115D01*
X99650652Y-91169030D01*
X99776030Y-91043652D01*
X99869115Y-90892738D01*
X99924887Y-90724426D01*
X99935500Y-90620545D01*
X99935499Y-89719456D01*
X99924887Y-89615574D01*
X99869115Y-89447262D01*
X99776030Y-89296348D01*
X99650652Y-89170970D01*
X99499738Y-89077885D01*
X99402488Y-89045660D01*
X99331427Y-89022113D01*
X99227545Y-89011500D01*
X97876462Y-89011500D01*
X97876446Y-89011501D01*
X97772572Y-89022113D01*
X97604264Y-89077884D01*
X97604259Y-89077886D01*
X97453346Y-89170971D01*
X97327971Y-89296346D01*
X97234886Y-89447259D01*
X97234884Y-89447264D01*
X97179113Y-89615572D01*
X97168500Y-89719447D01*
X95543673Y-89719447D01*
X95447524Y-89513254D01*
X95447523Y-89513252D01*
X95447523Y-89513251D01*
X95316198Y-89325700D01*
X95154300Y-89163802D01*
X94966749Y-89032477D01*
X94966745Y-89032475D01*
X94919600Y-89010491D01*
X94867160Y-88964319D01*
X94848008Y-88897125D01*
X94868224Y-88830244D01*
X94913551Y-88788751D01*
X94969493Y-88758849D01*
X94969521Y-88758832D01*
X95100530Y-88671295D01*
X95100536Y-88671291D01*
X95177064Y-88608485D01*
X95288485Y-88497064D01*
X95351291Y-88420536D01*
X95351295Y-88420530D01*
X95438832Y-88289521D01*
X95438844Y-88289501D01*
X95485509Y-88202198D01*
X95545814Y-88056612D01*
X95574555Y-87961864D01*
X95605298Y-87807302D01*
X95605298Y-87807299D01*
X95615000Y-87708789D01*
X95615000Y-87551210D01*
X95605298Y-87452700D01*
X95605298Y-87452697D01*
X95574555Y-87298135D01*
X95545814Y-87203387D01*
X95485509Y-87057801D01*
X95438844Y-86970498D01*
X95438832Y-86970478D01*
X95351295Y-86839469D01*
X95351291Y-86839463D01*
X95288485Y-86762935D01*
X95177064Y-86651514D01*
X95137991Y-86619447D01*
X97168500Y-86619447D01*
X97168500Y-87520537D01*
X97168501Y-87520553D01*
X97179113Y-87624427D01*
X97234884Y-87792735D01*
X97234886Y-87792740D01*
X97259801Y-87833133D01*
X97327970Y-87943652D01*
X97453348Y-88069030D01*
X97604262Y-88162115D01*
X97772574Y-88217887D01*
X97876455Y-88228500D01*
X99227544Y-88228499D01*
X99331426Y-88217887D01*
X99499738Y-88162115D01*
X99650652Y-88069030D01*
X99776030Y-87943652D01*
X99869115Y-87792738D01*
X99924887Y-87624426D01*
X99935500Y-87520545D01*
X99935499Y-86619456D01*
X99924887Y-86515574D01*
X99869115Y-86347262D01*
X99776030Y-86196348D01*
X99650652Y-86070970D01*
X99499738Y-85977885D01*
X99368196Y-85934297D01*
X99331427Y-85922113D01*
X99227552Y-85911500D01*
X99227545Y-85911500D01*
X99053500Y-85911500D01*
X98986461Y-85891815D01*
X98940706Y-85839011D01*
X98929500Y-85787500D01*
X98929500Y-83893271D01*
X98949185Y-83826232D01*
X99001989Y-83780477D01*
X99015173Y-83775343D01*
X99054290Y-83762634D01*
X99237803Y-83669129D01*
X99404430Y-83548068D01*
X99550068Y-83402430D01*
X99671129Y-83235803D01*
X99764634Y-83052290D01*
X99828280Y-82856408D01*
X99860500Y-82652981D01*
X99860500Y-82447019D01*
X99833826Y-82278608D01*
X99828280Y-82243591D01*
X99769469Y-82062591D01*
X99764634Y-82047710D01*
X99764632Y-82047707D01*
X99764632Y-82047705D01*
X99730165Y-81980062D01*
X99671129Y-81864197D01*
X99579321Y-81737833D01*
X99550073Y-81697576D01*
X99550069Y-81697571D01*
X99404428Y-81551930D01*
X99404423Y-81551926D01*
X99237806Y-81430873D01*
X99237805Y-81430872D01*
X99237803Y-81430871D01*
X99171198Y-81396934D01*
X99054294Y-81337367D01*
X98858408Y-81273719D01*
X98682794Y-81245905D01*
X98654981Y-81241500D01*
X98449019Y-81241500D01*
X98424550Y-81245375D01*
X98245591Y-81273719D01*
X98049705Y-81337367D01*
X97866193Y-81430873D01*
X97699576Y-81551926D01*
X97699571Y-81551930D01*
X97553930Y-81697571D01*
X97553926Y-81697576D01*
X97432873Y-81864193D01*
X97339367Y-82047705D01*
X97275719Y-82243591D01*
X97243500Y-82447019D01*
X97243500Y-82652980D01*
X97275719Y-82856408D01*
X97339367Y-83052294D01*
X97389506Y-83150695D01*
X97429092Y-83228387D01*
X97432873Y-83235806D01*
X97553926Y-83402423D01*
X97553930Y-83402428D01*
X97699571Y-83548069D01*
X97699576Y-83548073D01*
X97807374Y-83626392D01*
X97866197Y-83669129D01*
X98049710Y-83762634D01*
X98088817Y-83775340D01*
X98146491Y-83814775D01*
X98173691Y-83879133D01*
X98174500Y-83893271D01*
X98174500Y-85787500D01*
X98154815Y-85854539D01*
X98102011Y-85900294D01*
X98050501Y-85911500D01*
X97876463Y-85911500D01*
X97876446Y-85911501D01*
X97772572Y-85922113D01*
X97604264Y-85977884D01*
X97604259Y-85977886D01*
X97453346Y-86070971D01*
X97327971Y-86196346D01*
X97234886Y-86347259D01*
X97234884Y-86347264D01*
X97179113Y-86515572D01*
X97168500Y-86619447D01*
X95137991Y-86619447D01*
X95100536Y-86588708D01*
X95100530Y-86588704D01*
X94969521Y-86501167D01*
X94969500Y-86501155D01*
X94913550Y-86471248D01*
X94863706Y-86422285D01*
X94848246Y-86354147D01*
X94872078Y-86288467D01*
X94919597Y-86249510D01*
X94966749Y-86227523D01*
X95154300Y-86096198D01*
X95316198Y-85934300D01*
X95447523Y-85746749D01*
X95544284Y-85539243D01*
X95603543Y-85318087D01*
X95618500Y-85147127D01*
X95618499Y-85032874D01*
X95603543Y-84861913D01*
X95544284Y-84640757D01*
X95532931Y-84616411D01*
X95447524Y-84433254D01*
X95447523Y-84433252D01*
X95447523Y-84433251D01*
X95316198Y-84245700D01*
X95154300Y-84083802D01*
X94966749Y-83952477D01*
X94923655Y-83932382D01*
X94871215Y-83886210D01*
X94852063Y-83819017D01*
X94872278Y-83752136D01*
X94923655Y-83707618D01*
X94926882Y-83706112D01*
X94966749Y-83687523D01*
X95154300Y-83556198D01*
X95316198Y-83394300D01*
X95447523Y-83206749D01*
X95544284Y-82999243D01*
X95603543Y-82778087D01*
X95618500Y-82607127D01*
X95618499Y-82492874D01*
X95603543Y-82321913D01*
X95544284Y-82100757D01*
X95519548Y-82047711D01*
X95459431Y-81918789D01*
X95447523Y-81893251D01*
X95316198Y-81705700D01*
X95154300Y-81543802D01*
X94966749Y-81412477D01*
X94930541Y-81395593D01*
X94759249Y-81315718D01*
X94759238Y-81315714D01*
X94538089Y-81256457D01*
X94538081Y-81256456D01*
X94367130Y-81241500D01*
X94367127Y-81241500D01*
X92812986Y-81241500D01*
X92812981Y-81241500D01*
X92607019Y-81241500D01*
X92607014Y-81241500D01*
X92554706Y-81249785D01*
X92554705Y-81249785D01*
X92550418Y-81250463D01*
X92481913Y-81256457D01*
X92437589Y-81268332D01*
X92431178Y-81269348D01*
X92431164Y-81269352D01*
X92403595Y-81273719D01*
X92341329Y-81293950D01*
X92335108Y-81295792D01*
X92260768Y-81315712D01*
X92260751Y-81315718D01*
X92236400Y-81327072D01*
X92234493Y-81327942D01*
X92228531Y-81330599D01*
X92207710Y-81337366D01*
X92168213Y-81357490D01*
X92165267Y-81358804D01*
X92133710Y-81363050D01*
X92102400Y-81368930D01*
X92099316Y-81367678D01*
X92096021Y-81368122D01*
X92067167Y-81354628D01*
X92037660Y-81342652D01*
X92033365Y-81338822D01*
X92032730Y-81338525D01*
X92032342Y-81337909D01*
X92027095Y-81333230D01*
X91466792Y-80772927D01*
X91466790Y-80772925D01*
X91426886Y-80749886D01*
X91378672Y-80699319D01*
X91365450Y-80630712D01*
X91391418Y-80565847D01*
X91448333Y-80525320D01*
X91488888Y-80518500D01*
X91899793Y-80518500D01*
X97834754Y-80518500D01*
X97841243Y-80518669D01*
G37*
%TD.AperFunction*%
%TA.AperFunction,Conductor*%
G36*
X81952378Y-142807223D02*
G01*
X81965340Y-142812921D01*
X82084562Y-142873668D01*
X82266068Y-142932643D01*
X82266069Y-142932643D01*
X82266072Y-142932644D01*
X82454574Y-142962500D01*
X82454575Y-142962500D01*
X82645425Y-142962500D01*
X82645426Y-142962500D01*
X82833928Y-142932644D01*
X82833942Y-142932639D01*
X82838667Y-142931506D01*
X82839130Y-142933434D01*
X82900577Y-142931638D01*
X82956815Y-142963904D01*
X84035941Y-144043030D01*
X84106970Y-144114059D01*
X84199775Y-144152500D01*
X90494049Y-144152500D01*
X90561088Y-144172185D01*
X90581730Y-144188819D01*
X93030941Y-146638030D01*
X93101970Y-146709059D01*
X93194775Y-146747500D01*
X96597500Y-146747500D01*
X96664539Y-146767185D01*
X96710294Y-146819989D01*
X96721500Y-146871500D01*
X96721500Y-147149007D01*
X96724437Y-147186329D01*
X96724438Y-147186335D01*
X96770853Y-147346096D01*
X96770855Y-147346101D01*
X96855544Y-147489303D01*
X96855551Y-147489312D01*
X96973187Y-147606948D01*
X96973196Y-147606955D01*
X96998448Y-147621889D01*
X97116399Y-147691645D01*
X97158530Y-147703885D01*
X97276164Y-147738061D01*
X97276167Y-147738061D01*
X97276169Y-147738062D01*
X97313498Y-147741000D01*
X97313504Y-147741000D01*
X97746496Y-147741000D01*
X97746502Y-147741000D01*
X97783831Y-147738062D01*
X97783833Y-147738061D01*
X97783835Y-147738061D01*
X97843007Y-147720870D01*
X97912876Y-147721069D01*
X97971546Y-147759011D01*
X98000390Y-147822649D01*
X97990249Y-147891779D01*
X97965283Y-147927627D01*
X97681730Y-148211181D01*
X97620407Y-148244666D01*
X97594049Y-148247500D01*
X73224951Y-148247500D01*
X73157912Y-148227815D01*
X73137270Y-148211181D01*
X72109926Y-147183837D01*
X72076441Y-147122514D01*
X72081425Y-147052822D01*
X72087118Y-147039869D01*
X72149515Y-146917408D01*
X72197490Y-146866613D01*
X72265311Y-146849818D01*
X72331446Y-146872356D01*
X72370484Y-146917408D01*
X72453634Y-147080598D01*
X72570070Y-147240858D01*
X72710142Y-147380930D01*
X72870402Y-147497366D01*
X72942810Y-147534260D01*
X73046898Y-147587296D01*
X73046900Y-147587296D01*
X73046903Y-147587298D01*
X73107395Y-147606953D01*
X73235299Y-147648512D01*
X73430949Y-147679500D01*
X73430954Y-147679500D01*
X73629051Y-147679500D01*
X73824700Y-147648512D01*
X74013097Y-147587298D01*
X74189598Y-147497366D01*
X74349858Y-147380930D01*
X74489930Y-147240858D01*
X74606366Y-147080598D01*
X74696298Y-146904097D01*
X74743384Y-146759179D01*
X74782820Y-146701507D01*
X74847179Y-146674308D01*
X74861314Y-146673500D01*
X77929223Y-146673500D01*
X77929225Y-146673500D01*
X78022030Y-146635059D01*
X79357089Y-145299999D01*
X82010696Y-145299999D01*
X82010697Y-145300000D01*
X82855025Y-145300000D01*
X82819930Y-145335095D01*
X82773852Y-145414905D01*
X82750000Y-145503922D01*
X82750000Y-145596078D01*
X82773852Y-145685095D01*
X82819930Y-145764905D01*
X82855025Y-145800000D01*
X82010696Y-145800000D01*
X82012454Y-145811093D01*
X82012455Y-145811097D01*
X82066690Y-145978014D01*
X82146368Y-146134390D01*
X82249519Y-146276367D01*
X82249523Y-146276372D01*
X82373627Y-146400476D01*
X82373632Y-146400480D01*
X82515609Y-146503631D01*
X82671983Y-146583309D01*
X82838902Y-146637545D01*
X83012243Y-146665000D01*
X83600000Y-146665000D01*
X83600000Y-145900000D01*
X84100000Y-145900000D01*
X84100000Y-146665000D01*
X84687757Y-146665000D01*
X84861097Y-146637545D01*
X85028016Y-146583309D01*
X85184390Y-146503631D01*
X85326367Y-146400480D01*
X85326372Y-146400476D01*
X85450476Y-146276372D01*
X85450480Y-146276367D01*
X85553631Y-146134390D01*
X85633309Y-145978014D01*
X85687544Y-145811097D01*
X85687545Y-145811093D01*
X85689303Y-145800000D01*
X84844975Y-145800000D01*
X84880070Y-145764905D01*
X84926148Y-145685095D01*
X84950000Y-145596078D01*
X84950000Y-145503922D01*
X84926148Y-145414905D01*
X84880070Y-145335095D01*
X84844975Y-145300000D01*
X85689303Y-145300000D01*
X85689303Y-145299999D01*
X85687545Y-145288906D01*
X85687544Y-145288902D01*
X85633309Y-145121985D01*
X85553631Y-144965609D01*
X85450480Y-144823632D01*
X85450476Y-144823627D01*
X85326372Y-144699523D01*
X85326367Y-144699519D01*
X85184390Y-144596368D01*
X85028016Y-144516690D01*
X84861097Y-144462454D01*
X84687757Y-144435000D01*
X84100000Y-144435000D01*
X84100000Y-145200000D01*
X83600000Y-145200000D01*
X83600000Y-144435000D01*
X83012243Y-144435000D01*
X82838902Y-144462454D01*
X82671983Y-144516690D01*
X82515609Y-144596368D01*
X82373632Y-144699519D01*
X82373627Y-144699523D01*
X82249523Y-144823627D01*
X82249519Y-144823632D01*
X82146368Y-144965609D01*
X82066690Y-145121985D01*
X82012455Y-145288902D01*
X82012454Y-145288906D01*
X82010696Y-145299999D01*
X79357089Y-145299999D01*
X81821365Y-142835722D01*
X81882686Y-142802239D01*
X81952378Y-142807223D01*
G37*
%TD.AperFunction*%
%TA.AperFunction,Conductor*%
G36*
X98471713Y-133536144D02*
G01*
X98501700Y-133542668D01*
X98506715Y-133546422D01*
X98509312Y-133547185D01*
X98529954Y-133563819D01*
X98691943Y-133725808D01*
X98725428Y-133787131D01*
X98725879Y-133837680D01*
X98691500Y-134010516D01*
X98691500Y-134189483D01*
X98726411Y-134364992D01*
X98726413Y-134365000D01*
X98768368Y-134466287D01*
X98775837Y-134535756D01*
X98744562Y-134598236D01*
X98741488Y-134601421D01*
X98402730Y-134940181D01*
X98341407Y-134973666D01*
X98315049Y-134976500D01*
X98263492Y-134976500D01*
X98226170Y-134979437D01*
X98226164Y-134979438D01*
X98066403Y-135025853D01*
X98066398Y-135025855D01*
X97923196Y-135110544D01*
X97923187Y-135110551D01*
X97805551Y-135228187D01*
X97805544Y-135228196D01*
X97720855Y-135371398D01*
X97720853Y-135371403D01*
X97674438Y-135531164D01*
X97674437Y-135531170D01*
X97671500Y-135568492D01*
X97671500Y-136727500D01*
X97668949Y-136736185D01*
X97670238Y-136745147D01*
X97659259Y-136769187D01*
X97651815Y-136794539D01*
X97644974Y-136800466D01*
X97641213Y-136808703D01*
X97618978Y-136822992D01*
X97599011Y-136840294D01*
X97588496Y-136842581D01*
X97582435Y-136846477D01*
X97547500Y-136851500D01*
X97512500Y-136851500D01*
X97445461Y-136831815D01*
X97399706Y-136779011D01*
X97388500Y-136727500D01*
X97388500Y-135568504D01*
X97388500Y-135568498D01*
X97385562Y-135531169D01*
X97373832Y-135490795D01*
X97343370Y-135385941D01*
X97339145Y-135371399D01*
X97254453Y-135228193D01*
X97254451Y-135228191D01*
X97254448Y-135228187D01*
X97136812Y-135110551D01*
X97136803Y-135110544D01*
X96993601Y-135025855D01*
X96993596Y-135025853D01*
X96833835Y-134979438D01*
X96833829Y-134979437D01*
X96796507Y-134976500D01*
X96796502Y-134976500D01*
X96363498Y-134976500D01*
X96363492Y-134976500D01*
X96326170Y-134979437D01*
X96326164Y-134979438D01*
X96166403Y-135025853D01*
X96166398Y-135025855D01*
X96023196Y-135110544D01*
X96023187Y-135110551D01*
X95905551Y-135228187D01*
X95905544Y-135228196D01*
X95820855Y-135371398D01*
X95820853Y-135371403D01*
X95774438Y-135531164D01*
X95774437Y-135531170D01*
X95771500Y-135568492D01*
X95771500Y-135873500D01*
X95768949Y-135882185D01*
X95770238Y-135891147D01*
X95759259Y-135915187D01*
X95751815Y-135940539D01*
X95744974Y-135946466D01*
X95741213Y-135954703D01*
X95718978Y-135968992D01*
X95699011Y-135986294D01*
X95688496Y-135988581D01*
X95682435Y-135992477D01*
X95647500Y-135997500D01*
X95511619Y-135997500D01*
X95444580Y-135977815D01*
X95398825Y-135925011D01*
X95397058Y-135920953D01*
X95355103Y-135819667D01*
X95355102Y-135819664D01*
X95355100Y-135819661D01*
X95355098Y-135819657D01*
X95255678Y-135670865D01*
X95255675Y-135670861D01*
X95129138Y-135544324D01*
X95129134Y-135544321D01*
X94980342Y-135444901D01*
X94980332Y-135444896D01*
X94815000Y-135376413D01*
X94814992Y-135376411D01*
X94639483Y-135341500D01*
X94639479Y-135341500D01*
X94460521Y-135341500D01*
X94460516Y-135341500D01*
X94285007Y-135376411D01*
X94284999Y-135376413D01*
X94119667Y-135444896D01*
X94119657Y-135444901D01*
X93970865Y-135544321D01*
X93970861Y-135544324D01*
X93844324Y-135670861D01*
X93844321Y-135670865D01*
X93744901Y-135819657D01*
X93744896Y-135819667D01*
X93676413Y-135984999D01*
X93676411Y-135985007D01*
X93641500Y-136160516D01*
X93641500Y-136339483D01*
X93676411Y-136514992D01*
X93676413Y-136515000D01*
X93744896Y-136680332D01*
X93744901Y-136680342D01*
X93844321Y-136829134D01*
X93844324Y-136829138D01*
X93970861Y-136955675D01*
X93970865Y-136955678D01*
X94119657Y-137055098D01*
X94119661Y-137055100D01*
X94119664Y-137055102D01*
X94285000Y-137123587D01*
X94435947Y-137153612D01*
X94460516Y-137158499D01*
X94460520Y-137158500D01*
X94460521Y-137158500D01*
X94639480Y-137158500D01*
X94639481Y-137158499D01*
X94815000Y-137123587D01*
X94980336Y-137055102D01*
X95129135Y-136955678D01*
X95255678Y-136829135D01*
X95355102Y-136680336D01*
X95392409Y-136590270D01*
X95397058Y-136579047D01*
X95409601Y-136563481D01*
X95417906Y-136545297D01*
X95431076Y-136536832D01*
X95440899Y-136524644D01*
X95459865Y-136518331D01*
X95476684Y-136507523D01*
X95504246Y-136503560D01*
X95507194Y-136502579D01*
X95511619Y-136502500D01*
X95647500Y-136502500D01*
X95714539Y-136522185D01*
X95760294Y-136574989D01*
X95771500Y-136626500D01*
X95771500Y-136876507D01*
X95774437Y-136913829D01*
X95774438Y-136913835D01*
X95820853Y-137073596D01*
X95820855Y-137073601D01*
X95905544Y-137216803D01*
X95905551Y-137216812D01*
X96023187Y-137334448D01*
X96023191Y-137334451D01*
X96023193Y-137334453D01*
X96166399Y-137419145D01*
X96191251Y-137426365D01*
X96326164Y-137465561D01*
X96326167Y-137465561D01*
X96326169Y-137465562D01*
X96363498Y-137468500D01*
X96597500Y-137468500D01*
X96606185Y-137471050D01*
X96615147Y-137469762D01*
X96639187Y-137480740D01*
X96664539Y-137488185D01*
X96670466Y-137495025D01*
X96678703Y-137498787D01*
X96692992Y-137521021D01*
X96710294Y-137540989D01*
X96712581Y-137551503D01*
X96716477Y-137557565D01*
X96721500Y-137592500D01*
X96721500Y-137721000D01*
X96701815Y-137788039D01*
X96649011Y-137833794D01*
X96597500Y-137845000D01*
X93852273Y-137845000D01*
X93759469Y-137883441D01*
X93759468Y-137883442D01*
X90181730Y-141461181D01*
X90120407Y-141494666D01*
X90094049Y-141497500D01*
X88532947Y-141497500D01*
X88465908Y-141477815D01*
X88420153Y-141425011D01*
X88415016Y-141411818D01*
X88373669Y-141284564D01*
X88363495Y-141264596D01*
X88287023Y-141114512D01*
X88252863Y-141067495D01*
X88174848Y-140960115D01*
X88174844Y-140960110D01*
X88039889Y-140825155D01*
X88039884Y-140825151D01*
X87885491Y-140712979D01*
X87885490Y-140712978D01*
X87885488Y-140712977D01*
X87789903Y-140664274D01*
X87715435Y-140626330D01*
X87689584Y-140617931D01*
X87631909Y-140578494D01*
X87604710Y-140514135D01*
X87616624Y-140445289D01*
X87663868Y-140393813D01*
X87689584Y-140382069D01*
X87715435Y-140373669D01*
X87715435Y-140373668D01*
X87715438Y-140373668D01*
X87885488Y-140287023D01*
X88039891Y-140174843D01*
X88174843Y-140039891D01*
X88287023Y-139885488D01*
X88373668Y-139715438D01*
X88410022Y-139603553D01*
X88432643Y-139533932D01*
X88432643Y-139533931D01*
X88432644Y-139533928D01*
X88462500Y-139345426D01*
X88462500Y-139154574D01*
X88432644Y-138966072D01*
X88432643Y-138966068D01*
X88432643Y-138966067D01*
X88373669Y-138784564D01*
X88373668Y-138784562D01*
X88287023Y-138614512D01*
X88271253Y-138592806D01*
X88174848Y-138460115D01*
X88174844Y-138460110D01*
X88039889Y-138325155D01*
X88039884Y-138325151D01*
X87885491Y-138212979D01*
X87885490Y-138212978D01*
X87885488Y-138212977D01*
X87800463Y-138169654D01*
X87715435Y-138126330D01*
X87533931Y-138067356D01*
X87392551Y-138044964D01*
X87345426Y-138037500D01*
X87154574Y-138037500D01*
X87100908Y-138046000D01*
X86966070Y-138067356D01*
X86966067Y-138067356D01*
X86784564Y-138126330D01*
X86614508Y-138212979D01*
X86460115Y-138325151D01*
X86460110Y-138325155D01*
X86325155Y-138460110D01*
X86325151Y-138460115D01*
X86212979Y-138614508D01*
X86126330Y-138784564D01*
X86067356Y-138966067D01*
X86067356Y-138966070D01*
X86037500Y-139154574D01*
X86037500Y-139345425D01*
X86067356Y-139533929D01*
X86067356Y-139533932D01*
X86126330Y-139715435D01*
X86148782Y-139759498D01*
X86210712Y-139881043D01*
X86212979Y-139885491D01*
X86325151Y-140039884D01*
X86325155Y-140039889D01*
X86460110Y-140174844D01*
X86460115Y-140174848D01*
X86558201Y-140246111D01*
X86614512Y-140287023D01*
X86784562Y-140373668D01*
X86794153Y-140376784D01*
X86810416Y-140382069D01*
X86868091Y-140421507D01*
X86895289Y-140485866D01*
X86883374Y-140554712D01*
X86836130Y-140606188D01*
X86810416Y-140617931D01*
X86784560Y-140626332D01*
X86665338Y-140687078D01*
X86596669Y-140699974D01*
X86531929Y-140673697D01*
X86521363Y-140664274D01*
X82493030Y-136635941D01*
X82400226Y-136597500D01*
X82400225Y-136597500D01*
X82378072Y-136597500D01*
X82311033Y-136577815D01*
X82265278Y-136525011D01*
X82255334Y-136455853D01*
X82284359Y-136392297D01*
X82290391Y-136385819D01*
X82302572Y-136373638D01*
X82316206Y-136360004D01*
X82441894Y-136187009D01*
X82441896Y-136187004D01*
X82444270Y-136183132D01*
X82496080Y-136136254D01*
X82565009Y-136124829D01*
X82629173Y-136152483D01*
X82655730Y-136183132D01*
X82658103Y-136187005D01*
X82658106Y-136187009D01*
X82783794Y-136360004D01*
X82934996Y-136511206D01*
X83107991Y-136636894D01*
X83193243Y-136680332D01*
X83298516Y-136733972D01*
X83298519Y-136733973D01*
X83400200Y-136767010D01*
X83501884Y-136800049D01*
X83713084Y-136833500D01*
X83713085Y-136833500D01*
X83926915Y-136833500D01*
X83926916Y-136833500D01*
X84138116Y-136800049D01*
X84341483Y-136733972D01*
X84532009Y-136636894D01*
X84705004Y-136511206D01*
X84856206Y-136360004D01*
X84981894Y-136187009D01*
X84981896Y-136187004D01*
X84984270Y-136183132D01*
X85036080Y-136136254D01*
X85105009Y-136124829D01*
X85169173Y-136152483D01*
X85195730Y-136183132D01*
X85198103Y-136187005D01*
X85198106Y-136187009D01*
X85323794Y-136360004D01*
X85474996Y-136511206D01*
X85647991Y-136636894D01*
X85733243Y-136680332D01*
X85838516Y-136733972D01*
X85838519Y-136733973D01*
X85940200Y-136767010D01*
X86041884Y-136800049D01*
X86253084Y-136833500D01*
X86253085Y-136833500D01*
X86466915Y-136833500D01*
X86466916Y-136833500D01*
X86678116Y-136800049D01*
X86881483Y-136733972D01*
X87072009Y-136636894D01*
X87245004Y-136511206D01*
X87396206Y-136360004D01*
X87521894Y-136187009D01*
X87521896Y-136187004D01*
X87524270Y-136183132D01*
X87576080Y-136136254D01*
X87645009Y-136124829D01*
X87709173Y-136152483D01*
X87735730Y-136183132D01*
X87738103Y-136187005D01*
X87738106Y-136187009D01*
X87863794Y-136360004D01*
X88014996Y-136511206D01*
X88187991Y-136636894D01*
X88273243Y-136680332D01*
X88378516Y-136733972D01*
X88378519Y-136733973D01*
X88480200Y-136767010D01*
X88581884Y-136800049D01*
X88793084Y-136833500D01*
X88793085Y-136833500D01*
X89006915Y-136833500D01*
X89006916Y-136833500D01*
X89218116Y-136800049D01*
X89421483Y-136733972D01*
X89612009Y-136636894D01*
X89785004Y-136511206D01*
X89936206Y-136360004D01*
X90061894Y-136187009D01*
X90064283Y-136182319D01*
X90112254Y-136131522D01*
X90180074Y-136114724D01*
X90246210Y-136137258D01*
X90282196Y-136178783D01*
X90282829Y-136178396D01*
X90285167Y-136182211D01*
X90285251Y-136182308D01*
X90285371Y-136182545D01*
X90285373Y-136182547D01*
X90324728Y-136236716D01*
X90957037Y-135604408D01*
X90974075Y-135667993D01*
X91039901Y-135782007D01*
X91132993Y-135875099D01*
X91247007Y-135940925D01*
X91310590Y-135957962D01*
X90678282Y-136590269D01*
X90678282Y-136590270D01*
X90732449Y-136629624D01*
X90921782Y-136726095D01*
X91123870Y-136791757D01*
X91333754Y-136825000D01*
X91546246Y-136825000D01*
X91756127Y-136791757D01*
X91756130Y-136791757D01*
X91958217Y-136726095D01*
X92147554Y-136629622D01*
X92201716Y-136590270D01*
X92201717Y-136590270D01*
X91569408Y-135957962D01*
X91632993Y-135940925D01*
X91747007Y-135875099D01*
X91840099Y-135782007D01*
X91905925Y-135667993D01*
X91922962Y-135604408D01*
X92555270Y-136236717D01*
X92555270Y-136236716D01*
X92594622Y-136182554D01*
X92691095Y-135993217D01*
X92756757Y-135791130D01*
X92756757Y-135791127D01*
X92790000Y-135581246D01*
X92790000Y-135368753D01*
X92756757Y-135158872D01*
X92756757Y-135158869D01*
X92691095Y-134956782D01*
X92594624Y-134767449D01*
X92555270Y-134713282D01*
X92555269Y-134713282D01*
X91922962Y-135345590D01*
X91905925Y-135282007D01*
X91840099Y-135167993D01*
X91747007Y-135074901D01*
X91632993Y-135009075D01*
X91569409Y-134992037D01*
X92201716Y-134359728D01*
X92147550Y-134320375D01*
X91958217Y-134223904D01*
X91756129Y-134158242D01*
X91546246Y-134125000D01*
X91333754Y-134125000D01*
X91123872Y-134158242D01*
X91123869Y-134158242D01*
X90921782Y-134223904D01*
X90732439Y-134320380D01*
X90678282Y-134359727D01*
X90678282Y-134359728D01*
X91310591Y-134992037D01*
X91247007Y-135009075D01*
X91132993Y-135074901D01*
X91039901Y-135167993D01*
X90974075Y-135282007D01*
X90957037Y-135345591D01*
X90324728Y-134713282D01*
X90324727Y-134713282D01*
X90285380Y-134767440D01*
X90285374Y-134767449D01*
X90285246Y-134767702D01*
X90285172Y-134767780D01*
X90282838Y-134771590D01*
X90282036Y-134771099D01*
X90237264Y-134818490D01*
X90169441Y-134835275D01*
X90103309Y-134812728D01*
X90064283Y-134767680D01*
X90061894Y-134762991D01*
X89936206Y-134589996D01*
X89785004Y-134438794D01*
X89612009Y-134313106D01*
X89499300Y-134255678D01*
X89421485Y-134216029D01*
X89421484Y-134216028D01*
X89421483Y-134216028D01*
X89363181Y-134197084D01*
X89305506Y-134157647D01*
X89278308Y-134093289D01*
X89277500Y-134079154D01*
X89277500Y-134007727D01*
X89297185Y-133940688D01*
X89313819Y-133920046D01*
X89670046Y-133563819D01*
X89731369Y-133530334D01*
X89757727Y-133527500D01*
X98442273Y-133527500D01*
X98471713Y-133536144D01*
G37*
%TD.AperFunction*%
%TA.AperFunction,Conductor*%
G36*
X82261088Y-137122185D02*
G01*
X82281730Y-137138819D01*
X82968730Y-137825819D01*
X83002215Y-137887142D01*
X82997231Y-137956834D01*
X82955359Y-138012767D01*
X82889895Y-138037184D01*
X82881049Y-138037500D01*
X82854574Y-138037500D01*
X82800908Y-138046000D01*
X82666070Y-138067356D01*
X82666067Y-138067356D01*
X82484564Y-138126330D01*
X82314508Y-138212979D01*
X82160115Y-138325151D01*
X82160110Y-138325155D01*
X82025155Y-138460110D01*
X82025151Y-138460115D01*
X81912979Y-138614508D01*
X81826331Y-138784563D01*
X81813462Y-138824170D01*
X81774024Y-138881845D01*
X81709665Y-138909043D01*
X81640819Y-138897128D01*
X81589343Y-138849884D01*
X81577600Y-138824169D01*
X81565789Y-138787821D01*
X81479752Y-138618966D01*
X81460745Y-138592806D01*
X80892137Y-139161414D01*
X80869333Y-139076306D01*
X80810090Y-138973694D01*
X80726306Y-138889910D01*
X80623694Y-138830667D01*
X80538584Y-138807861D01*
X81107193Y-138239253D01*
X81081033Y-138220246D01*
X80912178Y-138134210D01*
X80731937Y-138075645D01*
X80544762Y-138046000D01*
X80355238Y-138046000D01*
X80168062Y-138075645D01*
X79987821Y-138134210D01*
X79818969Y-138220245D01*
X79792806Y-138239253D01*
X80361415Y-138807861D01*
X80276306Y-138830667D01*
X80173694Y-138889910D01*
X80089910Y-138973694D01*
X80030667Y-139076306D01*
X80007861Y-139161414D01*
X79439253Y-138592806D01*
X79420245Y-138618969D01*
X79334210Y-138787821D01*
X79275645Y-138968062D01*
X79246000Y-139155237D01*
X79246000Y-139344762D01*
X79275645Y-139531937D01*
X79334210Y-139712178D01*
X79420246Y-139881033D01*
X79439253Y-139907192D01*
X79439253Y-139907193D01*
X80007861Y-139338584D01*
X80030667Y-139423694D01*
X80089910Y-139526306D01*
X80173694Y-139610090D01*
X80276306Y-139669333D01*
X80361414Y-139692137D01*
X79792806Y-140260745D01*
X79792806Y-140260746D01*
X79818966Y-140279752D01*
X79987821Y-140365789D01*
X80024169Y-140377600D01*
X80081845Y-140417038D01*
X80109043Y-140481396D01*
X80097128Y-140550243D01*
X80049884Y-140601718D01*
X80024170Y-140613462D01*
X79984563Y-140626331D01*
X79814508Y-140712979D01*
X79660115Y-140825151D01*
X79660110Y-140825155D01*
X79525155Y-140960110D01*
X79525151Y-140960115D01*
X79412979Y-141114507D01*
X79406720Y-141126793D01*
X79358746Y-141177590D01*
X79296234Y-141194500D01*
X74861314Y-141194500D01*
X74794275Y-141174815D01*
X74748520Y-141122011D01*
X74743387Y-141108830D01*
X74696298Y-140963903D01*
X74606366Y-140787402D01*
X74489930Y-140627142D01*
X74349858Y-140487070D01*
X74189598Y-140370634D01*
X74152281Y-140351620D01*
X74013101Y-140280703D01*
X73824700Y-140219487D01*
X73629051Y-140188500D01*
X73629046Y-140188500D01*
X73430954Y-140188500D01*
X73430949Y-140188500D01*
X73235299Y-140219487D01*
X73046898Y-140280703D01*
X72870401Y-140370634D01*
X72710135Y-140487075D01*
X72707027Y-140489730D01*
X72643264Y-140518298D01*
X72574179Y-140507857D01*
X72521705Y-140461724D01*
X72502500Y-140395436D01*
X72502500Y-137401563D01*
X72522185Y-137334524D01*
X72574989Y-137288769D01*
X72644147Y-137278825D01*
X72707035Y-137307276D01*
X72710138Y-137309926D01*
X72710142Y-137309930D01*
X72870402Y-137426366D01*
X72942810Y-137463260D01*
X73046898Y-137516296D01*
X73046900Y-137516296D01*
X73046903Y-137516298D01*
X73122894Y-137540989D01*
X73235299Y-137577512D01*
X73430949Y-137608500D01*
X73430954Y-137608500D01*
X73629051Y-137608500D01*
X73824700Y-137577512D01*
X73852374Y-137568520D01*
X74013097Y-137516298D01*
X74189598Y-137426366D01*
X74349858Y-137309930D01*
X74489930Y-137169858D01*
X74501734Y-137153612D01*
X74557065Y-137110948D01*
X74602050Y-137102500D01*
X82194049Y-137102500D01*
X82261088Y-137122185D01*
G37*
%TD.AperFunction*%
%TA.AperFunction,Conductor*%
G36*
X81460745Y-139907193D02*
G01*
X81460746Y-139907192D01*
X81479746Y-139881043D01*
X81479756Y-139881027D01*
X81565787Y-139712184D01*
X81565788Y-139712183D01*
X81577600Y-139675830D01*
X81617037Y-139618155D01*
X81681395Y-139590956D01*
X81750242Y-139602870D01*
X81801718Y-139650114D01*
X81813462Y-139675830D01*
X81826330Y-139715435D01*
X81848782Y-139759498D01*
X81910712Y-139881043D01*
X81912979Y-139885491D01*
X81996620Y-140000615D01*
X82020100Y-140066422D01*
X82004274Y-140134475D01*
X81954168Y-140183170D01*
X81896302Y-140197500D01*
X81699773Y-140197500D01*
X81606969Y-140235941D01*
X81606968Y-140235942D01*
X81178635Y-140664274D01*
X81159123Y-140674928D01*
X81142298Y-140689464D01*
X81129051Y-140691348D01*
X81117312Y-140697759D01*
X81095138Y-140696173D01*
X81073125Y-140699305D01*
X81054022Y-140693232D01*
X81047620Y-140692775D01*
X81039275Y-140689311D01*
X81036938Y-140688239D01*
X80915438Y-140626332D01*
X80869000Y-140611243D01*
X80862469Y-140608249D01*
X80841300Y-140589851D01*
X80818155Y-140574025D01*
X80815289Y-140567245D01*
X80809733Y-140562416D01*
X80801871Y-140535495D01*
X80790956Y-140509666D01*
X80792211Y-140502412D01*
X80790148Y-140495347D01*
X80798087Y-140468454D01*
X80802870Y-140440820D01*
X80807847Y-140435396D01*
X80809932Y-140428337D01*
X80831154Y-140410002D01*
X80850115Y-140389344D01*
X80860621Y-140384545D01*
X80862804Y-140382660D01*
X80865631Y-140382257D01*
X80875830Y-140377600D01*
X80912183Y-140365788D01*
X80912184Y-140365787D01*
X81081027Y-140279756D01*
X81081043Y-140279746D01*
X81107192Y-140260746D01*
X81107193Y-140260745D01*
X80538585Y-139692137D01*
X80623694Y-139669333D01*
X80726306Y-139610090D01*
X80810090Y-139526306D01*
X80869333Y-139423694D01*
X80892137Y-139338585D01*
X81460745Y-139907193D01*
G37*
%TD.AperFunction*%
%TD*%
M02*
