%TF.GenerationSoftware,KiCad,Pcbnew,9.0.6*%
%TF.CreationDate,2025-11-18T00:54:51+10:00*%
%TF.ProjectId,PicoX68Key,5069636f-5836-4384-9b65-792e6b696361,rev?*%
%TF.SameCoordinates,Original*%
%TF.FileFunction,Legend,Bot*%
%TF.FilePolarity,Positive*%
%FSLAX46Y46*%
G04 Gerber Fmt 4.6, Leading zero omitted, Abs format (unit mm)*
G04 Created by KiCad (PCBNEW 9.0.6) date 2025-11-18 00:54:51*
%MOMM*%
%LPD*%
G01*
G04 APERTURE LIST*
%ADD10C,0.150000*%
G04 APERTURE END LIST*
D10*
X78150000Y-130150000D02*
X84600000Y-130150000D01*
X79219819Y-130686779D02*
X78219819Y-130686779D01*
X78219819Y-130686779D02*
X78934104Y-131020112D01*
X78934104Y-131020112D02*
X78219819Y-131353445D01*
X78219819Y-131353445D02*
X79219819Y-131353445D01*
X78219819Y-132020112D02*
X78219819Y-132210588D01*
X78219819Y-132210588D02*
X78267438Y-132305826D01*
X78267438Y-132305826D02*
X78362676Y-132401064D01*
X78362676Y-132401064D02*
X78553152Y-132448683D01*
X78553152Y-132448683D02*
X78886485Y-132448683D01*
X78886485Y-132448683D02*
X79076961Y-132401064D01*
X79076961Y-132401064D02*
X79172200Y-132305826D01*
X79172200Y-132305826D02*
X79219819Y-132210588D01*
X79219819Y-132210588D02*
X79219819Y-132020112D01*
X79219819Y-132020112D02*
X79172200Y-131924874D01*
X79172200Y-131924874D02*
X79076961Y-131829636D01*
X79076961Y-131829636D02*
X78886485Y-131782017D01*
X78886485Y-131782017D02*
X78553152Y-131782017D01*
X78553152Y-131782017D02*
X78362676Y-131829636D01*
X78362676Y-131829636D02*
X78267438Y-131924874D01*
X78267438Y-131924874D02*
X78219819Y-132020112D01*
X79172200Y-132829636D02*
X79219819Y-132972493D01*
X79219819Y-132972493D02*
X79219819Y-133210588D01*
X79219819Y-133210588D02*
X79172200Y-133305826D01*
X79172200Y-133305826D02*
X79124580Y-133353445D01*
X79124580Y-133353445D02*
X79029342Y-133401064D01*
X79029342Y-133401064D02*
X78934104Y-133401064D01*
X78934104Y-133401064D02*
X78838866Y-133353445D01*
X78838866Y-133353445D02*
X78791247Y-133305826D01*
X78791247Y-133305826D02*
X78743628Y-133210588D01*
X78743628Y-133210588D02*
X78696009Y-133020112D01*
X78696009Y-133020112D02*
X78648390Y-132924874D01*
X78648390Y-132924874D02*
X78600771Y-132877255D01*
X78600771Y-132877255D02*
X78505533Y-132829636D01*
X78505533Y-132829636D02*
X78410295Y-132829636D01*
X78410295Y-132829636D02*
X78315057Y-132877255D01*
X78315057Y-132877255D02*
X78267438Y-132924874D01*
X78267438Y-132924874D02*
X78219819Y-133020112D01*
X78219819Y-133020112D02*
X78219819Y-133258207D01*
X78219819Y-133258207D02*
X78267438Y-133401064D01*
X79219819Y-133829636D02*
X78219819Y-133829636D01*
X84224580Y-132858207D02*
X84272200Y-132810588D01*
X84272200Y-132810588D02*
X84319819Y-132667731D01*
X84319819Y-132667731D02*
X84319819Y-132572493D01*
X84319819Y-132572493D02*
X84272200Y-132429636D01*
X84272200Y-132429636D02*
X84176961Y-132334398D01*
X84176961Y-132334398D02*
X84081723Y-132286779D01*
X84081723Y-132286779D02*
X83891247Y-132239160D01*
X83891247Y-132239160D02*
X83748390Y-132239160D01*
X83748390Y-132239160D02*
X83557914Y-132286779D01*
X83557914Y-132286779D02*
X83462676Y-132334398D01*
X83462676Y-132334398D02*
X83367438Y-132429636D01*
X83367438Y-132429636D02*
X83319819Y-132572493D01*
X83319819Y-132572493D02*
X83319819Y-132667731D01*
X83319819Y-132667731D02*
X83367438Y-132810588D01*
X83367438Y-132810588D02*
X83415057Y-132858207D01*
X84272200Y-133239160D02*
X84319819Y-133382017D01*
X84319819Y-133382017D02*
X84319819Y-133620112D01*
X84319819Y-133620112D02*
X84272200Y-133715350D01*
X84272200Y-133715350D02*
X84224580Y-133762969D01*
X84224580Y-133762969D02*
X84129342Y-133810588D01*
X84129342Y-133810588D02*
X84034104Y-133810588D01*
X84034104Y-133810588D02*
X83938866Y-133762969D01*
X83938866Y-133762969D02*
X83891247Y-133715350D01*
X83891247Y-133715350D02*
X83843628Y-133620112D01*
X83843628Y-133620112D02*
X83796009Y-133429636D01*
X83796009Y-133429636D02*
X83748390Y-133334398D01*
X83748390Y-133334398D02*
X83700771Y-133286779D01*
X83700771Y-133286779D02*
X83605533Y-133239160D01*
X83605533Y-133239160D02*
X83510295Y-133239160D01*
X83510295Y-133239160D02*
X83415057Y-133286779D01*
X83415057Y-133286779D02*
X83367438Y-133334398D01*
X83367438Y-133334398D02*
X83319819Y-133429636D01*
X83319819Y-133429636D02*
X83319819Y-133667731D01*
X83319819Y-133667731D02*
X83367438Y-133810588D01*
X75719819Y-132912969D02*
X75719819Y-132436779D01*
X75719819Y-132436779D02*
X76196009Y-132389160D01*
X76196009Y-132389160D02*
X76148390Y-132436779D01*
X76148390Y-132436779D02*
X76100771Y-132532017D01*
X76100771Y-132532017D02*
X76100771Y-132770112D01*
X76100771Y-132770112D02*
X76148390Y-132865350D01*
X76148390Y-132865350D02*
X76196009Y-132912969D01*
X76196009Y-132912969D02*
X76291247Y-132960588D01*
X76291247Y-132960588D02*
X76529342Y-132960588D01*
X76529342Y-132960588D02*
X76624580Y-132912969D01*
X76624580Y-132912969D02*
X76672200Y-132865350D01*
X76672200Y-132865350D02*
X76719819Y-132770112D01*
X76719819Y-132770112D02*
X76719819Y-132532017D01*
X76719819Y-132532017D02*
X76672200Y-132436779D01*
X76672200Y-132436779D02*
X76624580Y-132389160D01*
X75719819Y-133246303D02*
X76719819Y-133579636D01*
X76719819Y-133579636D02*
X75719819Y-133912969D01*
X88369819Y-130741541D02*
X88369819Y-131360588D01*
X88369819Y-131360588D02*
X88750771Y-131027255D01*
X88750771Y-131027255D02*
X88750771Y-131170112D01*
X88750771Y-131170112D02*
X88798390Y-131265350D01*
X88798390Y-131265350D02*
X88846009Y-131312969D01*
X88846009Y-131312969D02*
X88941247Y-131360588D01*
X88941247Y-131360588D02*
X89179342Y-131360588D01*
X89179342Y-131360588D02*
X89274580Y-131312969D01*
X89274580Y-131312969D02*
X89322200Y-131265350D01*
X89322200Y-131265350D02*
X89369819Y-131170112D01*
X89369819Y-131170112D02*
X89369819Y-130884398D01*
X89369819Y-130884398D02*
X89322200Y-130789160D01*
X89322200Y-130789160D02*
X89274580Y-130741541D01*
X89274580Y-131789160D02*
X89322200Y-131836779D01*
X89322200Y-131836779D02*
X89369819Y-131789160D01*
X89369819Y-131789160D02*
X89322200Y-131741541D01*
X89322200Y-131741541D02*
X89274580Y-131789160D01*
X89274580Y-131789160D02*
X89369819Y-131789160D01*
X88369819Y-132170112D02*
X88369819Y-132789159D01*
X88369819Y-132789159D02*
X88750771Y-132455826D01*
X88750771Y-132455826D02*
X88750771Y-132598683D01*
X88750771Y-132598683D02*
X88798390Y-132693921D01*
X88798390Y-132693921D02*
X88846009Y-132741540D01*
X88846009Y-132741540D02*
X88941247Y-132789159D01*
X88941247Y-132789159D02*
X89179342Y-132789159D01*
X89179342Y-132789159D02*
X89274580Y-132741540D01*
X89274580Y-132741540D02*
X89322200Y-132693921D01*
X89322200Y-132693921D02*
X89369819Y-132598683D01*
X89369819Y-132598683D02*
X89369819Y-132312969D01*
X89369819Y-132312969D02*
X89322200Y-132217731D01*
X89322200Y-132217731D02*
X89274580Y-132170112D01*
X88369819Y-133074874D02*
X89369819Y-133408207D01*
X89369819Y-133408207D02*
X88369819Y-133741540D01*
X91019819Y-132477255D02*
X91019819Y-132572493D01*
X91019819Y-132572493D02*
X91067438Y-132667731D01*
X91067438Y-132667731D02*
X91115057Y-132715350D01*
X91115057Y-132715350D02*
X91210295Y-132762969D01*
X91210295Y-132762969D02*
X91400771Y-132810588D01*
X91400771Y-132810588D02*
X91638866Y-132810588D01*
X91638866Y-132810588D02*
X91829342Y-132762969D01*
X91829342Y-132762969D02*
X91924580Y-132715350D01*
X91924580Y-132715350D02*
X91972200Y-132667731D01*
X91972200Y-132667731D02*
X92019819Y-132572493D01*
X92019819Y-132572493D02*
X92019819Y-132477255D01*
X92019819Y-132477255D02*
X91972200Y-132382017D01*
X91972200Y-132382017D02*
X91924580Y-132334398D01*
X91924580Y-132334398D02*
X91829342Y-132286779D01*
X91829342Y-132286779D02*
X91638866Y-132239160D01*
X91638866Y-132239160D02*
X91400771Y-132239160D01*
X91400771Y-132239160D02*
X91210295Y-132286779D01*
X91210295Y-132286779D02*
X91115057Y-132334398D01*
X91115057Y-132334398D02*
X91067438Y-132382017D01*
X91067438Y-132382017D02*
X91019819Y-132477255D01*
X91019819Y-133096303D02*
X92019819Y-133429636D01*
X92019819Y-133429636D02*
X91019819Y-133762969D01*
X81672200Y-131289160D02*
X81719819Y-131432017D01*
X81719819Y-131432017D02*
X81719819Y-131670112D01*
X81719819Y-131670112D02*
X81672200Y-131765350D01*
X81672200Y-131765350D02*
X81624580Y-131812969D01*
X81624580Y-131812969D02*
X81529342Y-131860588D01*
X81529342Y-131860588D02*
X81434104Y-131860588D01*
X81434104Y-131860588D02*
X81338866Y-131812969D01*
X81338866Y-131812969D02*
X81291247Y-131765350D01*
X81291247Y-131765350D02*
X81243628Y-131670112D01*
X81243628Y-131670112D02*
X81196009Y-131479636D01*
X81196009Y-131479636D02*
X81148390Y-131384398D01*
X81148390Y-131384398D02*
X81100771Y-131336779D01*
X81100771Y-131336779D02*
X81005533Y-131289160D01*
X81005533Y-131289160D02*
X80910295Y-131289160D01*
X80910295Y-131289160D02*
X80815057Y-131336779D01*
X80815057Y-131336779D02*
X80767438Y-131384398D01*
X80767438Y-131384398D02*
X80719819Y-131479636D01*
X80719819Y-131479636D02*
X80719819Y-131717731D01*
X80719819Y-131717731D02*
X80767438Y-131860588D01*
X81624580Y-132860588D02*
X81672200Y-132812969D01*
X81672200Y-132812969D02*
X81719819Y-132670112D01*
X81719819Y-132670112D02*
X81719819Y-132574874D01*
X81719819Y-132574874D02*
X81672200Y-132432017D01*
X81672200Y-132432017D02*
X81576961Y-132336779D01*
X81576961Y-132336779D02*
X81481723Y-132289160D01*
X81481723Y-132289160D02*
X81291247Y-132241541D01*
X81291247Y-132241541D02*
X81148390Y-132241541D01*
X81148390Y-132241541D02*
X80957914Y-132289160D01*
X80957914Y-132289160D02*
X80862676Y-132336779D01*
X80862676Y-132336779D02*
X80767438Y-132432017D01*
X80767438Y-132432017D02*
X80719819Y-132574874D01*
X80719819Y-132574874D02*
X80719819Y-132670112D01*
X80719819Y-132670112D02*
X80767438Y-132812969D01*
X80767438Y-132812969D02*
X80815057Y-132860588D01*
X81719819Y-133765350D02*
X81719819Y-133289160D01*
X81719819Y-133289160D02*
X80719819Y-133289160D01*
X82660839Y-129672200D02*
X82517982Y-129719819D01*
X82517982Y-129719819D02*
X82279887Y-129719819D01*
X82279887Y-129719819D02*
X82184649Y-129672200D01*
X82184649Y-129672200D02*
X82137030Y-129624580D01*
X82137030Y-129624580D02*
X82089411Y-129529342D01*
X82089411Y-129529342D02*
X82089411Y-129434104D01*
X82089411Y-129434104D02*
X82137030Y-129338866D01*
X82137030Y-129338866D02*
X82184649Y-129291247D01*
X82184649Y-129291247D02*
X82279887Y-129243628D01*
X82279887Y-129243628D02*
X82470363Y-129196009D01*
X82470363Y-129196009D02*
X82565601Y-129148390D01*
X82565601Y-129148390D02*
X82613220Y-129100771D01*
X82613220Y-129100771D02*
X82660839Y-129005533D01*
X82660839Y-129005533D02*
X82660839Y-128910295D01*
X82660839Y-128910295D02*
X82613220Y-128815057D01*
X82613220Y-128815057D02*
X82565601Y-128767438D01*
X82565601Y-128767438D02*
X82470363Y-128719819D01*
X82470363Y-128719819D02*
X82232268Y-128719819D01*
X82232268Y-128719819D02*
X82089411Y-128767438D01*
X81660839Y-129719819D02*
X81660839Y-128719819D01*
X81660839Y-128719819D02*
X81279887Y-128719819D01*
X81279887Y-128719819D02*
X81184649Y-128767438D01*
X81184649Y-128767438D02*
X81137030Y-128815057D01*
X81137030Y-128815057D02*
X81089411Y-128910295D01*
X81089411Y-128910295D02*
X81089411Y-129053152D01*
X81089411Y-129053152D02*
X81137030Y-129148390D01*
X81137030Y-129148390D02*
X81184649Y-129196009D01*
X81184649Y-129196009D02*
X81279887Y-129243628D01*
X81279887Y-129243628D02*
X81660839Y-129243628D01*
X80660839Y-129719819D02*
X80660839Y-128719819D01*
X79994173Y-128719819D02*
X79898935Y-128719819D01*
X79898935Y-128719819D02*
X79803697Y-128767438D01*
X79803697Y-128767438D02*
X79756078Y-128815057D01*
X79756078Y-128815057D02*
X79708459Y-128910295D01*
X79708459Y-128910295D02*
X79660840Y-129100771D01*
X79660840Y-129100771D02*
X79660840Y-129338866D01*
X79660840Y-129338866D02*
X79708459Y-129529342D01*
X79708459Y-129529342D02*
X79756078Y-129624580D01*
X79756078Y-129624580D02*
X79803697Y-129672200D01*
X79803697Y-129672200D02*
X79898935Y-129719819D01*
X79898935Y-129719819D02*
X79994173Y-129719819D01*
X79994173Y-129719819D02*
X80089411Y-129672200D01*
X80089411Y-129672200D02*
X80137030Y-129624580D01*
X80137030Y-129624580D02*
X80184649Y-129529342D01*
X80184649Y-129529342D02*
X80232268Y-129338866D01*
X80232268Y-129338866D02*
X80232268Y-129100771D01*
X80232268Y-129100771D02*
X80184649Y-128910295D01*
X80184649Y-128910295D02*
X80137030Y-128815057D01*
X80137030Y-128815057D02*
X80089411Y-128767438D01*
X80089411Y-128767438D02*
X79994173Y-128719819D01*
M02*
