%TF.GenerationSoftware,KiCad,Pcbnew,9.0.6*%
%TF.CreationDate,2025-11-18T00:54:51+10:00*%
%TF.ProjectId,PicoX68Key,5069636f-5836-4384-9b65-792e6b696361,rev?*%
%TF.SameCoordinates,Original*%
%TF.FileFunction,Soldermask,Top*%
%TF.FilePolarity,Negative*%
%FSLAX46Y46*%
G04 Gerber Fmt 4.6, Leading zero omitted, Abs format (unit mm)*
G04 Created by KiCad (PCBNEW 9.0.6) date 2025-11-18 00:54:51*
%MOMM*%
%LPD*%
G01*
G04 APERTURE LIST*
G04 Aperture macros list*
%AMRoundRect*
0 Rectangle with rounded corners*
0 $1 Rounding radius*
0 $2 $3 $4 $5 $6 $7 $8 $9 X,Y pos of 4 corners*
0 Add a 4 corners polygon primitive as box body*
4,1,4,$2,$3,$4,$5,$6,$7,$8,$9,$2,$3,0*
0 Add four circle primitives for the rounded corners*
1,1,$1+$1,$2,$3*
1,1,$1+$1,$4,$5*
1,1,$1+$1,$6,$7*
1,1,$1+$1,$8,$9*
0 Add four rect primitives between the rounded corners*
20,1,$1+$1,$2,$3,$4,$5,0*
20,1,$1+$1,$4,$5,$6,$7,0*
20,1,$1+$1,$6,$7,$8,$9,0*
20,1,$1+$1,$8,$9,$2,$3,0*%
%AMFreePoly0*
4,1,37,0.000000,0.796148,0.078414,0.796148,0.232228,0.765552,0.377117,0.705537,0.507515,0.618408,0.618408,0.507515,0.705537,0.377117,0.765552,0.232228,0.796148,0.078414,0.796148,-0.078414,0.765552,-0.232228,0.705537,-0.377117,0.618408,-0.507515,0.507515,-0.618408,0.377117,-0.705537,0.232228,-0.765552,0.078414,-0.796148,0.000000,-0.796148,0.000000,-0.800000,-2.200000,-0.800000,
-2.203843,-0.796157,-2.239018,-0.796157,-2.311114,-0.766294,-2.366294,-0.711114,-2.396157,-0.639018,-2.396157,-0.603843,-2.400000,-0.600000,-2.400000,0.600000,-2.396157,0.603843,-2.396157,0.639018,-2.366294,0.711114,-2.311114,0.766294,-2.239018,0.796157,-2.203843,0.796157,-2.200000,0.800000,0.000000,0.800000,0.000000,0.796148,0.000000,0.796148,$1*%
%AMFreePoly1*
4,1,37,0.603843,0.796157,0.639018,0.796157,0.711114,0.766294,0.766294,0.711114,0.796157,0.639018,0.796157,0.603843,0.800000,0.600000,0.800000,-0.600000,0.796157,-0.603843,0.796157,-0.639018,0.766294,-0.711114,0.711114,-0.766294,0.639018,-0.796157,0.603843,-0.796157,0.600000,-0.800000,-1.600000,-0.800000,-1.600000,-0.796148,-1.678414,-0.796148,-1.832228,-0.765552,-1.977117,-0.705537,
-2.107515,-0.618408,-2.218408,-0.507515,-2.305537,-0.377117,-2.365552,-0.232228,-2.396148,-0.078414,-2.396148,0.078414,-2.365552,0.232228,-2.305537,0.377117,-2.218408,0.507515,-2.107515,0.618408,-1.977117,0.705537,-1.832228,0.765552,-1.678414,0.796148,-1.600000,0.796148,-1.600000,0.800000,0.600000,0.800000,0.603843,0.796157,0.603843,0.796157,$1*%
%AMFreePoly2*
4,1,37,0.603843,0.796157,0.639018,0.796157,0.711114,0.766294,0.766294,0.711114,0.796157,0.639018,0.796157,0.603843,0.800000,0.600000,0.800000,-0.600000,0.796157,-0.603843,0.796157,-0.639018,0.766294,-0.711114,0.711114,-0.766294,0.639018,-0.796157,0.603843,-0.796157,0.600000,-0.800000,0.000000,-0.800000,0.000000,-0.796148,-0.078414,-0.796148,-0.232228,-0.765552,-0.377117,-0.705537,
-0.507515,-0.618408,-0.618408,-0.507515,-0.705537,-0.377117,-0.765552,-0.232228,-0.796148,-0.078414,-0.796148,0.078414,-0.765552,0.232228,-0.705537,0.377117,-0.618408,0.507515,-0.507515,0.618408,-0.377117,0.705537,-0.232228,0.765552,-0.078414,0.796148,0.000000,0.796148,0.000000,0.800000,0.600000,0.800000,0.603843,0.796157,0.603843,0.796157,$1*%
%AMFreePoly3*
4,1,37,1.600000,0.796148,1.678414,0.796148,1.832228,0.765552,1.977117,0.705537,2.107515,0.618408,2.218408,0.507515,2.305537,0.377117,2.365552,0.232228,2.396148,0.078414,2.396148,-0.078414,2.365552,-0.232228,2.305537,-0.377117,2.218408,-0.507515,2.107515,-0.618408,1.977117,-0.705537,1.832228,-0.765552,1.678414,-0.796148,1.600000,-0.796148,1.600000,-0.800000,-0.600000,-0.800000,
-0.603843,-0.796157,-0.639018,-0.796157,-0.711114,-0.766294,-0.766294,-0.711114,-0.796157,-0.639018,-0.796157,-0.603843,-0.800000,-0.600000,-0.800000,0.600000,-0.796157,0.603843,-0.796157,0.639018,-0.766294,0.711114,-0.711114,0.766294,-0.639018,0.796157,-0.603843,0.796157,-0.600000,0.800000,1.600000,0.800000,1.600000,0.796148,1.600000,0.796148,$1*%
%AMFreePoly4*
4,1,37,0.000000,0.796148,0.078414,0.796148,0.232228,0.765552,0.377117,0.705537,0.507515,0.618408,0.618408,0.507515,0.705537,0.377117,0.765552,0.232228,0.796148,0.078414,0.796148,-0.078414,0.765552,-0.232228,0.705537,-0.377117,0.618408,-0.507515,0.507515,-0.618408,0.377117,-0.705537,0.232228,-0.765552,0.078414,-0.796148,0.000000,-0.796148,0.000000,-0.800000,-0.600000,-0.800000,
-0.603843,-0.796157,-0.639018,-0.796157,-0.711114,-0.766294,-0.766294,-0.711114,-0.796157,-0.639018,-0.796157,-0.603843,-0.800000,-0.600000,-0.800000,0.600000,-0.796157,0.603843,-0.796157,0.639018,-0.766294,0.711114,-0.711114,0.766294,-0.639018,0.796157,-0.603843,0.796157,-0.600000,0.800000,0.000000,0.800000,0.000000,0.796148,0.000000,0.796148,$1*%
G04 Aperture macros list end*
%ADD10R,1.500000X1.500000*%
%ADD11C,1.500000*%
%ADD12RoundRect,0.250000X-0.625000X0.400000X-0.625000X-0.400000X0.625000X-0.400000X0.625000X0.400000X0*%
%ADD13C,1.600000*%
%ADD14RoundRect,0.150000X-0.150000X0.587500X-0.150000X-0.587500X0.150000X-0.587500X0.150000X0.587500X0*%
%ADD15C,2.200000*%
%ADD16C,1.850000*%
%ADD17RoundRect,0.200000X-0.600000X-0.600000X0.600000X-0.600000X0.600000X0.600000X-0.600000X0.600000X0*%
%ADD18FreePoly0,0.000000*%
%ADD19RoundRect,0.800000X-0.800000X-0.000010X0.800000X-0.000010X0.800000X0.000010X-0.800000X0.000010X0*%
%ADD20FreePoly1,0.000000*%
%ADD21FreePoly2,0.000000*%
%ADD22FreePoly3,0.000000*%
%ADD23FreePoly4,0.000000*%
%ADD24R,1.700000X1.700000*%
%ADD25C,1.700000*%
%ADD26RoundRect,0.102000X-0.704000X-0.704000X0.704000X-0.704000X0.704000X0.704000X-0.704000X0.704000X0*%
%ADD27C,1.612000*%
%ADD28O,2.934000X1.434000*%
G04 APERTURE END LIST*
D10*
%TO.C,Q2*%
X68450000Y-141447000D03*
D11*
X70990000Y-141447000D03*
X73530000Y-141447000D03*
%TD*%
D12*
%TO.C,R9*%
X69342000Y-105130000D03*
X69342000Y-108230000D03*
%TD*%
D13*
%TO.C,R3*%
X69342000Y-100330000D03*
X69342000Y-113030000D03*
%TD*%
%TO.C,R2*%
X98552000Y-82550000D03*
X98552000Y-95250000D03*
%TD*%
D14*
%TO.C,SQ3*%
X98480000Y-144620000D03*
X96580000Y-144620000D03*
X97530000Y-146495000D03*
%TD*%
D12*
%TO.C,R8*%
X98552000Y-87070000D03*
X98552000Y-90170000D03*
%TD*%
D13*
%TO.C,R5*%
X69342000Y-118110000D03*
X69342000Y-130810000D03*
%TD*%
D14*
%TO.C,SQ1*%
X98480000Y-136222500D03*
X96580000Y-136222500D03*
X97530000Y-138097500D03*
%TD*%
D13*
%TO.C,R1*%
X69342000Y-82550000D03*
X69342000Y-95250000D03*
%TD*%
D15*
%TO.C,U1*%
X81095000Y-82680000D03*
D16*
X81395000Y-85710000D03*
X86245000Y-85710000D03*
D15*
X86545000Y-82680000D03*
D17*
X74930000Y-82550000D03*
D18*
X74930000Y-82550000D03*
D13*
X74930000Y-85090000D03*
D19*
X74130000Y-85090000D03*
D20*
X74930000Y-87630000D03*
D21*
X74930000Y-87630000D03*
D13*
X74930000Y-90170000D03*
D19*
X74130000Y-90170000D03*
D13*
X74930000Y-92710000D03*
D19*
X74130000Y-92710000D03*
D13*
X74930000Y-95250000D03*
D19*
X74130000Y-95250000D03*
D13*
X74930000Y-97790000D03*
D19*
X74130000Y-97790000D03*
D20*
X74930000Y-100330000D03*
D21*
X74930000Y-100330000D03*
D13*
X74930000Y-102870000D03*
D19*
X74130000Y-102870000D03*
D13*
X74930000Y-105410000D03*
D19*
X74130000Y-105410000D03*
D13*
X74930000Y-107950000D03*
D19*
X74130000Y-107950000D03*
D13*
X74930000Y-110490000D03*
D19*
X74130000Y-110490000D03*
D20*
X74930000Y-113030000D03*
D21*
X74930000Y-113030000D03*
D13*
X74930000Y-115570000D03*
D19*
X74130000Y-115570000D03*
D13*
X74930000Y-118110000D03*
D19*
X74130000Y-118110000D03*
D13*
X74930000Y-120650000D03*
D19*
X74130000Y-120650000D03*
D13*
X74930000Y-123190000D03*
D19*
X74130000Y-123190000D03*
D20*
X74930000Y-125730000D03*
D21*
X74930000Y-125730000D03*
D13*
X74930000Y-128270000D03*
D19*
X74130000Y-128270000D03*
D13*
X74930000Y-130810000D03*
D19*
X74130000Y-130810000D03*
D13*
X92710000Y-130810000D03*
D19*
X93510000Y-130810000D03*
D13*
X92710000Y-128270000D03*
D19*
X93510000Y-128270000D03*
D22*
X92710000Y-125730000D03*
D23*
X92710000Y-125730000D03*
D13*
X92710000Y-123190000D03*
D19*
X93510000Y-123190000D03*
D13*
X92710000Y-120650000D03*
D19*
X93510000Y-120650000D03*
D13*
X92710000Y-118110000D03*
D19*
X93510000Y-118110000D03*
D13*
X92710000Y-115570000D03*
D19*
X93510000Y-115570000D03*
D22*
X92710000Y-113030000D03*
D23*
X92710000Y-113030000D03*
D13*
X92710000Y-110490000D03*
D19*
X93510000Y-110490000D03*
D13*
X92710000Y-107950000D03*
D19*
X93510000Y-107950000D03*
D13*
X92710000Y-105410000D03*
D19*
X93510000Y-105410000D03*
D13*
X92710000Y-102870000D03*
D19*
X93510000Y-102870000D03*
D22*
X92710000Y-100330000D03*
D23*
X92710000Y-100330000D03*
D13*
X92710000Y-97790000D03*
D19*
X93510000Y-97790000D03*
D13*
X92710000Y-95250000D03*
D19*
X93510000Y-95250000D03*
D13*
X92710000Y-92710000D03*
D19*
X93510000Y-92710000D03*
D13*
X92710000Y-90170000D03*
D19*
X93510000Y-90170000D03*
D22*
X92710000Y-87630000D03*
D23*
X92710000Y-87630000D03*
D13*
X92710000Y-85090000D03*
D19*
X93510000Y-85090000D03*
D13*
X92710000Y-82550000D03*
D19*
X93510000Y-82550000D03*
%TD*%
D14*
%TO.C,SQ2*%
X98480000Y-140413500D03*
X96580000Y-140413500D03*
X97530000Y-142288500D03*
%TD*%
D10*
%TO.C,Q3*%
X68450000Y-146421000D03*
D11*
X70990000Y-146421000D03*
X73530000Y-146421000D03*
%TD*%
D12*
%TO.C,R11*%
X69342000Y-122910000D03*
X69342000Y-126010000D03*
%TD*%
%TO.C,R12*%
X98552000Y-122910000D03*
X98552000Y-126010000D03*
%TD*%
D24*
%TO.C,J1*%
X76200000Y-135475000D03*
D25*
X78740000Y-135475000D03*
X81280000Y-135475000D03*
X83820000Y-135475000D03*
X86360000Y-135475000D03*
X88900000Y-135475000D03*
X91440000Y-135475000D03*
%TD*%
D12*
%TO.C,R7*%
X69342000Y-87350000D03*
X69342000Y-90450000D03*
%TD*%
D13*
%TO.C,R6*%
X98552000Y-118110000D03*
X98552000Y-130810000D03*
%TD*%
%TO.C,R4*%
X98552000Y-100330000D03*
X98552000Y-113030000D03*
%TD*%
D12*
%TO.C,R10*%
X98552000Y-105130000D03*
X98552000Y-108230000D03*
%TD*%
D26*
%TO.C,J2*%
X85150000Y-141750000D03*
D27*
X82550000Y-141750000D03*
X87250000Y-141750000D03*
X80450000Y-141750000D03*
X87250000Y-139250000D03*
X82950000Y-139250000D03*
X80450000Y-139250000D03*
D28*
X83850000Y-145550000D03*
%TD*%
D10*
%TO.C,Q1*%
X68450000Y-136350000D03*
D11*
X70990000Y-136350000D03*
X73530000Y-136350000D03*
%TD*%
M02*
